<?xml version="1.0" encoding="utf-8"?>
<!-- Generator: Adobe Illustrator 24.1.2, SVG Export Plug-In . SVG Version: 6.00 Build 0)  -->
<svg version="1.1" id="Capa_1" xmlns="http://www.w3.org/2000/svg" xmlns:xlink="http://www.w3.org/1999/xlink" x="0px" y="0px"
	 viewBox="0 0 500 500" style="enable-background:new 0 0 500 500;" xml:space="preserve">
<style type="text/css">
	.st0{fill:#EBEBEB;}
	.st1{fill:#FFFFFF;}
	.st2{opacity:0.2;fill:#424152;enable-background:new    ;}
	.st3{fill:#E6E6E6;}
	.st4{fill:#F0F0F0;}
	.st5{opacity:0.2;fill:#F2A744;enable-background:new    ;}
	.st6{fill:#F5F5F5;}
	.st7{fill:#424152;}
	.st8{fill:#FF8B7B;}
	.st9{fill:#F27444;}
	.st10{opacity:0.2;}
	.st11{opacity:0.2;fill:#FFFFFF;enable-background:new    ;}
	.st12{opacity:0.2;enable-background:new    ;}
	.st13{fill:#F2A744;}
	.st14{opacity:0.3;fill:#754FFE;enable-background:new    ;}
	.st15{fill:#18113C;}
	.st16{fill:#FF5652;}
	.st17{opacity:0.7;fill:#F27444;enable-background:new    ;}
	.st18{opacity:0.2;fill:#F27444;enable-background:new    ;}
	.st19{fill:#FFC3BD;}
	.st20{opacity:0.7;fill:#111212;enable-background:new    ;}
	.st21{opacity:0.8;fill:#111212;enable-background:new    ;}
	.st22{fill:#ED937E;}
	.st23{opacity:0.4;}
	.st24{opacity:0.4;fill:#18113C;enable-background:new    ;}
</style>
<path class="st0" d="M500,382.4H0v0.3h500V382.4z"/>
<path class="st0" d="M237,337.8H43.9c-1.5,0-3-0.6-4-1.7c-1.1-1.1-1.7-2.5-1.7-4V60.7c0-1.5,0.6-2.9,1.7-4c1.1-1.1,2.5-1.7,4-1.7
	H237c1.5,0,3,0.6,4,1.7c1.1,1.1,1.7,2.5,1.7,4v271.4c0,1.5-0.6,3-1.7,4S238.5,337.8,237,337.8L237,337.8z M43.9,55.2
	c-1.5,0-2.8,0.6-3.8,1.6c-1,1-1.6,2.4-1.6,3.9v271.4c0,1.5,0.6,2.8,1.6,3.9c1,1,2.4,1.6,3.8,1.6H237c1.4,0,2.8-0.6,3.9-1.6
	c1-1,1.6-2.4,1.6-3.9V60.7c0-1.5-0.6-2.8-1.6-3.9c-1-1-2.4-1.6-3.9-1.6H43.9z"/>
<path class="st0" d="M453.3,337.8H260.2c-1.5,0-3-0.6-4-1.7c-1.1-1.1-1.7-2.5-1.7-4V60.7c0-1.5,0.6-2.9,1.7-4c1.1-1.1,2.5-1.7,4-1.7
	h193.1c1.5,0,2.9,0.6,4,1.7s1.7,2.5,1.7,4v271.4c0,1.5-0.6,3-1.7,4C456.3,337.2,454.8,337.8,453.3,337.8L453.3,337.8z M260.2,55.2
	c-1.5,0-2.8,0.6-3.9,1.6c-1,1-1.6,2.4-1.6,3.9v271.4c0,1.5,0.6,2.8,1.6,3.9c1,1,2.4,1.6,3.9,1.6h193.1c1.5,0,2.8-0.6,3.9-1.6
	c1-1,1.6-2.4,1.6-3.9V60.7c0-1.5-0.6-2.8-1.6-3.9s-2.4-1.6-3.9-1.6H260.2z"/>
<path class="st0" d="M449.9,391.9h-31.6v0.3h31.6V391.9z"/>
<path class="st0" d="M335.3,389.2h-33.4v0.3h33.4V389.2z"/>
<path class="st0" d="M459,401.2h-62.4v0.3H459V401.2z"/>
<path class="st0" d="M71.7,399.5H52.5v0.3h19.2V399.5z"/>
<path class="st0" d="M110.9,399.5H80.6v0.3h30.3V399.5z"/>
<path class="st0" d="M244.1,395.3h-54.6v0.3h54.6V395.3z"/>
<path class="st1" d="M272.3,118.1l-57,57v189.8h200V118.1H272.3z"/>
<path class="st2" d="M415.3,365.5h-200c-0.1,0-0.3-0.1-0.4-0.2s-0.2-0.2-0.2-0.4V175.1c0-0.1,0-0.1,0-0.2s0.1-0.1,0.1-0.2l57-57
	c0.1-0.1,0.2-0.2,0.4-0.2h143c0.1,0,0.1,0,0.2,0c0.1,0,0.1,0.1,0.2,0.1s0.1,0.1,0.1,0.2s0,0.1,0,0.2v246.8c0,0.1,0,0.1,0,0.2
	c0,0.1-0.1,0.1-0.1,0.2c0,0-0.1,0.1-0.2,0.1C415.4,365.4,415.3,365.5,415.3,365.5L415.3,365.5z M215.8,364.4h198.9V118.7H272.5
	l-56.7,56.7L215.8,364.4L215.8,364.4z"/>
<path class="st3" d="M215.3,175.1l59.8,7.7l-2.8-64.7L215.3,175.1z"/>
<path class="st1" d="M215.3,175.1h57v-57L215.3,175.1z"/>
<path class="st2" d="M272.3,175.6h-57c-0.1,0-0.2,0-0.3-0.1s-0.2-0.1-0.2-0.2s-0.1-0.2,0-0.3c0-0.1,0.1-0.2,0.1-0.3l57-57
	c0.1-0.1,0.2-0.1,0.3-0.2c0.1,0,0.2,0,0.3,0s0.2,0.1,0.2,0.2s0.1,0.2,0.1,0.3v57c0,0.1-0.1,0.3-0.2,0.4
	C272.5,175.6,272.4,175.6,272.3,175.6L272.3,175.6z M216.6,174.6h55.2v-55.2L216.6,174.6z"/>
<path class="st4" d="M326.8,257.2l34-34c0.8-0.8,1.4-1.7,1.8-2.6c0.4-1,0.6-2.1,0.6-3.1c0-1.1-0.2-2.1-0.6-3.1s-1-1.9-1.8-2.6
	c-0.8-0.8-1.7-1.4-2.6-1.8s-2.1-0.6-3.1-0.6s-2.1,0.2-3.1,0.6c-1,0.4-1.9,1-2.6,1.8l-34,34l-34-34c-1.5-1.5-3.6-2.4-5.8-2.4
	c-2.2,0-4.3,0.9-5.8,2.4s-2.4,3.6-2.4,5.8c0,2.2,0.9,4.3,2.4,5.8l34,34l-34,34c-1.5,1.5-2.4,3.6-2.4,5.8c0,2.2,0.9,4.3,2.4,5.8
	c1.5,1.5,3.6,2.4,5.8,2.4s4.3-0.9,5.8-2.4l34-34l34,34c1.5,1.5,3.6,2.4,5.8,2.4s4.3-0.9,5.8-2.4c1.5-1.5,2.4-3.6,2.4-5.8
	s-0.9-4.3-2.4-5.8L326.8,257.2z"/>
<path class="st4" d="M223,229c-1.9,1.9-4.5,3-7.2,3c-2.7,0-5.3-1.1-7.2-3l-32.8-32.8l14.5-14.5l32.8,32.9c1.9,1.9,3,4.5,3,7.2
	C226,224.5,224.9,227.1,223,229L223,229z"/>
<path class="st5" d="M175.7,196.2l14.5-14.5l1.3,1.3c1.4,1.4,2.2,3.3,2.2,5.2c0,2-0.8,3.8-2.2,5.2l-4,4c-1.4,1.4-3.3,2.2-5.2,2.2
	c-2,0-3.8-0.8-5.2-2.2L175.7,196.2L175.7,196.2z"/>
<path class="st5" d="M84.7,90.7c-9.9,9.9-16.7,22.6-19.4,36.3c-2.7,13.8-1.3,28,4.1,41c5.4,13,14.5,24.1,26.2,31.9s25.4,12,39.4,12
	s27.8-4.2,39.4-12c11.7-7.8,20.8-18.9,26.1-31.9c5.4-13,6.8-27.2,4.1-41c-2.7-13.8-9.5-26.4-19.4-36.3c-6.6-6.6-14.4-11.8-23-15.4
	c-8.6-3.6-17.9-5.4-27.2-5.4s-18.6,1.8-27.2,5.4C99.1,78.9,91.3,84.1,84.7,90.7L84.7,90.7z M181.1,187.1
	c-9.1,9.1-20.7,15.3-33.4,17.9c-12.6,2.5-25.8,1.2-37.7-3.7c-11.9-4.9-22.1-13.3-29.3-24c-7.2-10.7-11-23.3-11-36.2
	c0-12.9,3.8-25.5,11-36.2c7.2-10.7,17.3-19.1,29.3-24s25-6.2,37.7-3.7c12.6,2.5,24.3,8.7,33.4,17.8c6.1,6.1,10.9,13.3,14.1,21.2
	s5,16.4,5,25c0,8.6-1.7,17.1-5,25S187.1,181,181.1,187.1L181.1,187.1z"/>
<path class="st5" d="M172.3,180.6c-0.5,0-0.9-0.1-1.3-0.4c-0.4-0.3-0.7-0.6-0.9-1.1c-0.2-0.4-0.2-0.9-0.1-1.4
	c0.1-0.5,0.3-0.9,0.6-1.2c9.4-9.5,14.7-22.3,14.7-35.6s-5.3-26.2-14.7-35.7c-0.2-0.2-0.4-0.5-0.6-0.8c-0.1-0.3-0.2-0.6-0.2-0.9
	s0.1-0.7,0.2-0.9c0.1-0.3,0.3-0.6,0.5-0.8s0.5-0.4,0.8-0.5c0.3-0.1,0.6-0.2,0.9-0.2c0.3,0,0.6,0.1,0.9,0.2s0.6,0.3,0.8,0.6
	c10.3,10.3,16.1,24.4,16.1,39s-5.8,28.6-16.1,39c-0.2,0.2-0.5,0.4-0.8,0.5C172.9,180.6,172.6,180.6,172.3,180.6L172.3,180.6z"/>
<path class="st5" d="M83.6,155.5c-0.5,0-1.1-0.2-1.5-0.5s-0.7-0.8-0.8-1.3c-1.7-7.3-1.9-14.9-0.6-22.3c1.3-7.4,4.1-14.5,8.2-20.8
	c0.3-0.5,0.9-0.9,1.5-1s1.3,0,1.8,0.3c0.5,0.3,0.9,0.9,1,1.5s0,1.3-0.3,1.8c-3.8,5.8-6.3,12.2-7.6,19c-1.2,6.8-1,13.7,0.6,20.4
	c0.1,0.3,0.1,0.6,0,0.9c-0.1,0.3-0.2,0.6-0.3,0.9c-0.2,0.3-0.4,0.5-0.6,0.7s-0.5,0.3-0.8,0.4C83.9,155.5,83.8,155.5,83.6,155.5
	L83.6,155.5z"/>
<path class="st5" d="M97.6,180.6c-0.6,0-1.2-0.3-1.7-0.7c-4.3-4.3-7.8-9.2-10.5-14.6c-0.1-0.3-0.2-0.6-0.2-0.9c0-0.3,0-0.6,0.1-0.9
	c0.1-0.3,0.3-0.6,0.5-0.8c0.2-0.2,0.5-0.4,0.7-0.6c0.3-0.1,0.6-0.2,0.9-0.2s0.6,0,0.9,0.1c0.3,0.1,0.6,0.3,0.8,0.5
	c0.2,0.2,0.4,0.5,0.6,0.7c2.4,4.9,5.7,9.5,9.6,13.4c0.4,0.4,0.7,1.1,0.7,1.7c0,0.6-0.3,1.2-0.7,1.7
	C98.8,180.4,98.3,180.6,97.6,180.6L97.6,180.6z"/>
<path class="st4" d="M211,320.4l9.4,9.4l-21.7,21.7c-1.1,1.1-2.6,1.7-4.2,1.7s-3.1-0.6-4.2-1.7l-1-1c-1.1-1.1-1.7-2.6-1.7-4.2
	s0.6-3.1,1.7-4.2L211,320.4L211,320.4z"/>
<path class="st5" d="M211.1,320.4l9.3,9.3l-0.4,0.5c-1,1-2.4,1.6-3.8,1.6c-1.4,0-2.8-0.6-3.8-1.6l-1.8-1.8c-1-1-1.6-2.4-1.6-3.8
	c0-1.4,0.6-2.8,1.6-3.8L211.1,320.4L211.1,320.4z"/>
<path class="st4" d="M284.4,269.7l-21.9,21.9c-2.4,2.6-3.8,6-3.7,9.6c0.1,3.6,1.5,7,4,9.5c2.5,2.5,5.9,4,9.5,4s7-1.3,9.6-3.7
	l8.9-8.9C292.6,290.9,290.3,279.4,284.4,269.7z"/>
<path class="st5" d="M292.6,290.8c-0.6-9.1-3.9-17.7-9.5-24.9s-13.1-12.6-21.7-15.5c-8.6-2.9-17.9-3.2-26.7-0.8
	c-8.8,2.4-16.6,7.3-22.6,14.2c-6,6.9-9.8,15.3-10.9,24.3s0.4,18.2,4.4,26.3c4.1,8.1,10.4,14.9,18.3,19.4c7.9,4.5,16.9,6.6,26,6
	c12.2-0.9,23.5-6.5,31.5-15.7C289.4,315,293.4,303,292.6,290.8z M204.7,296.9c-0.6-8.3,1.3-16.6,5.5-23.9s10.3-13.1,17.8-16.8
	s15.9-5.1,24.1-4.1c8.3,1.1,16.1,4.5,22.3,10c6.3,5.5,10.8,12.7,13,20.7c2.2,8,2,16.6-0.7,24.5s-7.6,14.9-14.2,20
	s-14.6,8.1-22.9,8.7c-11.2,0.8-22.2-2.9-30.6-10.3C210.6,318.5,205.5,308.1,204.7,296.9z"/>
<path class="st5" d="M223.4,320.9c-3.5-3.1-6.4-6.8-8.5-11s-3.3-8.8-3.7-13.4c0-0.2,0-0.4,0.1-0.6s0.2-0.4,0.3-0.5
	c0.1-0.2,0.3-0.3,0.5-0.4c0.2-0.1,0.4-0.1,0.6-0.2s0.4,0,0.6,0.1c0.2,0.1,0.4,0.2,0.5,0.3s0.3,0.3,0.4,0.5c0.1,0.2,0.1,0.4,0.1,0.6
	c0.6,8.6,4.6,16.6,11.1,22.3c6.5,5.7,15,8.5,23.6,8c0.4,0,0.8,0.1,1.1,0.4c0.3,0.3,0.5,0.6,0.5,1c0,0.4-0.1,0.8-0.4,1.1
	c-0.3,0.3-0.6,0.5-1.1,0.5c-4.7,0.3-9.4-0.3-13.8-1.8C231,326.3,226.9,324,223.4,320.9L223.4,320.9z"/>
<path class="st5" d="M278.6,286c-0.2-0.2-0.4-0.5-0.5-0.8c-1.2-4.3-3.3-8.3-6.1-11.7c-2.8-3.5-6.3-6.3-10.2-8.4
	c-0.3-0.2-0.6-0.5-0.7-0.9s-0.1-0.8,0.1-1.1s0.5-0.6,0.9-0.8s0.8-0.1,1.1,0.1c4.3,2.3,8.1,5.4,11.2,9.2c3.1,3.8,5.3,8.1,6.6,12.8
	c0,0.2,0.1,0.4,0,0.6c0,0.2-0.1,0.4-0.2,0.6s-0.2,0.3-0.4,0.5c-0.2,0.1-0.3,0.2-0.5,0.3c-0.2,0.1-0.5,0.1-0.8,0
	C279.1,286.3,278.8,286.2,278.6,286L278.6,286z"/>
<path class="st5" d="M243.4,261.1c-0.3-0.3-0.5-0.6-0.5-1.1c0-0.4,0.1-0.8,0.4-1.1c0.3-0.3,0.6-0.5,1.1-0.5
	c3.9-0.3,7.8,0.1,11.6,1.1c0.2,0,0.4,0.1,0.5,0.3c0.2,0.1,0.3,0.3,0.4,0.5c0.1,0.2,0.2,0.4,0.2,0.6s0,0.4,0,0.6
	c0,0.2-0.1,0.4-0.3,0.5c-0.1,0.2-0.3,0.3-0.5,0.4c-0.2,0.1-0.4,0.2-0.6,0.2c-0.2,0-0.4,0-0.6,0c-3.4-0.9-7-1.3-10.6-1
	C244.1,261.5,243.7,261.4,243.4,261.1L243.4,261.1z"/>
<path class="st6" d="M250,427.6c107.1,0,193.9-5.1,193.9-11.3s-86.8-11.3-193.9-11.3S56.1,410,56.1,416.2
	C56.1,422.5,142.9,427.6,250,427.6z"/>
<path class="st7" d="M137.8,145.9c-8.1,8.1,5.6,20.7-3.4,26.5c7.4,3.7,33.3,8.4,40-6.2c-4.9-3.8-1.5-13.1-6-22.1
	C161.7,130.8,129.8,136.7,137.8,145.9z"/>
<path class="st7" d="M138.6,145.7c-2.5-0.4-11,3.8-4.7,15.1c5.1,9.2,0.9,9.8,0.9,9.8s5,0.1,2-6.7
	C133.5,156.7,132.1,149.1,138.6,145.7z"/>
<path class="st8" d="M198,217.6c-0.3-0.6-0.8-1-1.4-1.2c-0.6-0.2-1.3-0.1-1.9,0.2l-0.6,0.3c-0.2,0.1-0.6,0.3-0.8,0.5
	s-0.6,0.4-0.9,0.5c-0.6,0.3-1.3,0.6-1.9,0.8c-1.2,0.4-2.5,0.7-3.9,0.7c-1.2,0-2.4-0.2-3.6-0.6c-0.7-0.3-1.4-0.6-2.1-1
	c-0.9-1.9-1.7-3.8-2.4-5.8c-0.9-2.3-1.6-4.7-2.3-7.1c-0.7-2.4-1.2-4.8-1.7-7.2c-0.3-1.2-0.5-2.4-0.7-3.6l-0.3-1.8
	c-0.1-0.6-0.2-1.2-0.2-1.7v-0.2c-0.1-1.3-0.8-2.5-1.8-3.4c-1-0.8-2.4-1.2-3.7-1.1c-1.3,0.1-2.5,0.8-3.4,1.8c-0.8,1-1.2,2.4-1.1,3.7
	c0.1,0.9,0.1,1.5,0.2,2.2s0.2,1.4,0.3,2.1c0.2,1.4,0.5,2.7,0.8,4.1c0.6,2.7,1.3,5.4,2.1,8c0.4,1.3,0.9,2.6,1.3,3.9s1,2.6,1.6,3.9
	c1.1,2.6,2.3,5.1,3.7,7.5l0.1,0.2c0.4,0.6,0.9,1.2,1.6,1.5c1.9,1,3.9,1.8,6.1,2.1c2.2,0.4,4.4,0.3,6.6-0.1c3-0.7,5.8-2.2,8.1-4.4
	c0.4-0.3,0.7-0.7,1-1.1s0.6-0.7,1-1.2c0.3-0.4,0.5-0.8,0.5-1.3C198.3,218.5,198.2,218,198,217.6z"/>
<path class="st8" d="M204.6,208.3h-0.3c-1,0-1.9,0.2-2.8,0.6c-0.9,0.4-1.6,1-2.2,1.8l-4.8,6.1v4.1c3.9,1.5,8.8-2.6,8.8-2.6l2.5-0.6
	c0.8-0.2,1.6-0.7,2.1-1.4s0.7-1.6,0.6-2.4l-0.4-2.4c-0.1-0.8-0.5-1.6-1.1-2.1C206.3,208.6,205.5,208.3,204.6,208.3L204.6,208.3z"/>
<path class="st9" d="M173.2,184.9c3.2,3.3,3.4,13.2,3.4,13.2l-12.9,10.4c0,0-5.3-14.7-2.4-19.9C163.9,184.2,169.1,180.6,173.2,184.9
	z"/>
<g class="st10">
	<path class="st11" d="M173.2,184.9c3.2,3.3,3.4,13.2,3.4,13.2l-12.9,10.4c0,0-5.3-14.7-2.4-19.9
		C163.9,184.2,169.1,180.6,173.2,184.9z"/>
</g>
<path class="st8" d="M151.9,407.7l7.1,0.8l1-19.4l-7.1-0.8L151.9,407.7z"/>
<path class="st7" d="M160.2,403.8h-8.4c-0.2,0-0.3,0.1-0.5,0.2c-0.1,0.1-0.2,0.3-0.2,0.4l-0.6,7.9c0,0.4,0.2,0.8,0.4,1.1
	s0.7,0.5,1.1,0.5c3.5,0,3.6,0,8,0H172c3.7,0,3.7-3.7,2.1-4c-7.1-1.5-9.9-3.6-12.4-5.6C161.3,404,160.7,403.8,160.2,403.8
	L160.2,403.8z"/>
<path class="st12" d="M160,389.1l-0.5,10h-7.2l0.6-10.8L160,389.1z"/>
<path class="st7" d="M163.8,234.3c0,0,6.2,51.7,6.2,74.7c-4.9,32-9,88.2-9,88.2l-9.9-0.3c0,0-4.5-61.2-0.3-87.6
	c-5.3-23.7-11.9-78.3-11.9-78.3L163.8,234.3z"/>
<path class="st12" d="M144.8,248.7c-1.2,0.5-2.3,1.1-3.4,1.8c1.4,10.2,3.1,23.1,5.1,34.9C149.6,275.6,147.9,254.1,144.8,248.7z"/>
<path class="st8" d="M74.5,389.7l5.9,4.1l10.2-16.6l-5.9-4.1L74.5,389.7z"/>
<path class="st7" d="M81.9,391.6l-5-6.7c-0.1-0.1-0.2-0.2-0.4-0.3c-0.2,0-0.3,0-0.5,0.1l-6.7,4.3c-0.3,0.3-0.6,0.6-0.6,1
	c-0.1,0.4,0,0.8,0.3,1.2c2.1,2.9,2.1,2.9,4.8,6.4c1.6,2.2,4.9,6.5,7.1,9.5c2.2,3,5.2,0.7,4.5-0.8c-3-6.6-3-10-2.9-13.2
	C82.4,392.6,82.2,392,81.9,391.6L81.9,391.6z"/>
<path class="st12" d="M90.6,377.2l-5.2,8.5l-6.3-3.4l5.7-9.2L90.6,377.2z"/>
<path class="st13" d="M110.7,396.6c-5.1,0-15.8,0-15.9-7.5c-0.1-5.9,7.2-8.4,13.5-8.6c0.7,0,1.4,0.1,2.1,0.3s1.3,0.6,1.8,1.1
	s0.9,1,1.2,1.7c0.3,0.6,0.5,1.3,0.5,2v0.4c7.1-0.3,11.8-1.9,13.4-4.6c3.8-6-3.5-21.5-10.5-36.5c-8.3-17.6-17.7-37.6-17.9-56.7
	c0-0.7,0.1-1.4,0.4-2s0.7-1.2,1.1-1.7s1.1-0.9,1.7-1.2c0.6-0.3,1.3-0.4,2-0.4l0,0c1.4,0,2.8,0.6,3.7,1.5c1,1,1.6,2.3,1.6,3.7
	c0.2,16.8,9,35.6,16.9,52.2c9,19.2,16.9,35.8,9.9,46.7C132.1,393.5,123.8,396.6,110.7,396.6z"/>
<path class="st7" d="M155.9,233.3c0,0-17.1,59.1-25.4,80.6c-16.1,28.1-42.9,71-42.9,71l-8.6-5c0,0,20-49.6,33.4-72.7
	c3.6-24,17.3-77.3,17.3-77.3L155.9,233.3z"/>
<path class="st9" d="M83.4,396.4c0.3,0.6,0.9,1,1.5,1.2c0.2,0,0.4,0,0.6,0s0.3-0.2,0.4-0.3c0.1-0.1,0.2-0.2,0.2-0.3
	c0-0.1,0.1-0.2,0-0.3c-0.1-1.2-3.2-2.8-3.8-3.1c0,0-0.1,0-0.1,0c0,0-0.1,0-0.1,0.1c0,0,0,0.1,0,0.1c0,0,0,0.1,0,0.1
	C82.5,394.8,82.9,395.6,83.4,396.4L83.4,396.4z M85.6,396.4c0.1,0.1,0.2,0.2,0.2,0.4c0,0,0,0.1,0,0.1s0,0.1-0.1,0.1
	c-0.1,0.1-0.2,0.2-0.3,0.2s-0.2,0-0.4,0c-0.7-0.1-1.5-1.2-2.4-2.9C83.7,394.9,84.7,395.6,85.6,396.4
	C85.6,396.4,85.6,396.4,85.6,396.4z"/>
<path class="st9" d="M82.1,394L82.1,394c1.1,0.6,3.7,1,4.2,0.2c0.1-0.1,0.1-0.3,0.1-0.5c0-0.2-0.1-0.4-0.2-0.5c-1-1.8-4,0.3-4.1,0.4
	c0,0-0.1,0-0.1,0.1s0,0.1,0,0.1C82,393.9,82,393.9,82.1,394z M85.9,393.4c0,0,0.1,0.1,0.1,0.1c0.1,0.2,0.1,0.3,0.1,0.4
	c-0.3,0.5-2.3,0.3-3.4-0.1C83.4,393.4,85.1,392.5,85.9,393.4z"/>
<path class="st9" d="M165,405.4c0.7,0.1,1.3-0.1,1.9-0.5c0.1-0.1,0.2-0.3,0.3-0.5c0.1-0.2,0.1-0.4,0-0.5c0-0.1-0.1-0.2-0.1-0.3
	c-0.1-0.1-0.1-0.2-0.2-0.2c-1-0.6-4.1,0.9-4.7,1.3c0,0-0.1,0-0.1,0.1c0,0,0,0.1,0,0.1c0,0,0,0.1,0.1,0.1c0,0,0.1,0,0.1,0.1
	C163.1,405.3,164.1,405.4,165,405.4L165,405.4z M166.2,403.7c0.1,0,0.3,0,0.4,0.1c0.1,0,0.1,0.1,0.1,0.2c0,0.1,0,0.2,0,0.4
	c0,0.1-0.1,0.2-0.2,0.3c-0.5,0.5-1.9,0.5-3.7,0.2C163.9,404.3,165,403.9,166.2,403.7L166.2,403.7L166.2,403.7z"/>
<path class="st9" d="M162.2,405.1L162.2,405.1c1.1-0.5,3-2.3,2.7-3.2c-0.1-0.2-0.2-0.3-0.3-0.4c-0.1-0.1-0.3-0.1-0.5-0.1
	c-2-0.2-2.1,3.4-2.1,3.5c0,0,0,0.1,0,0.1c0,0,0.1,0.1,0.1,0.1C162.1,405.1,162.1,405.1,162.2,405.1L162.2,405.1z M164,401.7h0.1
	c0.2,0,0.3,0.1,0.4,0.2c0.2,0.5-1.1,2-2.1,2.6C162.5,403.7,162.8,401.7,164,401.7L164,401.7z"/>
<path class="st9" d="M129.8,229.9l34.1,4.4c7.7-25.9,10.2-38.3,10.9-44.4c0.2-1.5-0.2-3-1-4.3c-0.8-1.3-2.1-2.2-3.5-2.7
	c-2-0.6-4.6-1.4-7.1-2c-0.9-0.2-1.8-0.4-2.6-0.6c-5.1-1-10.3-1.7-15.5-2c-0.8-0.1-1.5-0.1-2.3-0.1c-1.5-0.1-3-0.1-4.4-0.1
	c-1,0-2,0.2-3,0.6c-0.9,0.4-1.8,1-2.5,1.8s-1.2,1.6-1.5,2.6c-0.3,1-0.4,2-0.4,3c0.3,3,0.5,5.8,0.6,8.4c0.4,6,0.5,10.8,0.4,15
	C131.8,216.3,131.1,223.1,129.8,229.9L129.8,229.9z"/>
<path class="st14" d="M132,209.3c4.5-5.8,6.1-12.5,4.7-16.1l-5.1,1.1C132,200.3,132.1,205.1,132,209.3z"/>
<path class="st1" d="M163.1,180.8c-0.9-0.2-1.8-0.4-2.6-0.6c-5.1-1-10.3-1.7-15.5-2c-0.8-0.1-1.5-0.1-2.3-0.1l-1.3-0.1l1,1.8
	c0.1,0.2,3.5,5.8,12,11.8l1.8,1.3l1.7-1.3c1.7-1.2,3-2.8,4-4.6s1.5-3.9,1.5-5.9L163.1,180.8z"/>
<path class="st8" d="M148.7,167.9c-0.3,4.2-1.3,8.5-3.8,10.3c0,0,3.1,5.2,11.2,10.9c5.1-3.9,4.3-8.9,4.3-8.9c-5.4-2-5-5.7-2.7-11.7
	l-4.2-2.3c-0.4-0.4-0.8-0.7-1.4-0.8c-0.5-0.1-1.1-0.1-1.6,0.1c-0.5,0.2-1,0.5-1.3,0.9C148.9,166.9,148.8,167.4,148.7,167.9
	L148.7,167.9z"/>
<path class="st12" d="M153.5,166.3c-0.3-0.4-0.8-0.6-1.3-0.8c-0.5-0.1-1-0.1-1.5,0c-0.5,0.1-0.9,0.4-1.3,0.8
	c-0.4,0.4-0.6,0.8-0.7,1.3c1.6,3.2,4.2,5.9,7.4,7.5c0.1-2.3,0.6-4.5,1.6-6.5L153.5,166.3z"/>
<path class="st8" d="M142.2,154.7c2.1,8.1,2.8,11.6,7.8,15c7.5,5.1,17,0.8,17.4-7.8c0.4-7.7-3.1-19.7-11.8-21.4
	c-1.9-0.4-3.9-0.3-5.8,0.3c-1.9,0.6-3.5,1.6-4.9,3.1c-1.3,1.4-2.3,3.2-2.8,5.1C141.6,150.9,141.6,152.8,142.2,154.7L142.2,154.7z"/>
<path class="st7" d="M162.9,142.2c-4.9,4.4-10.7,7.6-17,9.4c0,0,6.2,13.2-5.4,9.9c-3.4-11.3,0-17.1,3-19.8
	C152.7,138.6,159.2,137.6,162.9,142.2z"/>
<path class="st8" d="M141.8,162.7c0.7,1.5,1.9,2.6,3.4,3.2c2,0.7,3.2-1,2.8-3c-0.4-1.8-1.9-4.3-4-4.2c-0.4,0-0.9,0.2-1.3,0.4
	s-0.7,0.6-0.9,1c-0.2,0.4-0.3,0.8-0.3,1.3S141.6,162.3,141.8,162.7L141.8,162.7z"/>
<path class="st9" d="M129.7,227.1l-2.1,2.8c-0.2,0.2,0.1,0.5,0.5,0.6l35.5,6c0.3,0,0.6-0.1,0.6-0.2l0.8-3c0-0.2-0.2-0.4-0.5-0.5
	l-34.3-5.8c-0.1,0-0.2,0-0.3,0C129.9,227,129.8,227.1,129.7,227.1L129.7,227.1z"/>
<path class="st15" d="M133.6,232.3l-0.9-0.1c-0.2,0-0.3-0.1-0.3-0.3l0.9-3.9c0-0.1,0.1-0.1,0.2-0.1s0.1,0,0.2,0l0.9,0.1
	c0.2,0,0.3,0.1,0.3,0.3l-0.9,3.9C134,232.2,133.8,232.3,133.6,232.3z"/>
<path class="st15" d="M161.1,235.8l-0.9-0.1c-0.2,0-0.3-0.1-0.3-0.3l0.9-3.9c0-0.1,0.2-0.2,0.4-0.2l0.9,0.1c0.2,0,0.3,0.1,0.3,0.3
	l-0.9,3.9C161.5,235.8,161.3,235.8,161.1,235.8z"/>
<path class="st15" d="M147.4,234.1l-0.9-0.1c-0.2,0-0.3-0.1-0.3-0.3l0.9-3.9c0-0.1,0.2-0.2,0.4-0.2l0.9,0.1c0.2,0,0.3,0.1,0.3,0.3
	l-0.9,3.9C147.8,234,147.6,234.1,147.4,234.1z"/>
<path class="st15" d="M156.1,154.4c0.1,0.7,0.6,1.1,1,1.1s0.7-0.7,0.6-1.4s-0.6-1.1-1-1.1S156,153.7,156.1,154.4z"/>
<path class="st15" d="M163.7,152.9c0.1,0.7,0.6,1.1,1,1.1s0.7-0.7,0.6-1.4s-0.6-1.1-1-1.1S163.5,152.3,163.7,152.9z"/>
<path class="st15" d="M164,151.6l1.5-0.8C165.5,150.9,165,152.3,164,151.6z"/>
<path class="st16" d="M161.7,154.4c0.9,1.4,2,2.7,3.2,3.8c-0.3,0.3-0.6,0.6-1.1,0.7c-0.4,0.2-0.8,0.2-1.3,0.2L161.7,154.4z"/>
<path class="st15" d="M156.9,161.8c0,0-0.1,0.1-0.1,0.1s0,0.1,0,0.1c0,0,0.1,0.1,0.1,0.1c0,0,0.1,0,0.1,0c0.8-0.4,1.6-0.6,2.4-0.6
	s1.7,0.2,2.4,0.6c0.1,0,0.1,0,0.1,0c0.1,0,0.1-0.1,0.1-0.1c0-0.1,0-0.1,0-0.1c0-0.1,0-0.1-0.1-0.1c-0.8-0.4-1.7-0.6-2.6-0.6
	C158.7,161.2,157.8,161.4,156.9,161.8C157,161.8,157,161.8,156.9,161.8z"/>
<path class="st15" d="M153.5,152.3c0.1,0,0.1-0.1,0.1-0.2c0.2-0.5,0.5-0.9,0.9-1.2s0.9-0.5,1.4-0.6c0.1,0,0.1,0,0.1-0.1
	c0.1,0,0.1-0.1,0.1-0.1c0,0,0.1-0.1,0.1-0.1c0-0.1,0-0.1,0-0.2c0-0.1,0-0.1-0.1-0.1c0-0.1-0.1-0.1-0.1-0.1c0,0-0.1-0.1-0.1-0.1
	c-0.1,0-0.1,0-0.2,0c-0.6,0.1-1.2,0.4-1.7,0.8c-0.5,0.4-0.9,0.9-1.2,1.5c0,0.1-0.1,0.2,0,0.3c0,0.1,0.1,0.2,0.1,0.2s0.1,0.1,0.2,0.1
	C153.3,152.4,153.4,152.4,153.5,152.3L153.5,152.3z"/>
<path class="st15" d="M165.9,147.2L165.9,147.2c0.1-0.1,0.1-0.1,0.1-0.2s0-0.1,0-0.2c0-0.1,0-0.1-0.1-0.1c0,0-0.1-0.1-0.1-0.1
	c-0.5-0.4-1.1-0.6-1.7-0.7c-0.6-0.1-1.3,0-1.9,0.2c-0.1,0-0.2,0.1-0.2,0.2s0,0.2,0,0.3c0,0.1,0.1,0.2,0.2,0.2c0.1,0,0.2,0,0.3,0
	c0.5-0.2,1-0.2,1.5-0.1s1,0.3,1.4,0.6c0.1,0.1,0.2,0.1,0.3,0.1C165.8,147.4,165.8,147.3,165.9,147.2L165.9,147.2z"/>
<path class="st15" d="M156.5,153.1l1.5-0.8C158,152.3,157.4,153.7,156.5,153.1z"/>
<path class="st13" d="M104.1,293.5c-1.4,0-2.8-0.5-3.7-1.5c-1-1-1.6-2.3-1.6-3.7c-0.1-14.2,4.6-26.2,13.7-34.7
	c11.2-10.4,28.6-15.3,49.2-13.7c14.4,1.1,23.6-2.4,34.3-6.4c1.8-0.7,3.5-1.3,5.4-2c1.3-0.5,2.8-0.4,4.1,0.2c1.3,0.6,2.3,1.7,2.8,3
	c0.5,1.3,0.4,2.8-0.2,4.1c-0.6,1.3-1.7,2.3-3,2.8c-1.8,0.6-3.5,1.3-5.2,1.9c-10.9,4.1-22.1,8.4-38.9,7.1
	c-17.5-1.4-32.1,2.5-41.1,10.8c-7,6.5-10.4,15.5-10.3,26.8c0,0.7-0.1,1.4-0.4,2c-0.3,0.6-0.7,1.2-1.1,1.7s-1.1,0.9-1.7,1.2
	C105.6,293.3,104.9,293.5,104.1,293.5L104.1,293.5L104.1,293.5z"/>
<path class="st13" d="M227.1,248.9l-21.4,7.8c-1.8,0.6-3.8,0.6-5.5-0.2c-1.7-0.8-3.1-2.3-3.7-4l-8.8-24.1c-0.6-1.8-0.6-3.8,0.2-5.5
	c0.8-1.7,2.3-3.1,4-3.7l21.4-7.8L227.1,248.9L227.1,248.9z"/>
<path class="st17" d="M227.1,248.9l-21.4,7.8c-1.8,0.6-3.8,0.6-5.5-0.2c-1.7-0.8-3.1-2.3-3.7-4l-8.8-24.1c-0.6-1.8-0.6-3.8,0.2-5.5
	c0.8-1.7,2.3-3.1,4-3.7l21.4-7.8L227.1,248.9L227.1,248.9z"/>
<path class="st18" d="M203.8,214.8l9.6-3.5l13.8,37.6l-9.6,3.5c-0.6-0.6-1.1-1.4-1.4-2.2l-12-32.8
	C203.9,216.6,203.8,215.7,203.8,214.8L203.8,214.8z"/>
<path class="st9" d="M234.8,220.7l-0.9,0.3l2.3,6.3l0.9-0.3L234.8,220.7z"/>
<path class="st9" d="M232.4,217.2l-3.4-9.2c-0.6-1.6-1.6-2.9-3-3.9c-1.4-0.9-3-1.5-4.7-1.5c-0.9,0-1.9,0.2-2.8,0.5l-6.1,2.2
	l-0.4-0.9l6.1-2.2c1-0.4,2.1-0.6,3.1-0.6c1.9,0,3.7,0.6,5.2,1.6c1.5,1.1,2.7,2.6,3.4,4.4l3.4,9.2L232.4,217.2z"/>
<path class="st13" d="M227.3,251.6l8.9-3.2c2.9-1.1,4.4-4.3,3.4-7.2l-12.1-33.5c-1.1-2.9-4.3-4.4-7.2-3.4l-8.9,3.2
	c-2.9,1.1-4.4,4.3-3.4,7.2l12.1,33.5C221.2,251.2,224.4,252.7,227.3,251.6z"/>
<path class="st7" d="M222.2,217.9c0.2,0.6,0.2,1.2,0.1,1.7s-0.4,1.1-0.9,1.5s-1,0.7-1.6,0.8c-0.6,0.1-1.2,0-1.7-0.3s-1-0.6-1.3-1.2
	c-0.3-0.5-0.5-1.1-0.4-1.7c0-0.6,0.2-1.2,0.6-1.6c0.4-0.5,0.8-0.8,1.4-1c0.8-0.3,1.6-0.2,2.3,0.1
	C221.4,216.5,221.9,217.1,222.2,217.9z"/>
<path class="st7" d="M229.7,238.3c0.2,0.6,0.2,1.2,0.1,1.7s-0.4,1.1-0.9,1.5s-1,0.7-1.6,0.8s-1.2,0-1.7-0.2c-0.5-0.3-1-0.6-1.3-1.2
	c-0.3-0.5-0.5-1.1-0.4-1.7c0-0.6,0.2-1.2,0.6-1.6s0.8-0.8,1.4-1.1c0.4-0.1,0.8-0.2,1.2-0.2c0.4,0,0.8,0.1,1.1,0.3s0.7,0.4,0.9,0.7
	C229.3,237.6,229.5,237.9,229.7,238.3L229.7,238.3z"/>
<path class="st8" d="M142,235.9L142,235.9c-1.6-1.6-3.3-3.3-4.8-5.1c-1.5-1.7-2.9-3.5-4.3-5.3c-1.3-1.8-2.5-3.6-3.6-5.5
	c-0.8-1.4-1.4-2.8-1.9-4.3c0.6-2,1.2-4,2-5.9c0.9-2.3,1.9-4.6,2.9-6.8c1.1-2.2,2.2-4.4,3.4-6.6c0.6-1.1,1.2-2.1,1.9-3.2l1-1.5
	c0.3-0.5,0.7-1,0.9-1.4l0.1-0.2c0.7-1.1,1-2.4,0.7-3.7s-1-2.4-2-3.1s-2.4-1.1-3.6-0.9s-2.4,0.9-3.2,1.9c-0.5,0.7-0.9,1.2-1.3,1.8
	s-0.8,1.2-1.1,1.8c-0.7,1.2-1.4,2.4-2.1,3.6c-1.3,2.4-2.6,4.9-3.7,7.4c-0.6,1.3-1,2.6-1.6,3.8s-0.9,2.6-1.3,3.9
	c-0.8,2.6-1.6,5.4-2.1,8.1v0.2c-0.2,0.7-0.1,1.5,0.2,2.2c1,2.6,2.3,5,3.8,7.2c1.5,2.1,3.1,4.1,4.9,6c1.8,1.8,3.6,3.5,5.6,5.1
	c2,1.6,4,3,6.2,4.3c0.5,0.3,1.1,0.4,1.7,0.3c0.6-0.1,1.1-0.4,1.5-0.9c0.4-0.5,0.6-1.1,0.5-1.7C142.7,236.9,142.5,236.3,142,235.9
	L142,235.9z"/>
<path class="st8" d="M153.6,240.8l-0.1-0.3c-0.4-0.9-1-1.6-1.8-2.2c-0.8-0.6-1.6-1-2.6-1.2l-7.6-1.5l-3.7,1.9
	c0.4,4.2,6.3,6.6,6.3,6.6l1.7,1.9c0.6,0.6,1.4,1.1,2.2,1.2c0.9,0.1,1.7-0.1,2.4-0.6l2-1.4c0.7-0.5,1.1-1.2,1.4-2
	C154.1,242.4,154,241.6,153.6,240.8L153.6,240.8z"/>
<path class="st9" d="M135.2,178.6c-4.2,1.9-8.7,8.6-8.7,8.6l9,16.9c0,0,10.2-11.8,9.4-17.7C144.2,181.4,140.6,176.2,135.2,178.6z"/>
<path class="st13" d="M423.3,399.4c-8.8,0-17.5-1.8-21.7-7.3c-19.9-26-19.7-78.3-19.5-128.9c0.1-27.3,2.3-53-0.8-73
	c-1.8-11.8-8-19.9-14.3-24.1c-9.3-6.2-22.1-2.9-27.6-1.4c-0.7,0.2-1.4,0.2-2.1,0.1c-0.7-0.1-1.4-0.3-2-0.7s-1.1-0.8-1.6-1.4
	c-0.4-0.6-0.7-1.2-0.9-1.9c-0.2-0.7-0.2-1.4-0.1-2.1c0.1-0.7,0.3-1.4,0.7-2s0.9-1.1,1.4-1.6s1.2-0.7,1.9-0.9
	c6.8-1.8,22.9-5.9,36.1,2.9c9,5.9,16.7,16.5,18.9,31.4c3.1,20.8,1,46.9,0.9,74.6c-0.2,48.8-0.3,99.3,17.3,122.4
	c1.4,1.9,7,3.5,16.3,3c0.8,0,1.6-0.1,2.4-0.2c-0.4-0.7-0.5-1.5-0.5-2.3c0-1.4,0.6-2.8,1.6-3.8s2.4-1.6,3.8-1.6
	c11.6,0,17.8,1,18.9,6.3c0.3,1.5,0.5,5.4-5.1,8C443.1,397.2,433.1,399.4,423.3,399.4z"/>
<path class="st19" d="M306.9,404l-10.9-4.3l5.7-18.8l10.9,4.3L306.9,404z"/>
<path class="st7" d="M295.8,398.6l12.2,4.8c0.1,0.1,0.3,0.2,0.4,0.3s0.1,0.3,0.1,0.5l-1.2,7.6c0,0.2-0.1,0.4-0.2,0.5
	c-0.1,0.1-0.3,0.3-0.4,0.4s-0.4,0.1-0.5,0.2c-0.2,0-0.4,0-0.5-0.1c-3.1-1.3-7.9-3.4-11.8-4.9c-2.4-0.9-6.9-2.4-10.3-3.7
	s-2.5-4.7-1-4.5c6.6,1.1,9.1-0.1,11.7-1C294.8,398.4,295.3,398.4,295.8,398.6L295.8,398.6z"/>
<path class="st12" d="M312.6,385.2l-10.9-4.3l-3,9.7l10.9,4.3L312.6,385.2z"/>
<path class="st9" d="M326.2,239.6c0,0-9.8,48.5-13.6,72.5c-4.2,26.8-15.4,75.8-15.4,75.8l14.4,5.7c0,0,20.6-50.2,23.5-74.5
	c8.6-19.8,25.9-77.9,25.9-77.9L326.2,239.6z"/>
<path class="st20" d="M296.5,388l15.8,6.2l2.7-4.8l-17.7-7.3L296.5,388z"/>
<path class="st21" d="M292.6,398.8c-0.5-0.2-1-0.5-1.4-1c-0.1-0.2-0.1-0.4-0.1-0.6s0-0.4,0.1-0.6c0-0.1,0.1-0.2,0.2-0.3
	c0.1-0.1,0.2-0.1,0.3-0.1c1-0.1,3,2.5,3.2,2.8c0,0,0,0.1,0,0.1s0,0.1,0,0.1s0,0.1-0.1,0.1c0,0-0.1,0-0.1,0
	C294.1,399.2,293.4,399.1,292.6,398.8L292.6,398.8z M292.1,396.7c-0.1,0-0.2-0.1-0.3,0c-0.1,0-0.1,0-0.2,0.2
	c-0.1,0.1-0.1,0.3-0.1,0.4s0,0.3,0.1,0.4c0.3,0.5,1.3,1,2.7,1.2C293.8,398,293,397.3,292.1,396.7L292.1,396.7z"/>
<path class="st21" d="M294.8,399.3C294.8,399.3,294.7,399.3,294.8,399.3c-0.7-0.8-1.6-3.2-1.1-4c0.1-0.1,0.2-0.2,0.4-0.3
	c0.1,0,0.3,0,0.4,0c0.1,0,0.3,0.1,0.4,0.2c0.1,0.1,0.2,0.2,0.3,0.4c0.6,1.1-0.1,3.5-0.1,3.5c0,0,0,0.1-0.1,0.1s-0.1,0-0.1,0
	C294.9,399.3,294.9,399.3,294.8,399.3C294.8,399.3,294.8,399.3,294.8,399.3L294.8,399.3z M294.4,395.5L294.4,395.5
	c-0.3-0.1-0.4,0-0.4,0.1c-0.3,0.5,0.2,2.2,0.8,3.1c0.3-0.9,0.3-1.9,0-2.8C294.7,395.7,294.6,395.6,294.4,395.5L294.4,395.5z"/>
<path class="st12" d="M347.3,269c-5.4,6.7-7.6,23.9-7.6,38.2c3.7-10.1,7.9-23,11.6-34.6L347.3,269z"/>
<path class="st19" d="M372.2,405.8h-11.7l-1.5-19.6h11.7L372.2,405.8z"/>
<path class="st7" d="M359.9,404.9H373c0.2,0,0.3,0,0.5,0.2c0.1,0.1,0.2,0.3,0.3,0.4l1.7,7.5c0,0.2,0,0.4,0,0.6
	c0,0.2-0.1,0.4-0.3,0.5s-0.3,0.3-0.4,0.3s-0.4,0.1-0.5,0.1c-3.3-0.1-8.5-0.3-12.7-0.3c-2.6,0-7.4,0.3-10.9,0.3c-3.5,0-4-3.5-2.6-3.8
	c6.5-1.4,8.5-3.4,10.5-5.3C358.9,405,359.4,404.9,359.9,404.9L359.9,404.9z"/>
<path class="st12" d="M370.6,386.2h-11.7l0.8,10.1h11.7L370.6,386.2z"/>
<path class="st9" d="M340.3,240.2c0,0,6.5,54.1,7.8,73.6c1.9,27.1,9.2,80.6,9.2,80.6h15.5c0,0,1.7-54.6-1.1-79
	c3.9-21.2,2.6-73.6,2.6-73.6L340.3,240.2z"/>
<path class="st20" d="M356.7,394.7h17l0.8-5.5l-19.2-0.4L356.7,394.7z"/>
<path class="st21" d="M357,406.2c-0.6,0-1.1-0.1-1.6-0.4c-0.1-0.1-0.3-0.3-0.3-0.5c-0.1-0.2-0.1-0.4-0.1-0.6c0-0.1,0-0.2,0.1-0.3
	c0.1-0.1,0.1-0.2,0.3-0.2c0.9-0.5,3.7,1.2,4,1.4c0,0,0.1,0,0.1,0.1c0,0,0,0.1,0,0.1c0,0,0,0.1-0.1,0.1s-0.1,0-0.1,0.1
	C358.5,406.1,357.8,406.2,357,406.2z M355.7,404.4c-0.1,0-0.2,0-0.3,0c0,0-0.1,0.1-0.1,0.2c0,0.1,0,0.3,0,0.4c0,0.1,0.1,0.2,0.2,0.3
	c0.5,0.4,1.6,0.4,3,0.1C357.8,405,356.8,404.6,355.7,404.4L355.7,404.4L355.7,404.4z"/>
<path class="st21" d="M359.2,405.9h-0.1c-0.9-0.5-2.6-2.3-2.4-3.3c0-0.1,0.1-0.3,0.2-0.4c0.1-0.1,0.3-0.1,0.4-0.1c0.1,0,0.3,0,0.5,0
	c0.1,0,0.3,0.1,0.4,0.2c1,0.8,1.2,3.3,1.2,3.4c0,0,0,0.1,0,0.1c0,0,0,0.1-0.1,0.1C359.3,405.9,359.2,405.9,359.2,405.9L359.2,405.9z
	 M357.5,402.5L357.5,402.5c-0.4,0-0.4,0.2-0.4,0.2c-0.1,0.5,1,2,1.8,2.6c-0.1-1-0.4-1.9-1-2.7C357.8,402.5,357.7,402.5,357.5,402.5
	L357.5,402.5z"/>
<path class="st19" d="M345.6,165.6l-9.3-0.1c-3.1,0-6.3-0.1-9.4-0.1c-0.9,0-1.9-0.1-2.8-0.1c0.1,0,0.1-0.1,0.1-0.2
	c0.7-0.7,1.3-1.4,2-2.1c0.3-0.4,0.7-0.7,1-1.1c0.3-0.3,0.7-0.7,0.9-1l0.9-1.1c0.7-0.9,1-1.9,1.1-3c0-1.1-0.3-2.2-0.9-3.1
	c-0.6-0.9-1.5-1.6-2.5-2c-1-0.4-2.1-0.4-3.2-0.1l-1.9,0.5c-0.6,0.2-1.1,0.4-1.7,0.6c-1.1,0.4-2.2,0.8-3.3,1.3
	c-2.2,1-4.3,2.1-6.4,3.4c-2.1,1.3-4.1,2.9-6,4.5c-2,1.8-3.7,3.8-5.3,5.9c-0.4,0.5-0.7,1.1-1,1.7c-0.9,2.1-1,4.5-0.1,6.7
	c0.9,2.2,2.5,3.9,4.6,4.8l0.9,0.4c2.1,0.9,4.2,1.6,6.4,2.1c1.9,0.5,3.7,0.8,5.5,1.1s3.5,0.5,5.2,0.8s3.4,0.4,5.1,0.5
	c3.4,0.3,6.8,0.4,10.1,0.6s6.6,0.1,10.1-0.1c2.7-0.1,5.3-1.3,7.1-3.3c1.9-2,2.9-4.6,2.8-7.3s-1.1-5.3-3.1-7.2
	C351,166.8,348.4,165.7,345.6,165.6L345.6,165.6z"/>
<path class="st7" d="M351.1,183.9c-8.1,9.2-27.5,5.8-27.5,5.8l1.1-22.9c6.7-1.5,13.5-2.3,20.3-2.4
	C356.3,164.4,357.5,176.5,351.1,183.9z"/>
<path class="st7" d="M329.5,176.8c-0.5,3.7-1,8.7-1.3,15.4c-4.2,21.3-5.8,36.4-2.1,47.4c2.9,3.6,41.3,2.9,48.1,2.2
	c4-9.9,4.4-38.3,4.9-62.2c0.1-3.3-1.1-6.5-3.2-9c-2.1-2.5-5-4.2-8.3-4.8c-8.6-1.5-17.4-1.8-26.1-0.9c-3,0.4-5.9,1.7-8.1,3.9
	C331.3,170.9,329.9,173.8,329.5,176.8L329.5,176.8z"/>
<path class="st12" d="M366.7,191.4c0.1,7.3,5.4,18.9,11.4,24.8c0.4-6.1,0.6-12.8,0.8-19.6L366.7,191.4z"/>
<path class="st19" d="M400.1,205.5l-0.3-0.8c-1.4-3.3-3-6.6-4.9-9.7c-1.8-3-3.7-5.8-5.7-8.6s-4.1-5.3-6.3-7.9
	c-1.1-1.3-2.2-2.5-3.3-3.7l-1.7-1.8l-1.8-1.9c-1.9-1.9-4.5-3-7.2-3c-2.7,0-5.3,1-7.3,2.9c-2,1.9-3.1,4.4-3.2,7.1
	c-0.1,2.7,0.9,5.4,2.6,7.4l0.3,0.3l5.9,6.5c2,2.2,3.9,4.5,5.8,6.7c0.9,1.1,1.9,2.3,2.7,3.4c0.9,1.1,1.8,2.3,2.6,3.4
	c1.2,1.7,2.4,3.4,3.5,5.1c-0.2,0.9-0.4,1.7-0.6,2.5c-0.7,2.4-1.6,4.8-2.5,7.1c-1,2.5-2.1,5-3.2,7.5s-2.3,5.1-3.3,7.6l-0.1,0.2
	c-0.5,1.1-0.5,2.3-0.2,3.5s1,2.1,2,2.8s2.2,1,3.4,0.9c1.2-0.1,2.3-0.6,3.2-1.4c2.2-2,4.3-4.2,6.3-6.5c2-2.3,3.9-4.6,5.6-7.1
	c0.9-1.3,1.7-2.6,2.6-3.9c0.9-1.4,1.7-2.8,2.4-4.3c0.8-1.6,1.5-3.2,2.1-4.9c0.8-2.2,1.2-4.4,1.3-6.7
	C400.7,207.6,400.5,206.5,400.1,205.5L400.1,205.5z"/>
<path class="st7" d="M368.4,165.9c13.5,2.3,22.3,20.6,22.3,20.6L374.5,204c0,0-9.4-9.5-15-18.4C353.4,176,358.8,164.3,368.4,165.9z"
	/>
<path class="st7" d="M343.8,137.1c-2.3-3.8-3-9,1.1-14.3c-0.8,0.1-1.6,0-2.4-0.4c-0.7-0.3-1.3-0.9-1.8-1.6
	c4.5-3.7,10.2-5.7,16.1-5.6c12.1,0,13,4.7,12.6,7.9c8.3,0.5,14.3,22.1-6.7,25.9C350.8,136.3,343.8,137.1,343.8,137.1z"/>
<path class="st7" d="M368.7,123.5c0,0,3.4-3.4-0.8-7.6c0.9,0.3,1.8,0.8,2.5,1.4s1.2,1.5,1.5,2.5
	C372.4,122.2,370.8,124.2,368.7,123.5z"/>
<path class="st19" d="M364.1,146.3c-0.3,6.6-0.9,14.2,0.2,19.5c-1.7,2.7-6.1,5.8-14,6.5c-2.8-1.6-6.5-5.5-5.2-7.5
	c3.4-2.1,4.8-8.7,3.8-13.5L364.1,146.3z"/>
<path class="st12" d="M360.3,147.6l-11.4,3.7c0.4,2.1,0.4,4.2,0,6.3c3.4-0.1,8.1-2.7,9.9-5.1c0.6-0.7,1-1.5,1.3-2.3
	C360.3,149.4,360.4,148.5,360.3,147.6z"/>
<path class="st19" d="M367.4,135.8c-2.1,8.1-2.9,13-7.9,16.4c-7.5,5.1-16.9-0.6-17.3-9.2c-0.3-7.7,3.2-19.7,11.9-21.4
	c1.9-0.4,3.9-0.3,5.8,0.3c1.9,0.6,3.5,1.7,4.9,3.1c1.3,1.4,2.3,3.2,2.8,5.1C368,132,367.9,133.9,367.4,135.8L367.4,135.8z"/>
<path class="st7" d="M365.7,124.2c-3.6,2.5-8,13.3,1,17.6C374.8,134.7,372.7,124.2,365.7,124.2z"/>
<path class="st7" d="M367.8,125.5c1.5-7.1-16.3-10.7-22-2.5C343.9,128,366.7,132.4,367.8,125.5z"/>
<path class="st15" d="M354.5,144.5c-1.9-0.8-3.9-1.3-5.9-1.5c0,0-0.1,0-0.1,0c0,0,0,0-0.1,0.1c0,0,0,0,0,0.1c0,0,0,0.1,0,0.1
	c0,0.1,0,0.1,0.1,0.2c0,0,0.1,0.1,0.2,0.1c2,0.1,3.9,0.6,5.6,1.4c0.1,0,0.1,0,0.2,0s0.1-0.1,0.1-0.1c0,0,0-0.1,0-0.1
	c0,0,0-0.1,0-0.1S354.6,144.5,354.5,144.5C354.5,144.5,354.5,144.5,354.5,144.5L354.5,144.5z"/>
<path class="st19" d="M369.4,144.7c-1.5,1.5-3.5,2.4-5.6,2.5c-2.8,0.1-3.5-2.6-2.2-4.9c1.2-2,4.1-4.6,6.7-3.5
	C370.9,139.8,371.1,142.8,369.4,144.7z"/>
<path class="st15" d="M354.5,135.7c-0.1,0.7-0.6,1.1-1,1.1s-0.7-0.7-0.5-1.4s0.6-1.1,1-1C354.3,134.5,354.6,135,354.5,135.7z"/>
<path class="st15" d="M346.9,134.2c-0.1,0.7-0.6,1.1-1,1.1s-0.7-0.7-0.6-1.4s0.6-1.1,1-1.1S347,133.6,346.9,134.2z"/>
<path class="st22" d="M349.3,135c-1.2,1.9-2.6,3.6-4.3,5.1c1,1.3,3.2,1.1,3.2,1.1L349.3,135z"/>
<path class="st15" d="M353.4,131.8c0.1,0,0.1,0,0.2,0c0.1,0,0.1,0.1,0.2,0.1c0.3,0.4,0.7,0.7,1.2,0.9s1,0.3,1.5,0.3
	c0.1,0,0.2,0,0.3,0.1c0.1,0.1,0.1,0.2,0.2,0.3c0,0.1,0,0.1,0,0.2c0,0.1,0,0.1-0.1,0.1s-0.1,0.1-0.1,0.1c0,0-0.1,0-0.1,0.1
	c-0.6,0.1-1.3-0.1-1.9-0.3c-0.6-0.2-1.1-0.6-1.5-1.1c0,0-0.1-0.1-0.1-0.1s0-0.1,0-0.1s0-0.1,0-0.1c0-0.1,0-0.1,0.1-0.1
	C353.3,131.9,353.3,131.8,353.4,131.8L353.4,131.8z"/>
<path class="st15" d="M344.6,129.6c-0.1,0-0.2-0.1-0.2-0.1c0,0-0.1-0.1-0.1-0.1s0-0.1,0-0.2c0-0.1,0-0.1,0-0.1
	c0-0.1,0.1-0.1,0.1-0.1c0.5-0.4,1.1-0.7,1.7-0.8c0.6-0.1,1.3-0.1,1.9,0.1c0.1,0,0.2,0.1,0.2,0.2c0,0.1,0.1,0.2,0,0.3
	c0,0.1-0.1,0.2-0.2,0.2c-0.1,0.1-0.2,0.1-0.3,0l0,0c-0.5-0.1-1-0.1-1.5,0s-1,0.3-1.3,0.7c0,0-0.1,0.1-0.2,0.1
	C344.7,129.6,344.6,129.6,344.6,129.6L344.6,129.6z"/>
<path class="st19" d="M376.9,235.6l-8.6-0.1l4.4,9.9c0,0,7.3-1.6,6.9-5.6L376.9,235.6z"/>
<path class="st19" d="M363.9,242.3l1.4,2.8c0.4,0.7,1,1.3,1.8,1.6c0.8,0.3,1.6,0.3,2.4,0l3.2-1.3l-4.4-9.9l-3.4,2.6
	c-0.6,0.5-1.1,1.1-1.2,1.9C363.4,240.8,363.5,241.6,363.9,242.3z"/>
<path class="st13" d="M311.5,228.3c-1,0-2-0.3-2.9-0.9c-0.9-0.6-1.5-1.4-1.9-2.4s-0.5-2-0.3-3c0.2-1,0.7-2,1.4-2.7
	c3.8-3.9,7.3-7,10.3-9.7c7.3-6.5,9.9-9,9.6-13.9c-0.4-3-1-5.9-1.9-8.8c-2.2-8.1-4.7-17.2-0.4-24.5c2.3-3.9,6.1-6.6,11.5-8
	c1.4-0.3,2.8-0.1,4,0.6c1.2,0.7,2.1,1.9,2.4,3.2c0.4,1.4,0.1,2.8-0.5,4c-0.7,1.2-1.8,2.1-3.2,2.5c-3.8,1-4.7,2.5-5,3.1
	c-2,3.4-0.1,10.6,1.5,16.3c1.1,3.6,1.9,7.3,2.3,11.1c0.5,10.3-5.5,15.6-13.2,22.4c-2.9,2.6-6.2,5.5-9.7,9.1
	c-0.5,0.5-1.1,0.9-1.7,1.2S312.2,228.3,311.5,228.3L311.5,228.3z"/>
<path class="st19" d="M323.1,151.9l8.3-2.1l-1.9,10.6c0,0-7.5,0.2-8-3.7L323.1,151.9z"/>
<path class="st19" d="M337.3,155.4l-0.6,2.8c-0.2,0.9-0.7,1.6-1.4,2.1c-0.7,0.5-1.6,0.7-2.5,0.6l-3.3-0.4l1.9-10.6l3.8,1.6
	c0.8,0.3,1.4,0.9,1.7,1.6C337.4,153.8,337.5,154.6,337.3,155.4z"/>
<path class="st7" d="M308.5,210.8l-0.2-0.2c-1-1-2.6-1-3.7,0l-29.5,29.5c-1,1-1,2.6,0,3.7l0.2,0.2c1,1,2.6,1,3.7,0l29.5-29.5
	C309.5,213.4,309.5,211.8,308.5,210.8z"/>
<path class="st7" d="M323.9,226.1l-0.2-0.2c-1-1-2.6-1-3.7,0l-29.5,29.5c-1,1-1,2.6,0,3.7l0.2,0.2c1,1,2.6,1,3.7,0l29.5-29.5
	C324.9,228.8,324.9,227.2,323.9,226.1z"/>
<path class="st13" d="M284.4,221.8l20.8-20.8c0.7-0.7,1.5-1.2,2.3-1.6s1.8-0.6,2.7-0.6s1.9,0.2,2.7,0.6s1.7,0.9,2.3,1.6l18.2,18.2
	c0.7,0.7,1.2,1.5,1.5,2.3s0.5,1.8,0.5,2.7s-0.2,1.9-0.5,2.7c-0.4,0.9-0.9,1.7-1.5,2.3l-20.8,20.8L284.4,221.8z"/>
<path class="st17" d="M284.4,221.8l20.8-20.8c0.7-0.7,1.5-1.2,2.3-1.6s1.8-0.6,2.7-0.6s1.9,0.2,2.7,0.6s1.7,0.9,2.3,1.6l18.2,18.2
	c0.7,0.7,1.2,1.5,1.5,2.3s0.5,1.8,0.5,2.7s-0.2,1.9-0.5,2.7c-0.4,0.9-0.9,1.7-1.5,2.3l-20.8,20.8L284.4,221.8z"/>
<path class="st18" d="M291.6,214.6l-7.2,7.2l28.3,28.3l7.2-7.2c-0.3-0.8-0.8-1.6-1.4-2.2L293.8,216
	C293.2,215.4,292.4,214.9,291.6,214.6L291.6,214.6z"/>
<path class="st13" d="M283.2,218.1l-0.5,0.5c-2.2,2.2-2.2,5.8,0,7.9l25.2,25.2c2.2,2.2,5.8,2.2,8,0l0.5-0.5c2.2-2.2,2.2-5.8,0-7.9
	l-25.2-25.2C288.9,215.9,285.4,215.9,283.2,218.1z"/>
<path class="st1" d="M361.5,38h-223c-4.6,0-8.4,3.8-8.4,8.4v40.7c0,4.7,3.8,8.4,8.4,8.4h223c4.6,0,8.4-3.8,8.4-8.4V46.4
	C369.9,41.7,366.2,38,361.5,38z"/>
<path class="st7" d="M361.5,96.2h-223c-2.4,0-4.8-1-6.5-2.7c-1.7-1.7-2.7-4.1-2.7-6.5V46.4c0-2.4,1-4.8,2.7-6.5
	c1.7-1.7,4.1-2.7,6.5-2.7h223c2.4,0,4.8,1,6.5,2.7c1.7,1.7,2.7,4,2.7,6.5v40.7c0,2.4-1,4.8-2.7,6.5C366.3,95.3,364,96.2,361.5,96.2z
	 M138.5,38.7c-2,0-4,0.8-5.4,2.3c-1.4,1.4-2.3,3.4-2.3,5.4v40.7c0,2,0.8,4,2.3,5.4s3.4,2.3,5.4,2.3h223c2,0,4-0.8,5.4-2.3
	s2.3-3.4,2.3-5.4V46.4c0-2-0.8-4-2.3-5.4s-3.4-2.3-5.4-2.3H138.5z"/>
<g class="st23">
	<path class="st24" d="M149.8,76.7V55.1h8.2c1.1,0,2.2,0,3.3,0.2c0.9,0.1,1.9,0.5,2.7,1c0.8,0.5,1.4,1.3,1.7,2.1
		c0.6,1.2,0.8,2.6,0.6,4c-0.2,1.4-0.8,2.6-1.7,3.6c-1.2,1.3-3.3,1.9-6.3,1.9h-5.6v8.8L149.8,76.7z M152.6,65.4h5.6
		c1.4,0.1,2.8-0.2,3.9-1c0.4-0.4,0.7-0.8,0.9-1.3s0.3-1,0.3-1.6c0-0.8-0.2-1.7-0.7-2.3c-0.4-0.6-1.1-1.1-1.8-1.3
		c-0.9-0.2-1.8-0.2-2.7-0.2h-5.5L152.6,65.4L152.6,65.4z"/>
	<path class="st24" d="M179.8,74.8c-0.8,0.7-1.8,1.3-2.8,1.8c-0.9,0.3-1.9,0.5-2.9,0.5c-1.4,0.1-2.9-0.3-4-1.3
		c-0.4-0.4-0.8-0.9-1-1.5c-0.2-0.6-0.4-1.2-0.3-1.8c0-0.7,0.2-1.5,0.5-2.1c0.4-0.6,0.8-1.1,1.4-1.5c0.6-0.4,1.2-0.7,1.9-0.9
		c0.8-0.2,1.6-0.3,2.4-0.4c1.6-0.2,3.2-0.4,4.7-0.9c0-0.4,0-0.6,0-0.7c0-0.4,0-0.8-0.1-1.2c-0.1-0.4-0.3-0.8-0.6-1.1
		c-0.9-0.7-1.9-1-3-0.9c-1-0.1-1.9,0.2-2.8,0.7c-0.7,0.6-1.1,1.4-1.3,2.3l-2.6-0.4c0.2-1,0.6-1.9,1.2-2.7c0.6-0.7,1.4-1.3,2.4-1.6
		c1.1-0.4,2.4-0.6,3.6-0.5c1.1,0,2.2,0.1,3.3,0.5c0.7,0.2,1.3,0.6,1.8,1.1s0.8,1.2,0.9,1.9c0.1,0.8,0.1,1.6,0.1,2.4v3.5
		c0,1.6,0,3.1,0.2,4.7c0.1,0.7,0.4,1.3,0.7,1.9h-2.8C180.1,76.2,179.9,75.5,179.8,74.8z M179.6,68.8c-1.4,0.5-2.9,0.8-4.3,1
		c-0.8,0.1-1.6,0.3-2.3,0.5c-0.4,0.2-0.8,0.5-1.1,0.9c-0.3,0.5-0.4,1-0.3,1.6s0.4,1.1,0.8,1.4c0.7,0.5,1.5,0.8,2.4,0.7
		c0.9,0,1.9-0.2,2.7-0.7c0.8-0.4,1.4-1.1,1.8-1.8c0.3-0.8,0.5-1.8,0.4-2.7L179.6,68.8L179.6,68.8z"/>
	<path class="st24" d="M185.9,78l2.6,0.4c0,0.3,0.1,0.7,0.3,1c0.1,0.3,0.4,0.6,0.6,0.8c0.8,0.5,1.7,0.8,2.7,0.7c1,0.1,2-0.2,2.9-0.7
		c0.7-0.5,1.2-1.2,1.4-2.1c0.2-1.1,0.2-2.3,0.2-3.4c-0.5,0.6-1.2,1.2-1.9,1.5s-1.6,0.5-2.4,0.5c-1,0.1-1.9-0.1-2.8-0.6
		s-1.6-1-2.2-1.8c-1.2-1.6-1.8-3.6-1.8-5.6c0-1.4,0.3-2.8,0.8-4.1c0.5-1.2,1.3-2.2,2.4-2.9c1.1-0.7,2.4-1,3.6-1
		c0.9,0,1.8,0.2,2.6,0.6c0.8,0.4,1.5,1,2,1.7V61h2.4v13.6c0.1,1.8-0.1,3.5-0.7,5.2c-0.5,1-1.3,1.9-2.4,2.4c-1.2,0.6-2.6,0.9-4,0.9
		c-1.6,0.1-3.2-0.4-4.5-1.3c-0.6-0.4-1-1-1.3-1.7C186,79.4,185.9,78.7,185.9,78L185.9,78z M188.1,68.6c-0.1,1.6,0.3,3.2,1.2,4.5
		c0.4,0.4,0.8,0.8,1.4,1.1c0.5,0.3,1.1,0.4,1.7,0.4c0.6,0,1.2-0.1,1.7-0.4c0.5-0.2,1-0.6,1.4-1.1c0.9-1.3,1.4-2.8,1.2-4.4
		c0.1-1.6-0.3-3.1-1.3-4.3c-0.4-0.5-0.8-0.8-1.4-1.1s-1.1-0.4-1.7-0.4c-0.6,0-1.1,0.1-1.7,0.4s-1,0.6-1.3,1.1
		C188.5,65.5,188,67.1,188.1,68.6L188.1,68.6L188.1,68.6z"/>
	<path class="st24" d="M214,71.7l2.8,0.3c-0.4,1.5-1.2,2.8-2.4,3.7c-1.3,0.9-2.9,1.4-4.5,1.3c-1,0.1-2-0.1-3-0.4
		c-0.9-0.4-1.8-0.9-2.5-1.6c-1.4-1.6-2.1-3.8-2-5.9c-0.1-2.2,0.6-4.4,2-6.1c0.7-0.7,1.5-1.3,2.4-1.7c0.9-0.4,1.9-0.5,2.9-0.5
		c1,0,1.9,0.1,2.8,0.5c0.9,0.4,1.7,0.9,2.3,1.6c1.4,1.7,2.1,3.8,2,6c0,0.2,0,0.4,0,0.7h-11.7c0,1.5,0.5,2.9,1.5,4
		c0.4,0.4,0.9,0.8,1.5,1c0.6,0.2,1.2,0.3,1.8,0.3c0.9,0,1.8-0.3,2.5-0.8C213.1,73.5,213.7,72.7,214,71.7L214,71.7z M205.3,67.4h8.7
		c0-1.1-0.4-2.1-1-3c-0.4-0.5-0.9-0.9-1.5-1.2s-1.2-0.4-1.8-0.4c-0.6,0-1.1,0.1-1.7,0.3s-1,0.5-1.4,0.9
		C205.8,64.9,205.3,66.1,205.3,67.4C205.2,67.4,205.3,67.4,205.3,67.4z"/>
	<path class="st24" d="M228.4,76.7V61h2.4v2.2c0.5-0.8,1.3-1.5,2.2-2c0.9-0.5,1.9-0.7,2.8-0.6c0.9,0,1.8,0.2,2.6,0.5
		c0.7,0.3,1.3,0.7,1.8,1.3c0.4,0.6,0.7,1.3,0.8,2c0.1,0.9,0.2,1.7,0.1,2.6v9.6h-2.6v-9.5c0-0.8-0.1-1.6-0.3-2.4
		c-0.2-0.5-0.6-1-1.1-1.3c-0.6-0.3-1.2-0.5-1.9-0.5c-1.1,0-2.1,0.4-2.9,1.1c-0.8,0.7-1.2,2.1-1.2,4.1v8.6H228.4z"/>
	<path class="st24" d="M244.3,68.9c0-2.9,0.8-5,2.4-6.5c1.4-1.2,3.1-1.8,4.9-1.7c1,0,2,0.1,2.9,0.5c0.9,0.4,1.7,0.9,2.4,1.6
		c0.7,0.8,1.3,1.7,1.6,2.7c0.4,1,0.5,2.1,0.5,3.1c0.1,1.6-0.2,3.3-0.9,4.8c-0.6,1.1-1.5,2.1-2.6,2.7c-1.2,0.7-2.5,1-3.8,1
		c-1,0.1-2-0.1-2.9-0.5s-1.8-0.9-2.4-1.6c-0.7-0.8-1.3-1.8-1.6-2.9C244.3,71.1,244.2,70,244.3,68.9L244.3,68.9z M247,68.9
		c-0.1,1.6,0.3,3.2,1.3,4.5c0.4,0.5,0.9,0.9,1.5,1.1c0.6,0.3,1.2,0.4,1.8,0.4c0.6,0,1.3-0.1,1.8-0.4c0.6-0.3,1.1-0.7,1.5-1.1
		c1-1.3,1.4-2.9,1.3-4.6c0.1-1.6-0.4-3.2-1.3-4.4c-0.4-0.5-0.9-0.8-1.5-1.1c-0.6-0.3-1.2-0.4-1.8-0.4c-0.6,0-1.2,0.1-1.8,0.4
		c-0.6,0.3-1.1,0.6-1.5,1.1C247.4,65.7,246.9,67.3,247,68.9L247,68.9z"/>
	<path class="st24" d="M267.9,74.3l0.4,2.3c-0.7,0.2-1.3,0.2-2,0.2c-0.8,0-1.5-0.1-2.2-0.5c-0.5-0.3-0.9-0.7-1.1-1.2
		c-0.3-1-0.4-2.1-0.3-3.1v-9h-2V61h2v-3.8l2.6-1.6V61h2.7v2.1h-2.7v9.2c0,0.5,0,1,0.1,1.5c0.1,0.2,0.3,0.4,0.5,0.5
		c0.3,0.2,0.6,0.2,0.9,0.2C267.1,74.4,267.5,74.4,267.9,74.3z"/>
	<path class="st24" d="M279.5,76.7V63.1h-2.4V61h2.4v-1.6c0-0.8,0.1-1.6,0.3-2.4c0.3-0.7,0.7-1.3,1.4-1.7c0.8-0.5,1.8-0.7,2.7-0.6
		c0.8,0,1.7,0.1,2.5,0.3l-0.4,2.3c-0.5-0.1-1-0.2-1.6-0.2c-0.6-0.1-1.2,0.1-1.7,0.5c-0.4,0.6-0.6,1.3-0.5,1.9V61h3.1v2.1h-3.1v13.7
		H279.5z"/>
	<path class="st24" d="M286.3,68.9c0-2.9,0.8-5,2.4-6.5c1.4-1.2,3.1-1.8,4.9-1.7c1,0,2,0.1,2.9,0.5s1.7,0.9,2.4,1.6
		c0.7,0.8,1.3,1.7,1.6,2.7c0.4,1,0.5,2.1,0.5,3.1c0.1,1.6-0.2,3.3-0.9,4.8c-0.6,1.1-1.5,2.1-2.6,2.7c-1.1,0.7-2.5,1-3.8,1
		c-1,0-2-0.1-2.9-0.5c-0.9-0.4-1.8-0.9-2.5-1.6c-0.7-0.8-1.3-1.8-1.6-2.9C286.4,71.1,286.2,70,286.3,68.9L286.3,68.9z M289,68.9
		c-0.1,1.6,0.3,3.2,1.3,4.5c0.4,0.5,0.9,0.8,1.5,1.1c0.6,0.3,1.2,0.4,1.8,0.4c0.6,0,1.2-0.1,1.8-0.4s1.1-0.6,1.5-1.1
		c1-1.3,1.4-2.9,1.3-4.6c0.1-1.6-0.4-3.2-1.3-4.4c-0.4-0.5-0.9-0.8-1.5-1.1c-0.6-0.3-1.2-0.4-1.8-0.4c-0.6,0-1.2,0.1-1.8,0.4
		s-1.1,0.6-1.5,1.1C289.3,65.7,288.9,67.3,289,68.9C289,68.9,289,68.9,289,68.9z"/>
	<path class="st24" d="M314.4,76.7v-2.3c-0.5,0.8-1.3,1.5-2.1,2c-0.9,0.5-1.9,0.7-2.9,0.7c-0.9,0-1.8-0.2-2.6-0.5
		c-0.7-0.3-1.3-0.7-1.8-1.3c-0.4-0.6-0.7-1.3-0.8-2c-0.1-0.8-0.2-1.7-0.2-2.5V61h2.7v8.7c0,0.9,0,1.9,0.2,2.8
		c0.1,0.7,0.5,1.3,1.1,1.7c0.6,0.4,1.3,0.6,2,0.6c0.8,0,1.6-0.2,2.2-0.6c0.7-0.4,1.2-1,1.5-1.7c0.3-1,0.5-2,0.4-3.1V61h2.7v15.7
		H314.4z"/>
	<path class="st24" d="M320.9,76.7V61h2.4v2.2c0.5-0.8,1.3-1.5,2.2-2c0.9-0.5,1.9-0.7,2.8-0.6c0.9,0,1.8,0.2,2.6,0.5
		c0.7,0.3,1.3,0.7,1.8,1.3c0.4,0.6,0.7,1.3,0.8,2c0.1,0.9,0.2,1.7,0.1,2.6v9.6H331v-9.5c0-0.8-0.1-1.6-0.3-2.4
		c-0.2-0.5-0.6-1-1.1-1.3c-0.6-0.3-1.2-0.5-1.9-0.5c-1.1,0-2.1,0.4-2.9,1.1c-0.8,0.7-1.2,2.1-1.2,4.1v8.6H320.9z"/>
	<path class="st24" d="M347.9,76.7v-2c-0.5,0.8-1.1,1.4-1.9,1.8c-0.8,0.4-1.6,0.6-2.5,0.6c-1.2,0-2.4-0.3-3.4-1
		c-1.1-0.7-1.9-1.7-2.4-2.9c-0.6-1.3-0.9-2.8-0.9-4.3c0-1.5,0.2-2.9,0.8-4.3c0.5-1.2,1.3-2.2,2.4-2.9c1-0.7,2.3-1,3.5-1
		c0.9,0,1.7,0.2,2.5,0.6c0.7,0.4,1.3,0.9,1.8,1.5v-7.8h2.6v21.6L347.9,76.7L347.9,76.7z M339.5,68.9c-0.1,1.6,0.3,3.2,1.3,4.5
		c0.4,0.5,0.8,0.8,1.3,1.1c0.5,0.3,1.1,0.4,1.7,0.4c0.6,0,1.1-0.1,1.7-0.4c0.5-0.3,1-0.6,1.3-1.1c0.9-1.3,1.3-2.8,1.2-4.3
		c0.1-1.7-0.3-3.3-1.2-4.7c-0.4-0.5-0.8-0.8-1.4-1.1c-0.5-0.3-1.1-0.4-1.7-0.4c-0.6,0-1.1,0.1-1.7,0.4s-1,0.6-1.3,1.1
		C339.8,65.7,339.4,67.3,339.5,68.9L339.5,68.9z"/>
</g>
<path class="st7" d="M250,125c10.2,0,18.5-8.3,18.5-18.5s-8.3-18.5-18.5-18.5c-10.2,0-18.5,8.3-18.5,18.5
	C231.5,116.7,239.8,125,250,125z"/>
<path class="st1" d="M250,122.3c8.7,0,15.8-7.1,15.8-15.8c0-8.7-7.1-15.8-15.8-15.8s-15.8,7.1-15.8,15.8
	C234.2,115.2,241.3,122.3,250,122.3z"/>
<path class="st9" d="M260.7,103.1h-7.4l6.2-18.4l-20.1,25.2h7.4l-6.2,18.4L260.7,103.1z"/>
<path class="st7" d="M261.3,120l2.2-2.2L238.7,93l-2.2,2.2L261.3,120z"/>
</svg>
