<?xml version="1.0" standalone="no"?>
<!DOCTYPE svg PUBLIC "-//W3C//DTD SVG 20010904//EN"
 "http://www.w3.org/TR/2001/REC-SVG-20010904/DTD/svg10.dtd">
<svg version="1.0" xmlns="http://www.w3.org/2000/svg"
 width="300.000000pt" height="150.000000pt" viewBox="0 0 300.000000 150.000000"
 preserveAspectRatio="xMidYMid meet">

<g transform="translate(0.000000,150.000000) scale(0.100000,-0.100000)"
fill="#000000" stroke="none">
<path d="M205 1127 c-52 -30 -101 -96 -122 -165 -35 -119 -13 -344 41 -425 36
-54 60 -49 137 32 85 89 121 111 182 111 60 0 74 -7 165 -87 41 -35 81 -63 89
-61 9 2 25 15 36 31 31 40 30 177 -1 268 -74 216 -372 384 -527 296z m269
-157 c27 -26 31 -38 34 -100 2 -38 2 -70 -2 -70 -3 0 -21 7 -40 16 -34 17 -70
13 -128 -11 -16 -6 -18 1 -18 74 0 75 2 84 26 108 21 21 32 24 62 19 21 -3 48
-18 66 -36z"/>
<path d="M830 1013 c0 -5 37 -107 83 -228 l82 -220 50 0 49 0 21 54 c11 30 25
56 31 58 5 2 19 -23 31 -54 l20 -58 49 0 49 0 81 205 c112 282 108 252 33 248
l-62 -3 -46 -132 c-25 -73 -50 -131 -56 -130 -5 2 -16 25 -24 52 -15 46 -14
51 12 124 15 42 27 80 27 84 0 5 -28 7 -62 5 l-63 -3 -40 -132 c-22 -73 -44
-131 -49 -130 -6 2 -30 63 -54 135 l-44 132 -59 0 c-32 0 -59 -3 -59 -7z"/>
<path d="M1540 878 c-63 -32 -92 -85 -87 -159 4 -67 31 -111 87 -139 52 -26
112 -26 161 2 44 24 47 36 21 68 -17 22 -19 22 -50 6 -17 -9 -41 -16 -54 -16
-29 0 -68 26 -68 45 0 11 23 15 108 17 l107 3 -1 46 c0 57 -32 105 -88 130
-54 24 -82 24 -136 -3z m112 -75 c29 -26 21 -33 -42 -33 -64 0 -74 9 -38 34
29 21 57 20 80 -1z"/>
<path d="M1913 879 c-59 -29 -86 -77 -86 -150 0 -48 4 -64 28 -94 46 -61 134
-84 184 -49 22 16 23 15 19 -7 -2 -16 -16 -30 -41 -43 -37 -17 -40 -18 -84 -1
-48 19 -47 19 -73 -27 -22 -37 84 -79 162 -64 54 10 98 43 118 89 17 36 20 66
20 200 l0 157 -35 0 c-23 0 -38 -6 -41 -15 -5 -13 -11 -12 -39 5 -41 26 -79
25 -132 -1z m132 -94 c71 -70 -29 -179 -106 -116 -18 14 -24 29 -24 61 0 32 6
47 24 61 32 27 77 24 106 -6z"/>
<path d="M2314 881 c-58 -26 -89 -79 -89 -153 0 -61 17 -94 67 -131 36 -27
111 -34 142 -13 35 23 43 2 11 -30 -22 -22 -33 -25 -68 -21 -23 2 -51 8 -63
12 -16 5 -25 0 -39 -21 -17 -27 -17 -28 5 -46 54 -43 151 -46 211 -5 61 42 69
73 69 254 l0 163 -35 0 c-21 0 -37 -6 -43 -17 -9 -15 -12 -14 -37 5 -34 27
-77 28 -131 3z m136 -96 c69 -73 -34 -182 -107 -113 -16 14 -23 33 -23 57 0
73 81 108 130 56z"/>
<path d="M2710 878 c-63 -32 -90 -77 -90 -148 0 -63 22 -106 73 -144 40 -30
144 -30 183 0 81 60 101 168 47 243 -24 33 -98 71 -138 71 -17 0 -51 -10 -75
-22z m126 -89 c11 -13 19 -35 19 -59 0 -48 -27 -80 -68 -80 -67 0 -100 78 -56
134 26 33 77 36 105 5z"/>
<path d="M369 591 c-67 -67 -17 -191 77 -191 55 0 114 55 114 107 0 29 -37 81
-69 98 -47 24 -88 19 -122 -14z"/>
</g>
</svg>
