<?xml version="1.0" encoding="utf-8"?>
<!-- Generator: Adobe Illustrator 24.1.2, SVG Export Plug-In . SVG Version: 6.00 Build 0)  -->
<svg version="1.1" id="Layer_1" xmlns="http://www.w3.org/2000/svg" xmlns:xlink="http://www.w3.org/1999/xlink" x="0px" y="0px"
	 viewBox="0 0 154.9 46.1" style="enable-background:new 0 0 154.9 46.1;" xml:space="preserve">
<style type="text/css">
	.st0{fill:#FFFFFF;}
	.st1{fill:#111212;}
</style>
<path class="st0" d="M17.4,34.1V18.4h10.2v2.9h-6.4v3.4H26v2.9h-4.8v6.5H17.4z"/>
<path class="st1" d="M13.2,2.2c-13,7-8.1,35.9-2.1,37.4c4.1,1.1,7.9-11.3,16.5-11.2c7.9,0.1,11.7,10.5,15.5,9.1
	c3.5-1.3,4.5-11.5,1-19.5C39,6.2,23-3.1,13.2,2.2z"/>
<path class="st1" d="M25,32.4c4.1-1.6,9.8,2.6,9.4,7c-0.3,3.4-4.1,6.7-8,5.9c-2.8-0.6-4.8-3-5.2-5.8C20.8,36.5,22.5,33.4,25,32.4z"
	/>
<path class="st0" d="M22.6,22.1v-8.6c0-2.1,1.7-3.8,3.8-3.8h0.1c4,0,7.2,3.2,7.2,7.2v5.3c0,0.1-0.1,0.2-0.2,0.2H22.8
	C22.7,22.3,22.6,22.2,22.6,22.1z"/>
<path class="st1" d="M22.5,22.6c0,0,6.7-7.2,11.2,0H22.5z"/>
<g>
	<path class="st1" d="M59.7,33.9c-0.1-0.2-0.2-0.3-0.3-0.5c-0.1-0.2-0.2-0.4-0.2-0.5c-1.3-3.3-2.5-6.7-3.7-9.9
		c-1.2-3.3-2.5-6.6-3.7-9.9c0,0,0-0.1,0-0.1c0,0,0-0.1,0-0.1c0-0.3,0.2-0.4,0.5-0.4h4.7c0.4,0,0.6,0.2,0.8,0.6l4,12.1
		c0.1,0.4,0.7,0.4,0.9,0l3.7-12.1c0.1-0.4,0.4-0.6,0.8-0.6h4.7c0.2,0,0.4,0,0.5,0.1c0.1,0.1,0.1,0.2,0.1,0.3c0,0.1,0,0.1,0,0.2v0
		l-2.6,7.5l1.5,4.6c0.1,0.4,0.7,0.4,0.9,0l4.3-12.2c0.1-0.4,0.4-0.6,0.8-0.6h4.6c0.2,0,0.4,0,0.5,0.1c0.1,0.1,0.1,0.2,0.1,0.3
		c0,0.1,0,0.1,0,0.2v0c-0.7,1.7-1.3,3.5-2,5.2c-0.7,1.7-1.4,3.4-2.1,5.2c-0.7,1.7-1.4,3.4-2.1,5.2c-0.7,1.7-1.4,3.5-2,5.2
		c0,0.1-0.1,0.2-0.3,0.4c-0.1,0.1-0.3,0.2-0.5,0.2h0h-3.5c-0.2,0-0.4,0-0.5-0.1c-0.1-0.1-0.2-0.2-0.2-0.3l-1.9-5
		c-0.1-0.4-0.7-0.4-0.8,0c-0.2,0.5-0.4,1-0.6,1.5c-0.3,0.9-0.6,1.7-1,2.6c0,0.1-0.1,0.3-0.2,0.4c-0.1,0.2-0.1,0.3-0.2,0.4
		c-0.1,0.1-0.2,0.2-0.3,0.3c-0.1,0.1-0.2,0.1-0.4,0.1h0h-3.5C60,34.2,59.8,34.1,59.7,33.9z"/>
	<path class="st1" d="M95.1,32.3c-0.7,0.7-1.6,1.2-2.5,1.6c-0.9,0.4-1.9,0.6-2.9,0.6c-1.1,0-2.2-0.2-3.2-0.6c-1-0.4-1.9-1-2.7-1.7
		c-0.8-0.7-1.4-1.6-1.8-2.6c-0.4-1-0.7-2.1-0.7-3.2c0-0.7,0.1-1.4,0.3-2.1c0.2-0.7,0.4-1.3,0.8-1.9c0.3-0.6,0.7-1.1,1.2-1.6
		c0.5-0.5,1-0.9,1.6-1.3c0.6-0.4,1.2-0.6,1.9-0.8c0.7-0.2,1.4-0.3,2.2-0.3c0.7,0,1.4,0.1,2,0.3c0.6,0.2,1.3,0.4,1.8,0.8
		c0.6,0.3,1.1,0.7,1.6,1.2c0.5,0.5,0.9,1,1.2,1.5c0.3,0.6,0.6,1.1,0.8,1.8c0.2,0.6,0.3,1.3,0.3,1.9c0,0.4,0,0.8,0,1.1
		c0,0.3-0.1,0.5-0.2,0.7c-0.1,0.2-0.3,0.3-0.6,0.3c-0.3,0.1-0.7,0.1-1.2,0.1l-8.5,0c-0.3,0-0.5,0.3-0.4,0.5c0.1,0.3,0.2,0.6,0.4,0.8
		c0.3,0.4,0.5,0.6,0.9,0.9c0.3,0.2,0.7,0.4,1.1,0.5c0.4,0.1,0.7,0.1,1.1,0.1c0.3,0,0.6,0,0.9-0.1c0.3-0.1,0.6-0.1,0.9-0.2
		c0.3-0.1,0.6-0.2,0.8-0.4c0.2-0.1,0.4-0.3,0.6-0.4c0.1-0.1,0.2-0.2,0.3-0.2c0.1-0.1,0.2-0.1,0.3-0.1c0.1,0,0.2,0,0.3,0.1
		c0.1,0.1,0.2,0.2,0.4,0.3l1.3,1.5c0.1,0.1,0.1,0.2,0.2,0.3c0,0.1,0,0.2,0,0.3c0,0.2,0,0.3-0.1,0.4C95.3,32.1,95.2,32.2,95.1,32.3z
		 M89.1,21.9c-0.3,0-0.6,0.1-0.9,0.2c-0.3,0.1-0.6,0.3-0.9,0.5c-0.3,0.2-0.5,0.5-0.7,0.7c-0.1,0.1-0.1,0.1-0.2,0.2
		c-0.2,0.3,0,0.6,0.3,0.6l5,0c0.3,0,0.5-0.3,0.3-0.6c-0.1-0.1-0.1-0.2-0.2-0.3c-0.2-0.3-0.4-0.5-0.7-0.7c-0.3-0.2-0.6-0.4-0.9-0.5
		C89.9,22,89.5,21.9,89.1,21.9z"/>
	<path class="st1" d="M110.7,33.7c0.1-0.2,0.1-0.3,0.1-0.5c0-0.2,0-0.4,0-0.6c0-0.1,0-0.3,0-0.3s0.2-0.1,0.2-0.1c0,0,0-0.1,0.1-0.1
		v-0.2c-0.4,0.3-0.6,0.5-0.9,0.8c-0.2,0.2-0.5,0.5-0.8,0.7c-0.3,0.2-0.6,0.4-1,0.5c-0.4,0.1-0.8,0.2-1.3,0.2c-1.1,0-2.2-0.2-3.1-0.6
		c-1-0.4-1.8-0.9-2.5-1.6c-0.7-0.7-1.2-1.5-1.6-2.5c-0.4-1-0.6-2-0.6-3.1c0-1.1,0.2-2.2,0.6-3.2c0.4-1,0.9-1.9,1.6-2.6
		c0.7-0.7,1.5-1.3,2.5-1.7c1-0.4,2-0.6,3.1-0.6c0.5,0,1,0.1,1.4,0.2c0.4,0.1,0.8,0.3,1.2,0.5c0.4,0.2,0.7,0.4,1,0.7
		c0.1,0.1,0.2,0.2,0.4,0.4c0.2,0.2,0.6,0.1,0.7-0.1l0.1-0.4c0-0.1,0.1-0.3,0.1-0.4c0-0.1,0.1-0.2,0.2-0.3c0.1-0.1,0.2-0.1,0.3-0.2
		c0.1,0,0.4,0.1,0.4,0.1h1.7c0.1,0,0.2,0,0.4,0.1c0.1,0,0.2,0.1,0.3,0.2c0.1,0.1,0.2,0.2,0.2,0.3c0.1,0.1,0.1,0.2,0.1,0.4V32
		c0,1.3-0.2,2.4-0.7,3.5c-0.4,1-1,1.9-1.8,2.6c-0.8,0.7-1.6,1.2-2.7,1.6c-1,0.4-2.1,0.5-3.3,0.5c-0.5,0-1,0-1.5-0.1
		c-0.5-0.1-1.1-0.2-1.6-0.4c-0.5-0.2-1-0.4-1.5-0.6c-0.5-0.2-0.9-0.5-1.3-0.9c-0.1-0.1-0.2-0.2-0.3-0.3c-0.1-0.1-0.1-0.3-0.1-0.5
		c0-0.2,0.1-0.4,0.2-0.7l1.2-1.6c0.1-0.1,0.2-0.2,0.3-0.3c0.1-0.1,0.2-0.1,0.3-0.1c0.2,0,0.4,0.1,0.7,0.3c0.2,0.2,0.5,0.4,0.7,0.5
		c0.3,0.1,0.6,0.2,0.9,0.3c0.3,0.1,0.6,0.1,0.9,0.1c0.3,0,0.5,0,0.8,0c0.4,0,0.8,0,1.2-0.1c0.4-0.1,0.8-0.2,1.2-0.4
		c0.4-0.2,0.7-0.4,1-0.7C110.4,34.4,110.6,34.1,110.7,33.7z M103.7,26.2c0,0.6,0.1,1.1,0.3,1.5c0.2,0.5,0.4,0.9,0.7,1.2
		c0.3,0.3,0.7,0.6,1.1,0.8c0.4,0.2,0.9,0.3,1.5,0.3c0.5,0,1-0.1,1.5-0.3c0.5-0.2,0.9-0.4,1.2-0.8c0.3-0.3,0.6-0.7,0.8-1.2
		s0.3-0.9,0.4-1.5V26c0-0.5-0.1-1-0.4-1.4c-0.2-0.5-0.5-0.9-0.8-1.2c-0.3-0.3-0.8-0.6-1.2-0.8c-0.5-0.2-1-0.3-1.5-0.3
		c-0.5,0-1,0.1-1.5,0.3c-0.4,0.2-0.8,0.5-1.1,0.9c-0.3,0.4-0.6,0.8-0.7,1.3C103.7,25.2,103.7,25.7,103.7,26.2z"/>
	<path class="st1" d="M130,33.6c0.1-0.2,0.1-0.3,0.1-0.5c0-0.2-0.3-0.6-0.3-0.6v-0.2c0,0,0.3-0.1,0.3-0.1c0,0,0-0.1,0.1-0.1v-0.2
		c-0.3,0.3-0.5,0.5-0.8,0.8c-0.2,0.2-0.5,0.5-0.8,0.7c-0.3,0.2-0.6,0.4-1,0.5c-0.4,0.1-0.8,0.2-1.3,0.2c-1.1,0-2.2-0.2-3.1-0.6
		c-1-0.4-1.8-0.9-2.5-1.6c-0.7-0.7-1.2-1.5-1.6-2.5c-0.4-1-0.6-2-0.6-3.1c0-1.1,0.2-2.2,0.6-3.2c0.4-1,0.9-1.9,1.6-2.6
		c0.7-0.7,1.5-1.3,2.5-1.7c1-0.4,2-0.6,3.1-0.6c0.5,0,1,0.1,1.4,0.2c0.4,0.1,0.8,0.3,1.2,0.5c0.4,0.2,0.7,0.4,1,0.7
		c0.1,0.1,0.2,0.2,0.4,0.4c0.2,0.2,0.6,0.1,0.7-0.1l0.1-0.4c0-0.1,0.1-0.3,0.1-0.4c0-0.1,0.1-0.2,0.2-0.3c0.1-0.1,0.2-0.1,0.3-0.2
		c0.1,0,0.4,0.1,0.4,0.1h1.9c0,0,0.2-0.1,0.3-0.1c0.1,0,0.2,0.1,0.3,0.2c0.1,0.1,0.2,0.2,0.2,0.3c0.1,0.1,0.1,0.2,0.2,0.4v12.7
		c-0.2,1.3-0.4,2.4-0.8,3.5c-0.4,1-1,1.9-1.7,2.6c-0.7,0.7-1.6,1.2-2.6,1.6c-1,0.4-2.1,0.5-3.2,0.5c-0.4,0-0.9,0-1.4-0.1
		c-0.5-0.1-1-0.2-1.5-0.4s-1-0.4-1.5-0.6c-0.5-0.2-0.9-0.5-1.3-0.9c-0.1-0.1-0.2-0.2-0.3-0.3c-0.1-0.1-0.1-0.3-0.1-0.5
		c0-0.2,0.1-0.4,0.2-0.7l1.2-1.6c0.1-0.1,0.2-0.2,0.3-0.3c0.1-0.1,0.2-0.1,0.3-0.1c0.2,0,0.4,0.1,0.7,0.3c0.2,0.2,0.4,0.4,0.7,0.5
		c0.3,0.1,0.5,0.2,0.8,0.3c0.3,0.1,0.6,0.1,0.8,0.1c0.3,0,0.5,0,0.8,0c0.4,0,0.8,0,1.2-0.1c0.4-0.1,0.8-0.2,1.1-0.4
		c0.4-0.2,0.7-0.4,0.9-0.7C129.8,34.3,129.9,34,130,33.6z M123.1,26.2c0,0.6,0.1,1.1,0.3,1.5c0.2,0.5,0.4,0.9,0.7,1.2
		c0.3,0.3,0.7,0.6,1.1,0.8c0.4,0.2,0.9,0.3,1.5,0.3c0.5,0,1-0.1,1.5-0.3c0.5-0.2,0.9-0.4,1.2-0.8c0.3-0.3,0.6-0.7,0.8-1.2
		c0.2-0.4,0.3-0.9,0.4-1.5V26c0-0.5-0.1-1-0.4-1.4c-0.2-0.5-0.5-0.9-0.8-1.2c-0.3-0.3-0.8-0.6-1.2-0.8c-0.5-0.2-1-0.3-1.5-0.3
		c-0.5,0-1,0.1-1.5,0.3c-0.4,0.2-0.8,0.5-1.1,0.9c-0.3,0.4-0.6,0.8-0.7,1.3C123.2,25.2,123.1,25.7,123.1,26.2z"/>
	<path class="st1" d="M137.2,26.3c0-0.8,0.1-1.5,0.3-2.2c0.2-0.7,0.5-1.4,0.8-2c0.4-0.6,0.8-1.1,1.3-1.6c0.5-0.5,1-0.9,1.6-1.3
		c0.6-0.3,1.3-0.6,2-0.8c0.7-0.2,1.4-0.3,2.2-0.3c1.1,0,2.2,0.2,3.2,0.6c1,0.4,1.9,1,2.6,1.7c0.7,0.7,1.3,1.6,1.7,2.6
		c0.4,1,0.6,2.1,0.6,3.2c0,0.8-0.1,1.5-0.3,2.2c-0.2,0.7-0.5,1.4-0.8,2c-0.4,0.6-0.8,1.2-1.3,1.6c-0.5,0.5-1,0.9-1.6,1.3
		c-0.6,0.4-1.3,0.6-1.9,0.8c-0.7,0.2-1.4,0.3-2.2,0.3c-0.8,0-1.5-0.1-2.2-0.3s-1.4-0.5-2-0.8c-0.6-0.4-1.2-0.8-1.6-1.3
		c-0.5-0.5-0.9-1-1.3-1.6c-0.4-0.6-0.6-1.3-0.8-2C137.3,27.8,137.2,27,137.2,26.3z M141.8,26.3c0,0.5,0.1,1.1,0.3,1.5
		c0.2,0.5,0.4,0.9,0.7,1.2c0.3,0.3,0.7,0.6,1.1,0.8c0.4,0.2,0.9,0.3,1.5,0.3c0.5,0,1-0.1,1.5-0.3c0.4-0.2,0.8-0.5,1.1-0.8
		c0.3-0.3,0.5-0.8,0.7-1.2c0.2-0.5,0.2-1,0.2-1.5c0-0.5-0.1-1-0.2-1.5c-0.2-0.5-0.4-0.9-0.7-1.3c-0.3-0.4-0.7-0.7-1.1-0.9
		c-0.4-0.2-0.9-0.3-1.5-0.3c-0.6,0-1.1,0.1-1.5,0.3c-0.4,0.2-0.8,0.5-1.1,0.9c-0.3,0.4-0.6,0.8-0.7,1.3
		C141.9,25.2,141.8,25.7,141.8,26.3z"/>
</g>
</svg>
