<svg id="Capa_1" data-name="Capa 1" xmlns="http://www.w3.org/2000/svg" viewBox="0 0 389.91 150.6"><defs><style>.cls-1{fill:#fff;}.cls-2{fill:#212121;}</style></defs><path class="cls-1" d="M26.75,49.66C-2.43,65.4,8.61,130.34,22,133.91c9.33,2.5,17.8-25.47,37.17-25.29,17.69.16,26.35,23.63,34.94,20.46,7.85-2.9,10-26,2.22-43.85C84.74,58.79,48.78,37.77,26.75,49.66Z" transform="translate(-8.32 -46.25)"/><path class="cls-1" d="M53.38,117.73c9.15-3.56,22,6,21.24,15.79-.61,7.55-9.25,15-18,13.22-6.23-1.24-10.91-6.8-11.74-13.05C44,126.85,47.76,119.92,53.38,117.73Z" transform="translate(-8.32 -46.25)"/><path class="cls-1" d="M142.12,124.05c-.23-.39-.45-.8-.66-1.21s-.39-.83-.55-1.25q-4.47-11.78-8.9-23.35T123.1,74.89a.78.78,0,0,0,0-.31.87.87,0,0,1,0-.28c0-.64.43-1,1.28-1h11.16a1.81,1.81,0,0,1,1.8,1.32L146.76,103a1.1,1.1,0,0,0,2.09,0l8.79-28.31a1.87,1.87,0,0,1,1.91-1.32h11.26a1.65,1.65,0,0,1,1.12.3,1,1,0,0,1,.33.78,1.62,1.62,0,0,1,0,.38v.1l-6.17,17.67,3.62,10.63a1.1,1.1,0,0,0,2.08,0l10.17-28.55a1.85,1.85,0,0,1,1.9-1.32h10.91a1.68,1.68,0,0,1,1.13.3,1,1,0,0,1,.33.78,1.13,1.13,0,0,1,0,.38v.1q-2.35,6.1-4.81,12.16t-4.94,12.13q-2.47,6.06-4.92,12.14t-4.76,12.14a2.44,2.44,0,0,1-.62.85,1.66,1.66,0,0,1-1.18.47h-8.49a1.91,1.91,0,0,1-1.16-.3,1.51,1.51,0,0,1-.57-.78L160.27,112a1.1,1.1,0,0,0-2.06,0c-.43,1.17-.87,2.32-1.3,3.46q-1.14,3-2.28,6.18c-.12.32-.25.66-.4,1a6.11,6.11,0,0,1-.54,1,3.1,3.1,0,0,1-.71.77,1.43,1.43,0,0,1-.92.32h-8.48A1.46,1.46,0,0,1,142.12,124.05Z" transform="translate(-8.32 -46.25)"/><path class="cls-1" d="M231.18,119.51a23,23,0,0,1-6.85,4.38,21,21,0,0,1-8.08,1.58,23.52,23.52,0,0,1-16.38-6.53,23.06,23.06,0,0,1-5.06-7.22,21.77,21.77,0,0,1-1.87-9,23.53,23.53,0,0,1,2.86-11.26,22.37,22.37,0,0,1,3.32-4.59,21,21,0,0,1,4.39-3.59,21.31,21.31,0,0,1,11.26-3.15,20.35,20.35,0,0,1,5.57.76A21.55,21.55,0,0,1,225.42,83a22.17,22.17,0,0,1,4.35,3.32,22.93,22.93,0,0,1,3.39,4.25,20.16,20.16,0,0,1,2.2,4.92,18.72,18.72,0,0,1,.78,5.38c0,1.2,0,2.19,0,2.95a3.41,3.41,0,0,1-.54,1.82,2.58,2.58,0,0,1-1.61.93,15.3,15.3,0,0,1-3.31.26H207.06a1.1,1.1,0,0,0-1.06,1.4,7.71,7.71,0,0,0,1.09,2.31,9,9,0,0,0,2.44,2.37,10,10,0,0,0,2.95,1.27,12.62,12.62,0,0,0,2.94.38,13.58,13.58,0,0,0,2.57-.26,19,19,0,0,0,2.54-.7,13.65,13.65,0,0,0,2.25-1,7.56,7.56,0,0,0,1.65-1.19,7.76,7.76,0,0,1,.95-.68,1.72,1.72,0,0,1,.85-.23,1.65,1.65,0,0,1,.92.32,6.78,6.78,0,0,1,1.06.9l3.67,4.15a2.4,2.4,0,0,1,.48.82,2.65,2.65,0,0,1,.11.74,2,2,0,0,1-.38,1.2A4.47,4.47,0,0,1,231.18,119.51ZM214.52,90.65a6.56,6.56,0,0,0-2.61.54,9.88,9.88,0,0,0-2.38,1.44,12.4,12.4,0,0,0-2,2c-.15.19-.29.39-.42.58A1.1,1.1,0,0,0,208,97h13.85a1.09,1.09,0,0,0,.93-1.68q-.28-.42-.57-.81a10.88,10.88,0,0,0-1.94-2,8.32,8.32,0,0,0-2.49-1.35A10.15,10.15,0,0,0,214.52,90.65Z" transform="translate(-8.32 -46.25)"/><path class="cls-1" d="M275.25,123.25a6.4,6.4,0,0,0,.31-1.52c.05-.56.07-1.13.07-1.73v-.47a1.72,1.72,0,0,0,0-.26,2,2,0,0,1,0-.26v-.47c-.67.72-1.36,1.42-2.05,2.11a13.86,13.86,0,0,1-2.3,1.86,11.89,11.89,0,0,1-2.86,1.31,12.19,12.19,0,0,1-3.71.51,23.2,23.2,0,0,1-8.66-1.6,20.6,20.6,0,0,1-6.89-4.45,20.12,20.12,0,0,1-4.54-6.84,23.08,23.08,0,0,1-1.63-8.76,24.17,24.17,0,0,1,1.63-8.89,22.25,22.25,0,0,1,4.54-7.21A21.17,21.17,0,0,1,264.68,80a14.93,14.93,0,0,1,3.92.48,13.79,13.79,0,0,1,3.24,1.34,14.23,14.23,0,0,1,2.68,2c.34.32.67.65,1,1a1.1,1.1,0,0,0,1.85-.41l.38-1.23c.14-.39.27-.75.38-1.07a2.78,2.78,0,0,1,.45-.82,1.87,1.87,0,0,1,.72-.5,3.14,3.14,0,0,1,1.12-.17h5.16a3,3,0,0,1,1,.17,3.21,3.21,0,0,1,.89.49,2.39,2.39,0,0,1,.64.79,2.51,2.51,0,0,1,.24,1.11v35.27a24.75,24.75,0,0,1-1.77,9.63,20.23,20.23,0,0,1-12.09,11.57,26.24,26.24,0,0,1-9,1.52,26.52,26.52,0,0,1-4-.33,30.76,30.76,0,0,1-4.28-1,25.43,25.43,0,0,1-4.12-1.68,17.37,17.37,0,0,1-3.52-2.38,3.34,3.34,0,0,1-.88-.95,2.25,2.25,0,0,1-.37-1.27,3.31,3.31,0,0,1,.66-1.83l3.29-4.54a5.27,5.27,0,0,1,.9-.78,1.71,1.71,0,0,1,.9-.26,3.56,3.56,0,0,1,1.91.83,7,7,0,0,0,2,1.34,13.8,13.8,0,0,0,2.32.79,13.17,13.17,0,0,0,2.36.38c.77.06,1.47.09,2.09.09a14.06,14.06,0,0,0,3.26-.41,13,13,0,0,0,3.17-1.23,10.91,10.91,0,0,0,2.6-2A6.21,6.21,0,0,0,275.25,123.25Zm-19.82-20.57a12.86,12.86,0,0,0,.71,4.31,10.18,10.18,0,0,0,2,3.44,9.22,9.22,0,0,0,3.17,2.29,9.83,9.83,0,0,0,4.11.83,11.16,11.16,0,0,0,4.17-.78,10.65,10.65,0,0,0,3.41-2.16,10.93,10.93,0,0,0,2.34-3.26,10.59,10.59,0,0,0,1-4v-1.14a10.62,10.62,0,0,0-1-4A11.6,11.6,0,0,0,273,94.83a11.17,11.17,0,0,0-3.41-2.29,10.47,10.47,0,0,0-4.17-.85,9.41,9.41,0,0,0-4.11.89A9.84,9.84,0,0,0,258.17,95a10.56,10.56,0,0,0-2,3.5A12.69,12.69,0,0,0,255.43,102.68Z" transform="translate(-8.32 -46.25)"/><path class="cls-1" d="M328.49,123.25a6.39,6.39,0,0,0,.32-1.52c0-.56.06-1.13.06-1.73v-.47a1.93,1.93,0,0,0,0-.26,1,1,0,0,1,0-.26v-.47c-.67.72-1.35,1.42-2,2.11a14.37,14.37,0,0,1-2.31,1.86,11.55,11.55,0,0,1-2.86,1.31,12.12,12.12,0,0,1-3.7.51,23.12,23.12,0,0,1-8.66-1.6,20.55,20.55,0,0,1-6.9-4.45,20,20,0,0,1-4.53-6.84,22.89,22.89,0,0,1-1.63-8.76,24,24,0,0,1,1.63-8.89,22.06,22.06,0,0,1,4.53-7.21A21.21,21.21,0,0,1,317.93,80a14.9,14.9,0,0,1,3.91.48,13.79,13.79,0,0,1,3.24,1.34,14.3,14.3,0,0,1,2.69,2c.33.32.66.65,1,1a1.1,1.1,0,0,0,1.85-.41l.39-1.23c.14-.39.26-.75.38-1.07a2.39,2.39,0,0,1,.45-.82,1.76,1.76,0,0,1,.71-.5,3.18,3.18,0,0,1,1.12-.17h5.17a3.05,3.05,0,0,1,1,.17,3.3,3.3,0,0,1,.88.49,2.17,2.17,0,0,1,.64.79,2.51,2.51,0,0,1,.24,1.11v35.27a24.94,24.94,0,0,1-1.76,9.63,20.3,20.3,0,0,1-12.09,11.57,26.54,26.54,0,0,1-13,1.19,31.09,31.09,0,0,1-4.28-1,25.8,25.8,0,0,1-4.12-1.68,17.37,17.37,0,0,1-3.52-2.38,3.49,3.49,0,0,1-.88-.95,2.32,2.32,0,0,1-.36-1.27,3.31,3.31,0,0,1,.66-1.83l3.29-4.54a4.61,4.61,0,0,1,.9-.78,1.66,1.66,0,0,1,.9-.26,3.53,3.53,0,0,1,1.9.83,6.88,6.88,0,0,0,2,1.34,13.5,13.5,0,0,0,2.32.79,13.06,13.06,0,0,0,2.35.38q1.16.09,2.1.09a14,14,0,0,0,3.25-.41,13,13,0,0,0,3.17-1.23,10.91,10.91,0,0,0,2.6-2A6.11,6.11,0,0,0,328.49,123.25Zm-19.81-20.57a12.86,12.86,0,0,0,.71,4.31,10.16,10.16,0,0,0,2,3.44,9.31,9.31,0,0,0,3.17,2.29,9.87,9.87,0,0,0,4.11.83,11.12,11.12,0,0,0,4.17-.78,10.59,10.59,0,0,0,3.42-2.16,10.73,10.73,0,0,0,2.33-3.26,10.59,10.59,0,0,0,1-4v-1.14a10.62,10.62,0,0,0-1-4,11.38,11.38,0,0,0-2.33-3.32,11.1,11.1,0,0,0-3.42-2.29,10.43,10.43,0,0,0-4.17-.85,9.45,9.45,0,0,0-4.11.89A10,10,0,0,0,311.41,95a10.53,10.53,0,0,0-2,3.5A12.69,12.69,0,0,0,308.68,102.68Z" transform="translate(-8.32 -46.25)"/><path class="cls-1" d="M348.52,102.81a23.06,23.06,0,0,1,.81-6.13,22.19,22.19,0,0,1,2.29-5.45,22.74,22.74,0,0,1,3.53-4.58,21.83,21.83,0,0,1,4.59-3.51,23.21,23.21,0,0,1,11.57-3,22.64,22.64,0,0,1,16.06,6.56,23.05,23.05,0,0,1,4.85,7.21,22.35,22.35,0,0,1,1.78,9,22.83,22.83,0,0,1-.81,6.12,23.34,23.34,0,0,1-2.29,5.45,22.26,22.26,0,0,1-3.53,4.59,22.5,22.5,0,0,1-4.59,3.54,22.52,22.52,0,0,1-11.47,3.06,23.21,23.21,0,0,1-6.11-.79,22.54,22.54,0,0,1-5.46-2.27,22,22,0,0,1-4.59-3.54,22.26,22.26,0,0,1-3.53-4.59,22.52,22.52,0,0,1-2.29-5.45A22.83,22.83,0,0,1,348.52,102.81Zm12.64,0a12.73,12.73,0,0,0,.71,4.28,10.18,10.18,0,0,0,2,3.45,9.43,9.43,0,0,0,3.15,2.3,9.88,9.88,0,0,0,4.18.85,9.47,9.47,0,0,0,4.07-.85,9.06,9.06,0,0,0,3.08-2.3,10.2,10.2,0,0,0,1.94-3.45,13.62,13.62,0,0,0,0-8.5,11,11,0,0,0-1.94-3.54,9.11,9.11,0,0,0-7.15-3.29,9.41,9.41,0,0,0-7.33,3.29,11,11,0,0,0-2,3.54A12.67,12.67,0,0,0,361.16,102.81Z" transform="translate(-8.32 -46.25)"/><path class="cls-2" d="M47.7,94.2V74.77a8.64,8.64,0,0,1,8.64-8.63h0A16.17,16.17,0,0,1,72.51,82.31V94.2a.46.46,0,0,1-.46.46H48.16A.46.46,0,0,1,47.7,94.2Z" transform="translate(-8.32 -46.25)"/><path class="cls-1" d="M47,95s15-10,25,0" transform="translate(-8.32 -46.25)"/><text x="-8.32" y="-46.25"/><text x="-8.32" y="-46.25"/></svg>