<?xml version="1.0" encoding="utf-8"?>
<!-- Generator: Adobe Illustrator 27.0.0, SVG Export Plug-In . SVG Version: 6.00 Build 0)  -->
<svg version="1.1" id="bd635c35-9b1c-42c7-b389-3d15febfa5fa"
	 xmlns="http://www.w3.org/2000/svg" xmlns:xlink="http://www.w3.org/1999/xlink" x="0px" y="0px" viewBox="0 0 865.8 682.9"
	 style="enable-background:new 0 0 865.8 682.9;" xml:space="preserve">
<style type="text/css">
	.st0{fill:#CCCCCC;}
	.st1{fill:#FFFFFF;}
	.st2{opacity:0.2;enable-background:new    ;}
	.st3{opacity:0.31;}
	.st4{fill:#2F2E41;}
	.st5{opacity:0.16;}
	.st6{opacity:0.31;fill:#FFFFFF;enable-background:new    ;}
	.st7{opacity:0.2;}
	.st8{fill:#F9B499;}
	.st9{opacity:9.000000e-02;fill:#FFFFFF;enable-background:new    ;}
	.st10{opacity:0.1;}
	.st11{fill:#231F20;}
	.st12{opacity:0.16;fill:#111212;enable-background:new    ;}
	.st13{opacity:0.16;enable-background:new    ;}
	.st14{fill:#FF8617;}
	.st15{opacity:0.15;fill:#111212;enable-background:new    ;}
	.st16{fill:#3F3D56;}
</style>
<rect x="76.4" y="16.7" class="st0" width="711.6" height="505.2"/>
<rect x="64.7" y="521.9" class="st0" width="736.4" height="19.4"/>
<rect x="90" y="30.2" class="st1" width="685.7" height="491.6"/>
<rect x="101.3" y="40.7" class="st0" width="107.7" height="153.8"/>
<rect x="212.5" y="40.7" class="st0" width="107.7" height="153.8"/>
<rect x="323.5" y="40.7" class="st0" width="107.7" height="153.8"/>
<rect x="434.6" y="40.7" class="st0" width="107.7" height="153.8"/>
<rect x="545.9" y="40.7" class="st0" width="107.7" height="153.8"/>
<rect x="656.9" y="40.7" class="st0" width="107.7" height="153.8"/>
<rect x="101.3" y="199.1" class="st0" width="107.7" height="153.8"/>
<rect x="212.5" y="199.1" class="st0" width="107.7" height="153.8"/>
<rect x="323.5" y="199.1" class="st0" width="107.7" height="153.8"/>
<rect x="434.6" y="199.1" class="st2" width="107.7" height="153.8"/>
<rect x="545.9" y="199.1" class="st0" width="107.7" height="153.8"/>
<rect x="545.9" y="199.1" class="st2" width="107.7" height="153.8"/>
<rect x="656.9" y="199.1" class="st0" width="107.7" height="153.8"/>
<rect x="101.2" y="357.5" class="st0" width="107.7" height="153.8"/>
<rect x="212.5" y="357.5" class="st0" width="107.7" height="153.8"/>
<rect x="323.5" y="357.5" class="st0" width="107.7" height="153.8"/>
<rect x="434.6" y="357.5" class="st0" width="107.7" height="153.8"/>
<rect x="545.8" y="357.5" class="st0" width="107.7" height="153.8"/>
<rect x="656.8" y="357.5" class="st0" width="107.7" height="153.8"/>
<g class="st3">
	<rect x="212.5" y="357.5" class="st1" width="107.7" height="153.8"/>
	<rect x="323.5" y="357.5" class="st1" width="107.7" height="153.8"/>
	<rect x="434.6" y="357.5" class="st1" width="107.7" height="153.8"/>
	<rect x="545.8" y="357.5" class="st1" width="107.7" height="153.8"/>
	<rect x="656.8" y="357.5" class="st1" width="107.7" height="153.8"/>
</g>
<polygon class="st4" points="101.3,222.7 151.8,199.1 209,199.1 101.3,269.3 "/>
<polygon class="st4" points="161,194.6 209,171.5 209,194.6 "/>
<path class="st4" d="M218.6,194.6h-6.1v-24.7c0,0,5-1.1,6.1-4.8l11.5-32.4h14.6l-13,40l43.4-5.9l38.9-36.3h4.5l-35.2,48.2l-49.6,9.9
	C228.3,189.6,223.2,191.6,218.6,194.6L218.6,194.6z"/>
<path class="st4" d="M101.3,75.7v-35H209v48C209,88.7,161.6,99.4,101.3,75.7z"/>
<path class="st4" d="M431.2,40.7V65c0,0-19.3,12.4-52.3,18.3V40.7H431.2z"/>
<path class="st4" d="M434.6,64.2c0,0,24.6-9.4,43.2-23.5h-43.2V64.2z"/>
<path class="st4" d="M126.8,40.7c0,0-3.2,82.2,82.2,89.7V40.7H126.8z"/>
<path class="st4" d="M212.5,130.4V40.7h107.7v89.7C320.2,130.4,270.6,146,212.5,130.4z"/>
<path class="st4" d="M323.5,129.1V40.7H395c0,0,9.5,47.7-7.9,60.3c-0.8,0.6-1.7,1.1-2.7,1.4c-5.3,1.8-27,9.4-38,16.8
	c-2.1,1.4-4.2,2.7-6.4,3.9C335.8,125.3,329.3,128.3,323.5,129.1z"/>
<g class="st5">
	<path d="M126.8,40.7c0,0-3.2,82.2,82.2,89.7V40.7H126.8z"/>
	<path d="M212.5,130.4V40.7h107.7v89.7C320.2,130.4,270.6,146,212.5,130.4z"/>
	<path d="M323.5,129.1V40.7H395c0,0,9.5,47.7-7.9,60.3c-0.8,0.6-1.7,1.1-2.7,1.4c-5.3,1.8-27,9.4-38,16.8c-2.1,1.4-4.2,2.7-6.4,3.9
		C335.8,125.3,329.3,128.3,323.5,129.1z"/>
</g>
<rect x="101.2" y="460.7" class="st2" width="27.1" height="50.7"/>
<rect x="128.4" y="413.4" class="st6" width="80.6" height="98"/>
<polygon class="st2" points="168.6,401 168.6,357.5 208.9,357.5 208.9,413.4 128.4,413.4 128.4,401.1 "/>
<polygon class="st2" points="168.6,353 168.6,346.8 185,331.1 185,298.9 208.9,298.9 208.9,353 "/>
<rect x="212.5" y="298.9" class="st2" width="15.8" height="54"/>
<polygon class="st2" points="212.5,413.4 228.3,413.4 228.3,358.4 212.5,358.4 "/>
<rect x="228.3" y="209.3" class="st6" width="91.9" height="143.6"/>
<polygon class="st6" points="323.5,353 431.2,353 431.2,332.1 375.8,332.1 375.8,209.3 323.5,209.3 "/>
<rect x="352.4" y="203.8" class="st2" width="19" height="122.7"/>
<rect x="434.6" y="332.1" class="st2" width="16.1" height="20.9"/>
<rect x="528.8" y="199.1" class="st6" width="13.5" height="153.8"/>
<rect x="528.8" y="156.4" class="st2" width="13.5" height="38.2"/>
<polygon class="st2" points="545.9,156.4 599.7,156.4 599.7,137.3 653.5,102.8 653.5,194.6 545.9,194.6 "/>
<rect x="528.8" y="168.9" class="st6" width="13.5" height="25.7"/>
<rect x="545.9" y="168.9" class="st6" width="75.1" height="25.7"/>
<rect x="545.9" y="199.1" class="st6" width="75.1" height="153.8"/>
<polygon class="st2" points="667.1,194.6 667.1,94 656.9,100.8 656.9,194.6 "/>
<rect x="656.9" y="199.1" class="st2" width="10.2" height="153.8"/>
<rect x="240.1" y="229.6" class="st2" width="80.1" height="10.5"/>
<rect x="240.1" y="254.7" class="st2" width="80.1" height="10.5"/>
<rect x="240.1" y="278.3" class="st2" width="80.1" height="10.5"/>
<rect x="240.1" y="303.4" class="st2" width="80.1" height="10.5"/>
<rect x="240.1" y="328.5" class="st2" width="80.1" height="10.5"/>
<rect x="323.5" y="228.8" class="st2" width="20.5" height="10.5"/>
<rect x="323.5" y="254" class="st2" width="20.5" height="10.5"/>
<rect x="323.5" y="277.5" class="st2" width="20.5" height="10.5"/>
<rect x="323.5" y="302.7" class="st2" width="20.5" height="10.5"/>
<rect x="323.5" y="327.8" class="st2" width="20.5" height="10.5"/>
<path class="st4" d="M597.9,325.9c-15.2-25.4-15.2-85.1-15.2-85.1s26.9,44.2,21.7,85.1H597.9z"/>
<g class="st7">
	<path class="st0" d="M601.3,325.9l-0.7-0.1c2.2-14.8-16.1-77.2-16.2-77.8l0.7-0.2C585.8,250.4,603.5,310.9,601.3,325.9z"/>
</g>
<path class="st4" d="M603.7,299.1c0,0,2.9-26,25.2-47.5c0,0,10.8,13.2-2.6,28c0,0-22.5,28.4-20.1,46.3h-1.9
	C604.3,325.8,605,310.1,603.7,299.1z"/>
<path class="st4" d="M612.7,325.9c0,0,10.4-29.6,38.6-45.6c2.9-1.6,6.5-0.9,8.6,1.7c4.5,5.8,7.3,12.7,8.3,19.9
	c0,0,8.8-11.6-0.6-31.2c-1-2-2.4-3.8-4.2-5.1c-3.6-2.5-9.9-4.2-18.7,3.5c0,0-26.1,20.1-33,56.9L612.7,325.9L612.7,325.9z"/>
<path class="st4" d="M617.2,325.9c0,0,10.2-12,18.6-13c0,0,10.5,24.5,21.4,26.4c0,0-1.1-25.6-17.2-36.1c-1.2-0.8-2.7-0.8-3.9,0
	c-3.8,2.2-12.5,8.4-21.7,22.7H617.2z"/>
<path class="st4" d="M194.2,368.5l-10.7-92.4c-0.3-1.5,0.8-3,2.3-3.3c0,0,0.1,0,0.1,0h0.3c1.5,0.1,2.6,1.2,2.7,2.7l7.9,93
	L194.2,368.5z"/>
<ellipse class="st4" cx="196.8" cy="372.5" rx="12.3" ry="5.8"/>
<ellipse class="st2" cx="196.8" cy="372.5" rx="12.3" ry="5.8"/>
<path class="st4" d="M298.1,559.8c0,0,9.8,46.2,6.8,75.7c0,0,13.8,4.3,14-6.1c0,0,1.5-54.8-16.3-93.8c0,0-6.2-11.7-12.5-21
	C290.1,514.6,297.1,537.5,298.1,559.8z"/>
<path class="st4" d="M308.1,632.9c0,0-2,6.5-10.6,10.2l-0.9,4.1c0,0,10.4-2.3,15.5-14.3H308.1z"/>
<path class="st0" d="M333.4,648.7L333.4,648.7c1.2,0,2.2-0.8,2.4-1.9l19.5-90.9l-7.1-2.6L331,645.8c-0.2,1.3,0.6,2.5,1.9,2.8
	C333.1,648.6,333.2,648.7,333.4,648.7z"/>
<path class="st0" d="M518.4,648.7L518.4,648.7c-1.2,0-2.2-0.8-2.4-1.9l-19.5-90.9l7.1-2.6l17.1,92.5c0.2,1.3-0.6,2.6-1.9,2.8
	c0,0,0,0-0.1,0C518.6,648.7,518.5,648.7,518.4,648.7z"/>
<path class="st0" d="M505,632.9L505,632.9c-1.2,0-2.2-0.8-2.4-1.9l-19.5-90.9l7.1-2.6l17.1,92.5c0.2,1.3-0.6,2.5-1.9,2.8
	C505.3,632.9,505.1,632.9,505,632.9z"/>
<path class="st0" d="M347.9,632.5L347.9,632.5c1.2,0,2.2-0.8,2.4-1.9l19.5-90.9l-7.1-2.6l-17.1,92.5c-0.2,1.3,0.6,2.5,1.9,2.8
	C347.6,632.5,347.7,632.5,347.9,632.5z"/>
<polygon class="st0" points="726.6,647.5 651.5,407.1 663.8,407.1 733.5,647.5 "/>
<polygon class="st2" points="726.6,647.5 651.5,407.1 663.8,407.1 733.5,647.5 "/>
<polygon class="st8" points="366.6,613.7 369,630.6 383.6,629.7 383.6,614.9 "/>
<polygon class="st8" points="471.2,613 473.6,629.9 488.2,629 488.2,614.2 "/>
<path class="st4" d="M362.4,608.4l2.2,9.6c0,0,10.9,2.5,20.3,0v-9.7C377.5,609.9,369.8,609.9,362.4,608.4L362.4,608.4z"/>
<path class="st4" d="M468.5,607.7l2.2,9.7c0,0,10.9,2.5,20.4,0v-9.7c-4,0.9-8.2,1.3-12.3,1.2C475.3,608.8,471.9,608.4,468.5,607.7z"
	/>
<path class="st0" d="M532.8,408.4c-0.1,0-2.6-1.3-2.7-1.3c-5.3-1.3-10.8,1.5-12.8,6.6c-9.5,24-18.1,33.8-18.1,33.8
	c9.7-27,11.8-83,11.8-83H346c-6.5,58.5,13,85.7,13,85.7c-16.7-2.4-25.2-38.6-25.2-38.6c-3.3-8.5-15.9-3.3-15.9-3.3v8.4l8.8,36.3
	l24.1,22.9l64.9,8.2l67.4-6.1l24.1-6.1l14-10.1l9.1-23.8l2.4-25.6L532.8,408.4z"/>
<path class="st1" d="M366,400.9v19.7c0,1.3,1.1,2.4,2.4,2.4l0,0v0.6c-0.1,2,1.3,3.8,3.3,4.2c12.6,2.6,25.5,4.1,38.4,4.4
	c0,0,66.2,3.9,73.3-6.7c0.3-0.6,0.3-1.3,0-1.9c-0.3-0.7,0.1-1.6,0.8-1.9c0,0,0,0,0.1,0c2.1-0.9,4.5-4.5,1.1-18.3l20.1-13.8
	c0,0,10.9-2.3,17.2-8.8c3-3.2,4.4-7.6,3.7-12c-3.8-22.9-13-44.6-27-63.2l-31.3-12c1.1-3,2-6.1,2.6-9.2c0.3-1.7-0.2-3.4-1.4-4.6
	c-4.1-4.2-14.6-13.8-24.4-15.7c0,0-33.5-8.1-53.3,3.8c-1.7,1-3.4,2-5.1,2.9c-4.7,2.4-13.1,8.7,5,17c0,0-33.9,3.9-43.1,25.6
	c0,0-26.4,46.1-18.9,63.6c0,0,3.2,7.5,16.7,12.5"/>
<polygon class="st0" points="110.3,666.1 186.6,407.2 201.7,407.2 118,666.1 "/>
<polygon class="st0" points="128.8,646.8 200,407.2 211.9,407.2 136.6,646.8 "/>
<polygon class="st2" points="128.8,646.8 200,407.2 211.9,407.2 136.6,646.8 "/>
<polygon class="st0" points="744.4,666.2 660.7,407.1 676.7,407.1 751.8,666.2 "/>
<path class="st4" d="M183.9,652.6c0,0-10.9-59.6,5.3-139c0,0,50.6-14,86,1c0,0,11,70.6,3.3,139C278.5,653.6,213.1,657.1,183.9,652.6
	z"/>
<path class="st9" d="M245.4,646.8c0,0,26.6-3.9,34.8-19.7l-1.7,26.5c0,0-63.6,3.6-94.7-1c0,0-0.9-5.6-1.4-10.1
	c1.5,2.4,3.8,4.2,6.6,4.9c0.7,0.2,1.5,0.3,2.2,0.3C197.2,647.9,233.8,648.9,245.4,646.8z"/>
<path class="st9" d="M180.7,620.3c0,0,63.7,1.8,99.5,0c0,0,0.4-8.5,0.4-13.4H180.2C180.2,606.9,180.4,615.6,180.7,620.3z"/>
<ellipse class="st4" cx="266.4" cy="613.2" rx="8.2" ry="4.8"/>
<path class="st4" d="M275.2,514.6h14.9c0,0,11.7,26.8,9.5,84.7l-4,51.5c0,0-1.4,2.7-17.1,2.7c0,0,3.3-50,1.9-63.8
	C280.4,589.8,279.1,540.5,275.2,514.6z"/>
<path class="st2" d="M275.2,514.6h14.9c0,0,11.7,26.8,9.5,84.7l-4,51.5c0,0-1.4,2.7-17.1,2.7c0,0,3.3-50,1.9-63.8
	C280.4,589.8,279.1,540.5,275.2,514.6z"/>
<path class="st4" d="M283.9,599.1c0,0-1.5,49.1-2.3,51.8c0,0,13.7-1.1,16.1-2.7c0,0,7.8-29.3,3.5-48.2
	C295.5,599.2,289.7,598.9,283.9,599.1z"/>
<path class="st1" d="M286.2,585.2h-0.7c1.6-29.9-5.2-67.8-5.3-68.2l0.7-0.1C281,517.2,287.9,555.2,286.2,585.2z"/>
<path class="st1" d="M292.5,585.2h-0.7c1.6-29.9-5.2-67.8-5.3-68.2l0.7-0.1C287.2,517.2,294.1,555.2,292.5,585.2z"/>
<path class="st4" d="M213,509.1c0,0,15.4-20.7,42.1-8.2c0,0,7.6,4.3,11.4,9c0,0,20,1.5,23.5,4.7h-14.8c-6.3-2.7-12.9-4.5-19.6-5.5
	c0,0-1.8-4.6-11.3-7.6c-6.2-2-12.9-1.5-18.7,1.4c-2.5,1.3-4.8,3.1-5.7,5.4L213,509.1z"/>
<path class="st4" d="M213,509.1c0,0,15.4-20.7,42.1-8.2c0,0,7.6,4.3,11.4,9c0,0,20,1.5,23.5,4.7h-14.8c-6.4-2.2-13-4-19.6-5.5
	c0,0-1.8-4.6-11.3-7.6c-6.2-2-12.9-1.5-18.7,1.4c-2.5,1.3-4.8,3.1-5.7,5.4L213,509.1z"/>
<path class="st9" d="M213,509.1c0,0,15.4-20.7,42.1-8.2c0,0,7.6,4.3,11.4,9c0,0,20,1.5,23.5,4.7h-14.8c-6.4-2.2-13-4-19.6-5.5
	c0,0-1.8-4.6-11.3-7.6c-6.2-2-12.9-1.5-18.7,1.4c-2.5,1.3-4.8,3.1-5.7,5.4L213,509.1z"/>
<path class="st0" d="M337.5,460.8c-10.5-7.4-15.4-38.8-16.8-49.8c-0.2-1.6-1.6-2.7-3.1-2.5c0,0,0,0-0.1,0c-0.3,0-0.6,0.1-0.9,0.3
	h-0.1c-1,0.5-1.7,1.6-1.6,2.8c0.4,7.9,3.1,40.6,18.2,56.5c0,0,17.6,19.8,60.8,18.9h0.3c3.6,0.3,78,6.4,119-15.4
	c6-3.2,10.7-8.2,13.6-14.3c6.8-14.8,10.2-31.1,9.7-47.4c0,0,0.3-1.3-2.5-2.1c-1.5-0.4-3.1,0.5-3.6,2c-0.1,0.2-0.1,0.5-0.1,0.7
	c-0.2,12-2.8,53-26.2,60.3c0,0-42.4,14.6-114.3,8.8C389.8,479.6,361.2,477.5,337.5,460.8z"/>
<path class="st2" d="M337.5,460.8c-10.5-7.4-15.4-38.8-16.8-49.8c-0.2-1.6-1.6-2.7-3.1-2.5c0,0,0,0-0.1,0c-0.3,0-0.6,0.1-0.9,0.3
	h-0.1c-1,0.5-1.7,1.6-1.6,2.8c0.4,7.9,3.1,40.6,18.2,56.5c0,0,17.6,19.8,60.8,18.9h0.3c3.6,0.3,78,6.4,119-15.4
	c6-3.2,10.7-8.2,13.6-14.3c6.9-14.2,10.2-29.9,9.7-45.7c0.1-1.7-0.9-3.3-2.5-3.8c-1.5-0.4-3.1,0.5-3.6,2c-0.1,0.2-0.1,0.5-0.1,0.7
	c-0.2,12-2.8,53-26.2,60.3c0,0-42.4,14.6-114.3,8.8C389.8,479.6,361.2,477.5,337.5,460.8z"/>
<path class="st4" d="M372.1,426.9c0,0-15.7,16.3-32.7,32.3c0,0-9.9,5.5-5.8,17.7c0,0,14,88.5,27.2,120.5c0,0-15,9.2,1.7,12.9
	c0,0,23.8,3.5,32.4-3.5c0,0-0.8-10-7.5-16L379.8,488c0,0,27.7-12.9,36-18.7c0,0,13.9-1.8,20.4,0c0,0,29.9,10.7,37.5,14.9
	c0,0-14.9,65.5-6.4,99.9c0,0-14.9,23.8,2.1,25.6c0,0,19.1,2.3,28.6-3.3c1.6-0.9,2.4-2.8,1.9-4.6c-1.1-4-2.8-7.8-5.1-11.3
	c0,0,20.1-98.1,21.6-110c0,0,5.2-14.3-2.4-22.9L481,427L372.1,426.9z"/>
<path class="st2" d="M485.3,476.8c-5.9-3.2-41.7-22.7-57.5-19.5v-20.1c0,0,48.2,0.5,60.1-3.8l-6.7-6.7l-109.1,0.2l-2,2.1
	c0,0,37,10.8,55.1,8.1l0.5,20c-4.9-0.2-18.5,0.3-33.7,11.7l-0.1,0.1c-5.7,6.3-12.7,11.3-20.4,14.8c-0.4,0.2-0.5,0.6-0.4,1
	c0.1,0.2,0.2,0.3,0.4,0.4h0.1c0.4,0.1,0.6,0.5,0.5,0.9c0,0,0,0.1-0.1,0.1c-0.1,0.2-0.3,0.4-0.5,0.5c-2.3,0.4-4.5,1.3-6.4,2.6
	c-0.3,0.2-0.4,0.7-0.2,1l0,0c1.9,2.3,8.2,13.5,14.4,62.2l0,0c0.2,1,7.1,37.5,6.7,46.6c0,0.4,0.2,0.7,0.6,0.8
	c1.9,0.5,3.9,0.5,5.8,0.1c0.4-0.1,0.6-0.5,0.5-0.9c0,0,0,0,0,0v-0.1c-1.3-2.9-3.1-5.5-5.2-7.9c-0.1-0.1-0.2-0.3-0.2-0.5l-7.6-102.1
	c0-0.3,0.1-0.6,0.4-0.7c3.7-1.7,28.1-13.1,35.3-18.4c0.1-0.1,0.2-0.1,0.4-0.1l15.5-0.7c2.4-0.2,4.7,0.4,6.8,1.5h0.1
	c1.2,0.4,28.4,10.4,34.9,13.9c0.3,0.2,0.4,0.5,0.4,0.8c-1.4,5.9-13.4,60.1-7.1,95.4c0.1,0.4,0.4,0.7,0.8,0.6c0,0,0,0,0.1,0
	c0.3-0.1,0.6-0.3,0.6-0.6c2.5-16.2,11.9-75.6,14.6-84.2v-0.1c0.3-0.6,3.8-8.4-1.7-11.1c-0.3-0.2-0.5-0.6-0.3-0.9c0,0,0-0.1,0-0.1
	c0-0.1,0.1-0.1,0.1-0.2l5-5.4c0.3-0.3,0.2-0.7,0-0.9c0,0,0,0-0.1-0.1C485.6,477,485.4,476.9,485.3,476.8z"/>
<g class="st10">
	<path class="st11" d="M434.2,413.1c-9,0-15.3-0.5-15.4-0.5c-2.9-0.3-3.9-0.8-4-1.7c0-0.3,0-0.9,2-1.7h-31.5v-1.4h37l0.1,1.4
		c-2,0.4-3.9,0.9-5.8,1.6c0.8,0.2,1.5,0.3,2.3,0.4c0.3,0,29.4,2.6,52.8-3.4l0.4,1.4C459.3,412.3,444.9,413.1,434.2,413.1z"/>
</g>
<path class="st1" d="M382.5,289.7c0,0-4.5-7.9-2-12.2c0,0-1.3,4.5,11.1,10.4C391.6,287.9,385.6,288.9,382.5,289.7z"/>
<path class="st12" d="M382.4,289.6c-0.3-0.6-4.5-7.9-2-12c0,0-1.2,4.4,11,10.1C391.4,287.7,382.4,289.6,382.4,289.6z"/>
<path class="st13" d="M470.9,283.6l-10.6,4.9l8.6,3.2C469.8,289.1,470.4,286.3,470.9,283.6z"/>
<path class="st14" d="M416.6,291.7c-3.3,0-6.5-0.6-9.5-1.8c-8.8-3.5-26.1-11.1-22.2-15.4c0,0,2.1-1.5,5.1-3.2c6.8-4,14.4-6.4,22.2-7
	c12.1-0.8,33.4-1,43.7,6.6c0,0,13.7,7.9,2.5,13.4l-3.8,2.4c-5.2,3.3-11.3,5.1-17.5,5.1h-20.5V291.7z"/>
<path class="st15" d="M416.9,291.7c-3.3,0-6.5-0.6-9.5-1.8c-8.8-3.5-26.1-11.1-22.2-15.4c0,0,2.1-1.5,5.1-3.2c6.8-4,14.4-6.4,22.2-7
	c12.1-0.8,33.4-1,43.7,6.6c0,0,13.7,7.9,2.5,13.4l-3.8,2.4c-5.2,3.3-11.3,5.1-17.5,5.1h-20.5V291.7z"/>
<path class="st14" d="M345.7,646.3l22.1-15.5l-7.7-6.1c-1.5-1.1-1.7-3.2-0.6-4.7c0.3-0.3,0.6-0.6,0.9-0.8l3.9-2.3
	c2.9-1.7,6.7-1,8.8,1.7l7.2,9.5c0,0,0.2-4.7,2-5.6c0.4-0.2,0.8,0,1,0.3c0,0,0,0,0,0.1v0.1l4,16.2c0.3,1.4-0.4,2.8-1.7,3.3
	c-4.6,1.9-15.3,6.5-19.4,6.2l-2.7-3c-1.1-1.3-2.7-2.1-4.4-2.1l0,0c-2.2-0.1-4.4,0.7-6,2.2l-1.2,1.1l-5.2,0.6
	C346.3,647.5,345.3,646.5,345.7,646.3z"/>
<path class="st4" d="M351.9,646.9l1.8-1.6c1.3-1.2,3-1.9,4.8-1.9l0,0c2.1,0,4.1,0.9,5.5,2.5l2.3,2.7c3.3,0.2,19.4-6.2,19.4-6.2
	c0.9-0.4,1.6-1.3,1.7-2.3c0.7,1.8,1.1,3.7,1.1,5.7c0,0.9-0.6,1.7-1.4,2c-8.8,3.3-18.1,4.8-27.4,4.6c0,0-19,1.8-14-6.1
	C345.7,646.3,344.3,647.8,351.9,646.9z"/>
<path class="st14" d="M510.1,646.4L488,630.9l7.7-6.1c1.5-1.1,1.7-3.2,0.6-4.7c-0.3-0.3-0.6-0.6-0.9-0.8l-3.9-2.3
	c-2.9-1.7-6.7-1-8.8,1.7l-7.2,9.5c0,0-0.2-4.7-2-5.6c-0.4-0.1-0.8,0.1-1,0.4v0.1l-4,16.2c-0.3,1.4,0.4,2.7,1.7,3.3
	c4.7,1.9,15.4,6.5,19.4,6.2l2.2-2.5c1.5-1.7,3.7-2.6,5.9-2.5c1.6,0,3.2,0.6,4.3,1.8l2,1.6c1,0.3,2,0.5,3,0.5c1,0,2-0.1,2.9-0.4
	C510.1,647.1,510.2,647,510.1,646.4z"/>
<path class="st4" d="M503.9,647l-1.8-1.6c-1.3-1.2-3-1.9-4.8-1.9l0,0c-2.1,0-4.1,0.9-5.5,2.5l-2.3,2.7c-3.3,0.3-19.4-6.2-19.4-6.2
	c-1-0.4-1.6-1.3-1.7-2.3c-0.8,2-1.1,4.1-1.1,6.2c0,0.6,0.4,1.1,0.9,1.3c8.9,3.4,18.3,5,27.8,4.8c0,0,19,1.8,14-6.1
	C510.1,646.4,511,648,503.9,647z"/>
<polygon class="st4" points="581.8,325.9 572.8,351 583.9,389.6 624.7,389.6 635.8,350.6 628.4,325.9 "/>
<g class="st7">
	<polygon points="572.9,351.3 572.8,351 572.9,350.6 635.6,349.8 635.8,350.5 	"/>
</g>
<polygon class="st2" points="581.5,381.3 627,381.3 624.7,389.6 583.9,389.6 "/>
<g class="st7">
	<path class="st0" d="M558.7,349.2c-0.5-1.6-12.5-39.4,4.2-50.4l0.4,0.6c-16.2,10.7-4,49.2-3.9,49.6L558.7,349.2z"/>
</g>
<path class="st4" d="M550.3,267.8c0,0,18.9-5.7,27.2,11C577.5,278.8,556.2,284,550.3,267.8z"/>
<path class="st4" d="M602.5,261.1c0,0-2.9-16.3,9-17.5C611.9,250.6,608.4,257.3,602.5,261.1z"/>
<polygon class="st4" points="172.6,372.7 174.7,389.6 222,389.6 223.3,372.7 "/>
<path class="st4" d="M191.7,259.2l60.8-57c0.9-0.9,2.5-0.9,3.4,0.1c0,0,0,0,0,0l0,0c1.1,1.1,1,2.8-0.1,3.9c0,0-0.1,0.1-0.1,0.1l0,0
	l-62.6,54.8c-0.5,0.4-1.2,0.4-1.6-0.1c0,0,0,0,0,0l0,0C191.2,260.4,191.2,259.7,191.7,259.2z"/>
<ellipse transform="matrix(0.3163 -0.9487 0.9487 0.3163 -14.2694 384.2153)" class="st4" cx="259.4" cy="202" rx="7.3" ry="7.3"/>
<ellipse transform="matrix(0.3163 -0.9487 0.9487 0.3163 -14.2694 384.2153)" class="st2" cx="259.4" cy="202" rx="7.3" ry="7.3"/>
<path class="st4" d="M255.7,245.7c1.7-1.9,3.9-5.5,4.8-11.9c0.6-4.7,0.4-9.5-0.6-14.1c-0.5-2.5-0.3-5.1,0.6-7.5c2-5,6.9-8.2,12.3-8
	h0.3c1.6,0.1,3.1,0.4,4.6,1c3.3,1.4,14,4.8,28.8-0.1c0,0,1.6-1.2,4.3,0.8l7.5,8.5c0,0-21.1,35.4-57.5,46.9c-3-2.2-5.3-5.4-6.4-9
	C253.5,250,254,247.5,255.7,245.7z"/>
<g class="st7">
	<path d="M257.4,258.3l-0.5-0.6c6.2-10,15.4-17.8,26.3-22.3c0.2-0.1,22.5-8.9,28.8-27.7l0.5,0.6c-6.4,19.1-28.9,27.7-29.1,27.8
		C266,242.9,257.5,258.1,257.4,258.3z"/>
</g>
<g class="st7">
	<path d="M260.7,225.9l-0.1-0.8c0.1-0.1,13.5-7.4,19.5-19l0.7,0.2C274.8,218.2,260.8,225.8,260.7,225.9z"/>
</g>
<ellipse transform="matrix(0.7694 -0.6388 0.6388 0.7694 -70.4007 221.5591)" class="st2" cx="271.7" cy="208.3" rx="1.5" ry="3.1"/>
<ellipse transform="matrix(0.7694 -0.6388 0.6388 0.7694 -73.6082 219.7378)" class="st2" cx="267.5" cy="211.8" rx="1.5" ry="3.1"/>
<ellipse transform="matrix(0.7694 -0.6388 0.6388 0.7694 -77.1005 218.2596)" class="st2" cx="263.7" cy="215.9" rx="1.5" ry="3.1"/>
<polygon class="st4" points="243.5,331.6 253.9,389.6 274,389.6 283,331.6 "/>
<path class="st4" d="M241.6,325l-1.1,6.6H286l-1.6-6.8c-0.2-1.3-1.4-2.2-2.7-2.1h-37.3C243,322.7,241.8,323.7,241.6,325z"/>
<path class="st2" d="M241.6,325l-1.1,6.6H286l-1.6-6.8c-0.2-1.3-1.4-2.2-2.7-2.1h-37.3C243,322.7,241.8,323.7,241.6,325z"/>
<path class="st0" d="M361.5,291.7h133.1c3.3,0,6,2.7,6,6v0.2l-3.4,91.7H358.5l-3-91.7c-0.1-3.3,2.5-6.1,5.8-6.2c0,0,0,0,0,0H361.5z"
	/>
<path class="st16" d="M438.9,175.2c-1.8-0.7-3.6-1.1-5.5-1.4c-4.3-0.6-8.6-0.6-12.9,0.2c-2.9,0.5-5.8,1.4-8.5,2.5
	c0,0-4.5-7.2,1.3-7.2c0,0,1.7-17.1,22.8-8.8C436.1,160.5,448.1,163.9,438.9,175.2z"/>
<path class="st2" d="M438.9,175.2c-1.8-0.7-3.6-1.1-5.5-1.4c-4.3-0.6-8.6-0.6-12.9,0.2c-2.9,0.5-5.8,1.4-8.5,2.5
	c0,0-4.5-7.2,1.3-7.2c0,0,1.7-17.1,22.8-8.8C436.1,160.5,448.1,163.9,438.9,175.2z"/>
<path class="st16" d="M433.7,172.6c0,0.4-0.1,0.8-0.3,1.2c-4.3-0.6-8.6-0.6-12.9,0.2c-0.3-0.4-0.5-1-0.5-1.5c0-2.2,3.1-4,6.9-4
	S433.7,170.4,433.7,172.6z"/>
<path class="st8" d="M441.1,271.2l-0.9,11.6c0,1.2-0.5,2.3-1.3,3.1l-5,5.8h-20.4l-6.1-7c-0.9-1-1.4-2.4-1.3-3.8l0.5-11.9
	L441.1,271.2z"/>
<polygon class="st4" points="174.7,399.4 180.1,409.8 220.4,409.8 225.2,399.4 "/>
<polygon class="st4" points="638.5,399.4 644,409.8 684.2,409.8 689.1,399.4 "/>
<polygon class="st0" points="745,403.4 113.6,403.4 112.2,389.6 747.1,389.6 "/>
<polygon class="st2" points="745,403.4 113.6,403.4 112.2,389.6 747.1,389.6 "/>
<circle class="st4" cx="189.6" cy="268.8" r="10.5"/>
<circle class="st2" cx="189.6" cy="268.8" r="10.5"/>
<polygon class="st16" points="248.7,360.6 250.3,369.5 277.1,369.5 278.5,360.6 "/>
<polygon class="st2" points="248.7,360.6 250.3,369.5 277.1,369.5 278.5,360.6 "/>
<ellipse class="st8" cx="395.2" cy="221.4" rx="5" ry="7.4"/>
<ellipse class="st8" cx="456.7" cy="221.4" rx="5" ry="7.4"/>
<path class="st4" d="M402.9,268.5c5.5,5.5,13.6,10.9,24.6,11c0,0,16.8-0.3,25.4-14.6c0,0-1-5.5,2-5.1c0,0,4.5-0.6,3.8-13.5
	l-2.7-43.6l4.7-2.5c0,0-3.2-19.1-21.7-25.1c0,0-14-5.5-30.6,3.1c0,0-14.6,9-16.5,20.5l4.7,6.1c-1.6,13.9-2.5,28-2.4,42
	C394.1,254.9,397.2,262.7,402.9,268.5z"/>
<path class="st8" d="M410.2,249.3c-3.1-2.8-8.5-8-11.5-13.8c-1.1-2.1-1.6-4.5-1.5-6.9c0.2-8,1.3-28.4,5.8-27c0,0,21.4,10.3,39.2,1.6
	c0,0,7.6-5.8,10,0.3c0,0,2.1,15.1,3.3,23.1c0.4,3.1-0.1,6.2-1.5,9c-1.8,3.6-3.8,7-6,10.4c-1.7,2.7-4.9,4-8,3.4
	c-1.6-0.3-3.2-0.9-4.6-1.7c0,0-13.8-4.8-20.8,1.5C413.4,250.3,411.5,250.4,410.2,249.3z"/>
</svg>
