<?xml version="1.0" encoding="utf-8"?>
<!-- Generator: Adobe Illustrator 27.0.0, SVG Export Plug-In . SVG Version: 6.00 Build 0)  -->
<svg version="1.1" id="Layer_1" xmlns="http://www.w3.org/2000/svg" xmlns:xlink="http://www.w3.org/1999/xlink" x="0px" y="0px"
	 viewBox="0 0 865.8 682.9" style="enable-background:new 0 0 865.8 682.9;" xml:space="preserve">
<style type="text/css">
	.st0{fill:#EBEBEB;}
	.st1{fill:#FFFFFF;}
	.st2{fill:#DBDBDB;}
	.st3{fill:#C7C7C7;}
	.st4{fill:#3F4347;}
	.st5{fill:#111212;}
	.st6{fill:#FD5631;}
	.st7{fill:#F9B499;}
	.st8{opacity:0.16;fill:#FFFFFF;enable-background:new    ;}
	.st9{opacity:0.2;fill:#FFFFFF;enable-background:new    ;}
	.st10{opacity:0.1;enable-background:new    ;}
	.st11{fill:#F7A48B;}
	.st12{fill:#2F2E41;}
	.st13{opacity:0.7;fill:#FFFFFF;enable-background:new    ;}
	.st14{opacity:0.2;enable-background:new    ;}
	.st15{fill:#FCFCFC;}
	.st16{fill:#011121;}
	.st17{fill:#FF8617;}
	.st18{fill:#222831;}
	.st19{fill:#FFFFFF;stroke:#263238;stroke-linejoin:round;}
	.st20{fill:none;stroke:#2F2E41;stroke-miterlimit:10;}
</style>
<path class="st0" d="M738.5,483.6l-21.1,0.5l-10.7,0.2c-3.6,0.1-7.2,0-10.8,0.1h-0.7v-0.7l-0.1-18v-0.8h0.8l21.2,0.1
	c7.1,0,14.2,0.2,21.3,0.3h0.4v0.4c0,3-0.1,6.1-0.2,9.1L738.5,483.6z M738.5,483.6l-0.2-9.1c-0.1-3-0.2-6-0.2-8.9l0.4,0.4
	c-7.1,0.1-14.2,0.3-21.2,0.3l-21.3,0.1l0.8-0.8l-0.1,18l-0.7-0.7c3.5,0,7,0,10.5,0.1l10.6,0.2L738.5,483.6z"/>
<path class="st0" d="M714.8,506.3l-21.1,0.5l-10.7,0.2c-3.6,0.1-7.2,0-10.7,0.1h-0.7v-0.7l-0.1-18v-0.8h0.8l21.3,0.1
	c7.1,0,14.2,0.2,21.2,0.3h0.4v0.4c0,3-0.1,6.1-0.2,9.1L714.8,506.3z M714.8,506.3l-0.2-9.1c0-3-0.2-6-0.2-8.9l0.4,0.4
	c-7.1,0.1-14.2,0.3-21.3,0.3l-21.2,0.1l0.8-0.8v18l-0.7-0.7c3.5,0,7,0,10.5,0.1l10.6,0.2L714.8,506.3z"/>
<path class="st0" d="M762.3,506.3l-21.1,0.5l-10.7,0.2c-3.6,0.1-7.2,0-10.8,0.1H719v-0.7l-0.1-18v-0.8h0.8l21.3,0.1
	c7.1,0,14.2,0.2,21.2,0.3h0.5v0.4c0,3-0.1,6.1-0.2,9.1L762.3,506.3z M762.3,506.3l-0.2-9.1c0-3-0.2-6-0.2-8.9l0.4,0.4
	c-7.1,0.1-14.2,0.3-21.2,0.3l-21.3,0.1l0.8-0.8l-0.1,18l-0.7-0.7c3.5,0,7,0,10.5,0.1l10.6,0.2L762.3,506.3z"/>
<path class="st0" d="M157.7,483.6l-21.1,0.5l-10.7,0.2c-3.6,0.1-7.2,0-10.7,0.1h-0.7v-19.5h0.8l21.2,0.1c7.1,0,14.2,0.2,21.3,0.3
	h0.4v0.4c0,3-0.1,6.1-0.2,9.1L157.7,483.6z M157.7,483.6l-0.2-9.1c0-3-0.2-6-0.2-8.9l0.4,0.4c-7.1,0.1-14.2,0.3-21.2,0.3l-21.3,0.1
	l0.8-0.8l-0.1,18l-0.7-0.7c3.5,0,7,0,10.5,0.1l10.6,0.2L157.7,483.6z"/>
<path class="st0" d="M181.4,506.3l-21.1,0.5l-10.6,0.2c-3.6,0.1-7.2,0-10.7,0.1h-0.7v-19.5h0.8l21.2,0.1c7.1,0,14.2,0.2,21.2,0.3
	h0.3v0.4c0,3-0.1,6.1-0.2,9.1L181.4,506.3z M181.4,506.3l-0.2-9.1c0-3-0.2-6-0.2-8.9l0.4,0.4c-7.1,0.1-14.2,0.3-21.2,0.3l-21.3,0.1
	l0.8-0.8l-0.1,18l-0.7-0.7c3.5,0,7,0,10.5,0.1l10.6,0.2L181.4,506.3z"/>
<path class="st0" d="M295.3,328.6l-21.1,0.5l-10.7,0.2c-3.6,0.1-7.2,0-10.8,0.1h-0.7v-0.7l-0.1-18v-0.8h0.8l21.2,0.1
	c7.1,0,14.2,0.2,21.3,0.3h0.5v0.4c0,3-0.1,6.1-0.2,9.1L295.3,328.6z M295.3,328.6l-0.2-9.1c0-3-0.2-5.9-0.2-8.9l0.4,0.4
	c-7.1,0.1-14.2,0.3-21.2,0.3l-21.3,0.1l0.8-0.8v18l-0.7-0.7c3.5,0,7,0,10.5,0.1l10.6,0.2L295.3,328.6z"/>
<path class="st0" d="M271.6,351.2l-21.1,0.5l-10.7,0.2h-11.5v-19.4h0.8l21.2,0.1c7.1,0,14.2,0.2,21.3,0.3h0.4v0.4
	c0,3-0.1,6.1-0.2,9.1L271.6,351.2z M271.6,351.2l-0.2-9.1c-0.1-3-0.2-5.9-0.2-8.9l0.4,0.4c-7.1,0-14.2,0.3-21.2,0.3l-21.3,0.1
	l0.8-0.8l-0.1,18l-0.7-0.7c3.5,0,7,0,10.5,0.1l10.6,0.2L271.6,351.2z"/>
<path class="st0" d="M319,351.2l-21.1,0.5l-10.7,0.2h-11.4v-0.7l-0.1-18v-0.8h0.8l21.3,0.1c7.1,0,14.2,0.2,21.2,0.3h0.5v0.4
	c0,3-0.1,6.1-0.2,9.1L319,351.2z M319,351.2l-0.2-9.1c0-3-0.2-5.9-0.2-8.9l0.4,0.4c-7.1,0-14.2,0.3-21.2,0.3l-21.3,0.1l0.8-0.8
	l-0.1,18l-0.7-0.7c3.5,0,7,0,10.5,0.1l10.6,0.2L319,351.2z"/>
<path class="st0" d="M736.1,95.4L715,95.8L704.3,96h-11.4v-0.7l-0.1-18v-0.8h0.8l21.3,0.1c7.1,0,14.2,0.2,21.2,0.3h0.5v0.4
	c0,3-0.1,6.1-0.2,9.1L736.1,95.4z M736.1,95.4l-0.2-9.1c-0.1-3-0.2-5.9-0.2-8.9l0.4,0.4c-7.1,0.1-14.2,0.3-21.2,0.3l-21.2,0.1
	l0.8-0.8l-0.1,18l-0.7-0.7c3.5,0,7,0,10.5,0.1l10.6,0.2L736.1,95.4z"/>
<path class="st0" d="M759.8,118.1l-21.1,0.4l-10.7,0.2c-3.6,0-7.2,0-10.8,0.1h-0.7v-0.7l-0.1-18v-0.8h0.8l21.3,0.1
	c7.1,0,14.2,0.2,21.2,0.2h0.5v0.4c0,3.1-0.1,6.1-0.2,9.1L759.8,118.1z M759.8,118.1l-0.2-9.1c-0.1-3-0.2-5.9-0.2-8.9l0.4,0.4
	c-7.1,0.1-14.2,0.3-21.2,0.3l-21.2,0.1l0.8-0.8l-0.1,18l-0.7-0.7h10.5l10.6,0.2L759.8,118.1z"/>
<path class="st0" d="M157.6,95.4l-21.1,0.4L125.8,96h-11.4V76.6h0.8l21.3,0.1c7.1,0,14.1,0.2,21.2,0.3h0.4v0.4
	c0,3.1-0.1,6.1-0.2,9.1L157.6,95.4z M157.6,95.4l-0.2-9.1c-0.1-3-0.2-5.9-0.2-8.9l0.4,0.4c-7.1,0.1-14.2,0.2-21.2,0.2l-21.3,0.1
	l0.8-0.8l-0.1,18l-0.7-0.8c3.5,0,7,0,10.5,0.1l10.6,0.2L157.6,95.4z"/>
<rect x="226.9" y="120.7" class="st0" width="87.9" height="106.7"/>
<rect x="237" y="130.4" class="st1" width="67.9" height="87.2"/>
<rect x="237" y="130.4" class="st2" width="2.6" height="87.2"/>
<rect x="314.9" y="120.7" class="st2" width="2.6" height="106.7"/>
<rect x="259.7" y="142.5" class="st2" width="16" height="47.7"/>
<path class="st0" d="M296.2,199.1h-44.3v-25h44.3V199.1z M253.5,197.5h41.1v-21.8h-41.1L253.5,197.5z"/>
<rect x="122.4" y="233.4" class="st0" width="87.9" height="106.7"/>
<rect x="132.4" y="243.2" class="st1" width="67.9" height="87.2"/>
<rect x="132.4" y="243.2" class="st2" width="2.6" height="87.2"/>
<rect x="210.3" y="233.4" class="st2" width="2.6" height="106.7"/>
<rect x="159.8" y="265.7" class="st0" width="13.7" height="34.7"/>
<path class="st2" d="M188.7,311.5h-38.4V286h38.4L188.7,311.5z M151.9,309.9h35.2v-22.3h-35.2L151.9,309.9z"/>
<rect x="602.5" y="456.2" class="st0" width="125.9" height="174.2"/>
<rect x="596.4" y="449.7" class="st2" width="138.1" height="6.5"/>
<rect x="734.5" y="449.7" class="st0" width="43.4" height="6.5"/>
<rect x="728.4" y="456.2" class="st2" width="42.7" height="174.2"/>
<path class="st3" d="M714.9,536.9H616V481h98.9L714.9,536.9z M616.4,536.5h98.1v-55.1h-98.1V536.5z"/>
<rect x="651.6" y="497.3" class="st3" width="19.2" height="11.1"/>
<path class="st3" d="M676.8,507.7h-19.6v-9.8h19.6V507.7z M657.5,507.3h18.8v-9h-18.8L657.5,507.3z"/>
<path class="st3" d="M714.9,607H616v-55.9h98.9L714.9,607z M616.4,606.6h98.1v-55.1h-98.1V606.6z"/>
<rect x="651.6" y="567.4" class="st3" width="19.2" height="11.1"/>
<path class="st3" d="M676.8,577.9h-19.6v-9.8h19.6V577.9z M657.5,577.5h18.8v-9h-18.8L657.5,577.5z"/>
<rect x="731.7" y="0" class="st3" width="1.6" height="151.7"/>
<polygon class="st0" points="687,195.4 690.7,203.5 774.2,203.5 777.9,195.4 742.3,170.8 722.6,170.8 "/>
<polygon class="st2" points="720.2,147.1 722.6,170.8 742.3,170.8 744.8,147.1 "/>
<polygon class="st2" points="687,195.4 690.7,203.5 774.2,203.5 777.9,195.4 "/>
<rect x="640.1" y="0" class="st3" width="1.6" height="104.9"/>
<polygon class="st0" points="595.5,148.6 599.1,156.7 682.7,156.7 686.3,148.6 650.8,124 631,124 "/>
<polygon class="st2" points="628.6,100.3 631,124 650.8,124 653.2,100.3 "/>
<polygon class="st2" points="595.5,148.6 599.1,156.7 682.7,156.7 686.3,148.6 "/>
<path class="st4" d="M470.6,70.1H221.5c-14,0.1-25.3,11.6-25.2,25.7v527.5c-0.1,14.1,11.1,25.6,25.2,25.7c0,0,0,0,0,0h249.1
	c14.1-0.1,25.3-11.6,25.2-25.7V95.8C496,81.7,484.7,70.2,470.6,70.1z M480.1,607.4c0,13.5-10.1,24.4-22.6,24.4H234.7
	c-12.5,0-22.6-10.9-22.6-24.4V115.2c0-27.5,10.1-28.8,22.6-28.8h44.6c2.6,0,4.7,3,4.7,6.6v1.5c0,8.6,4.6,8.6,10.4,8.6h103.2
	c5.8,0,10.5,0,10.5-8.6V93c0-3.7,2.1-6.6,4.7-6.6h44.6c12.5,0,22.6,3.7,22.6,28.8L480.1,607.4z"/>
<path class="st1" d="M480.1,115.2v492.2c0,13.5-10.1,24.4-22.6,24.4H234.7c-12.5,0-22.6-10.9-22.6-24.4V115.2
	c0-27.5,10.1-28.8,22.6-28.8h44.6c2.6,0,4.7,3,4.7,6.6v1.5c0,8.6,4.6,8.6,10.4,8.6h103.2c5.8,0,10.5,0,10.5-8.6V93
	c0-3.7,2.1-6.6,4.7-6.6h44.6C470,86.4,480.1,90,480.1,115.2z"/>
<path class="st1" d="M480.1,115.2v492.2c0,13.5-10.1,24.4-22.6,24.4H234.7c-12.5,0-22.6-10.9-22.6-24.4V115.2
	c0-27.5,10.1-28.8,22.6-28.8h44.6c2.6,0,4.7,3,4.7,6.6v1.5c0,8.6,4.6,8.6,10.4,8.6h103.2c5.8,0,10.5,0,10.5-8.6V93
	c0-3.7,2.1-6.6,4.7-6.6h44.6C470,86.4,480.1,90,480.1,115.2z"/>
<path class="st5" d="M480.1,115.2v42.5h-268v-42.5c0-27.5,10.1-28.8,22.6-28.8h44.6c2.6,0,4.7,3,4.7,6.6v1.5c0,8.6,4.6,8.6,10.4,8.6
	h103.2c5.8,0,10.5,0,10.5-8.6V93c0-3.7,2.1-6.6,4.7-6.6h44.6C470,86.4,480.1,90,480.1,115.2z"/>
<path class="st1" d="M271.6,97.1c-0.1,0.1-0.3,0.3-0.4,0.4l-0.2,0.2c-2.3-2.3-6-2.3-8.3,0l0,0l-0.2-0.2c-0.2-0.1-0.3-0.3-0.4-0.4
	l0,0l0.6-0.5c0.4-0.3,0.8-0.6,1.3-0.8c0.5-0.3,1.1-0.5,1.7-0.6l0.9-0.1h1.3c0.5,0.1,1,0.2,1.5,0.4c0.3,0.1,0.7,0.3,1,0.5
	c0.4,0.2,0.7,0.4,1,0.7L271.6,97.1L271.6,97.1z"/>
<path class="st1" d="M264,99.1l-0.7-0.7c0.7-0.8,1.7-1.3,2.8-1.4c1.5-0.2,3.1,0.3,4.2,1.4l-0.7,0.7C268,97.6,265.6,97.6,264,99.1
	L264,99.1z"/>
<path class="st1" d="M268.9,99.8l-0.7,0.7c-0.4-0.4-0.9-0.6-1.4-0.6c-0.5,0-1.1,0.2-1.4,0.6l-0.7-0.7
	C265.8,98.7,267.7,98.7,268.9,99.8L268.9,99.8z"/>
<path class="st1" d="M267.4,101.1c0,0.3-0.3,0.6-0.6,0.6c-0.3,0-0.6-0.3-0.6-0.6c0,0,0,0,0,0c0-0.3,0.3-0.6,0.6-0.6l0,0
	C267.1,100.5,267.4,100.8,267.4,101.1C267.4,101.1,267.4,101.1,267.4,101.1z"/>
<path class="st1" d="M229.6,98.4c0-1,0.8-1.8,1.8-1.8s1.8,0.8,1.8,1.8c0,1-0.8,1.8-1.8,1.8c0,0,0,0,0,0l0,0
	C230.4,100.2,229.6,99.4,229.6,98.4z"/>
<path class="st1" d="M235.1,98.4c0-1,0.8-1.8,1.8-1.8s1.8,0.8,1.8,1.8c0,1-0.8,1.8-1.8,1.8c0,0,0,0,0,0l0,0
	C236,100.2,235.2,99.4,235.1,98.4z"/>
<path class="st1" d="M240.7,98.4c0-1,0.8-1.8,1.8-1.8c1,0.1,1.7,0.9,1.7,1.9c-0.1,0.9-0.8,1.6-1.7,1.7l0,0
	C241.5,100.2,240.7,99.4,240.7,98.4L240.7,98.4z"/>
<path class="st1" d="M246.3,98.4c0-1,0.8-1.8,1.8-1.8s1.8,0.8,1.8,1.8c0,1-0.8,1.8-1.8,1.8c0,0,0,0,0,0l0,0
	C247.1,100.2,246.3,99.4,246.3,98.4z"/>
<path class="st1" d="M251.9,98.4c0-1,0.8-1.8,1.8-1.8c1,0,1.8,0.8,1.8,1.8c0,1-0.8,1.8-1.8,1.8C252.8,100.2,252,99.4,251.9,98.4
	L251.9,98.4z"/>
<path class="st1" d="M460,102.3h-14.5v-6.7H460V102.3z M446.3,101.5h13v-5.2h-13V101.5z"/>
<rect x="446.7" y="96.7" class="st1" width="9.3" height="4.4"/>
<rect x="460" y="97.2" class="st1" width="1.3" height="3.6"/>
<polygon class="st1" points="236.5,142 228.6,134.6 236.5,127.2 237.7,128.5 231.2,134.6 237.7,140.7 "/>
<polygon class="st1" points="455.7,127.2 463.6,134.6 455.7,142 454.5,140.7 461,134.6 454.5,128.5 "/>
<path class="st1" d="M360.2,92.4H332c-1,0-1.7-0.8-1.7-1.7l0,0c0-0.9,0.8-1.7,1.7-1.7h28.1c1,0,1.7,0.8,1.7,1.7c0,0,0,0,0,0l0,0
	C361.9,91.7,361.1,92.5,360.2,92.4C360.2,92.5,360.2,92.5,360.2,92.4L360.2,92.4z"/>
<rect x="230.3" y="178.9" class="st0" width="231.7" height="58.2"/>
<path class="st2" d="M264.1,228.4c-11.2,0-20.3-9.2-20.3-20.4c0-11.2,9.2-20.3,20.4-20.3c11.2,0,20.3,9.1,20.3,20.3
	C284.5,219.3,275.4,228.4,264.1,228.4C264.1,228.4,264.1,228.4,264.1,228.4L264.1,228.4z M264.1,190.5c-9.7,0-17.5,7.8-17.5,17.5
	c0,9.7,7.8,17.5,17.5,17.5c9.7,0,17.5-7.8,17.5-17.5l0,0C281.6,198.4,273.8,190.5,264.1,190.5z"/>
<rect x="262.5" y="195.6" transform="matrix(0.7071 -0.7071 0.7071 0.7071 -69.7419 247.6662)" class="st2" width="3.1" height="24.8"/>
<rect x="251.7" y="206.5" transform="matrix(0.7071 -0.7071 0.7071 0.7071 -69.7427 247.6783)" class="st2" width="24.8" height="3.1"/>
<rect x="299.4" y="192.5" class="st2" width="149" height="2.8"/>
<rect x="299.4" y="203.8" class="st2" width="149" height="2.8"/>
<rect x="299.4" y="209.4" class="st2" width="121.6" height="2.8"/>
<rect x="299.4" y="215.1" class="st2" width="80.7" height="2.8"/>
<rect x="299.4" y="220.7" class="st2" width="121.6" height="2.8"/>
<rect x="230.3" y="328.3" class="st0" width="231.7" height="58.2"/>
<path class="st2" d="M264.1,377.7c-11.3,0-20.4-9.2-20.4-20.4c0-11.3,9.2-20.4,20.4-20.4c11.3,0,20.4,9.2,20.4,20.4
	C284.5,368.6,275.4,377.7,264.1,377.7L264.1,377.7z M264.1,339.9c-9.7,0-17.5,7.8-17.6,17.5s7.8,17.5,17.5,17.6s17.5-7.8,17.6-17.5
	c0,0,0,0,0,0l0,0C281.6,347.7,273.8,339.9,264.1,339.9z"/>
<rect x="262.5" y="345" transform="matrix(0.7071 -0.7071 0.7071 0.7071 -175.3497 291.4133)" class="st2" width="3.1" height="24.8"/>
<rect x="251.7" y="355.8" transform="matrix(0.7071 -0.7071 0.7071 0.7071 -175.3576 291.4142)" class="st2" width="24.8" height="3.1"/>
<rect x="299.4" y="341.9" class="st2" width="149" height="2.8"/>
<rect x="299.4" y="353.1" class="st2" width="149" height="2.8"/>
<rect x="299.4" y="358.8" class="st2" width="121.6" height="2.8"/>
<rect x="299.4" y="364.4" class="st2" width="80.7" height="2.8"/>
<rect x="299.4" y="370.1" class="st2" width="121.6" height="2.8"/>
<rect x="230.3" y="403.9" class="st0" width="231.7" height="58.2"/>
<path class="st2" d="M264.1,453.4c-11.3,0-20.4-9.2-20.3-20.4c0-11.3,9.2-20.4,20.4-20.3s20.4,9.2,20.3,20.4
	c0,11.2-9.1,20.3-20.3,20.3H264.1z M264.1,415.5c-9.7,0-17.5,7.8-17.5,17.5s7.8,17.5,17.5,17.5c9.7,0,17.5-7.8,17.5-17.5V433
	C281.6,423.4,273.7,415.5,264.1,415.5L264.1,415.5z"/>
<rect x="262.5" y="420.6" transform="matrix(0.7071 -0.7071 0.7071 0.7071 -228.8434 313.5733)" class="st2" width="3.1" height="24.8"/>
<rect x="251.7" y="431.5" transform="matrix(0.7071 -0.7071 0.7071 0.7071 -228.8513 313.5624)" class="st2" width="24.8" height="3.1"/>
<rect x="299.4" y="417.5" class="st2" width="149" height="2.8"/>
<rect x="299.4" y="428.8" class="st2" width="149" height="2.8"/>
<rect x="299.4" y="434.4" class="st2" width="121.6" height="2.8"/>
<rect x="299.4" y="440.1" class="st2" width="80.7" height="2.8"/>
<rect x="299.4" y="445.7" class="st2" width="121.6" height="2.8"/>
<rect x="230.3" y="479.6" class="st0" width="231.7" height="58.2"/>
<path class="st2" d="M264.1,529c-11.3,0-20.4-9.2-20.4-20.4c0-11.3,9.2-20.4,20.4-20.4c11.3,0,20.4,9.2,20.4,20.4
	C284.5,519.9,275.4,529,264.1,529L264.1,529z M264.1,491.1c-9.7,0-17.5,7.8-17.6,17.5c0,9.7,7.8,17.5,17.5,17.6s17.5-7.8,17.6-17.5
	c0,0,0,0,0,0l0,0C281.6,499,273.8,491.2,264.1,491.1L264.1,491.1z"/>
<rect x="262.5" y="496.3" transform="matrix(0.7071 -0.7071 0.7071 0.7071 -282.3154 335.7292)" class="st2" width="3.1" height="24.8"/>
<rect x="251.7" y="507.1" transform="matrix(0.7071 -0.7071 0.7071 0.7071 -282.3438 335.7371)" class="st2" width="24.8" height="3.1"/>
<rect x="299.4" y="493.1" class="st2" width="149" height="2.8"/>
<rect x="299.4" y="504.4" class="st2" width="149" height="2.8"/>
<rect x="299.4" y="510.1" class="st2" width="121.6" height="2.8"/>
<rect x="299.4" y="515.7" class="st2" width="80.7" height="2.8"/>
<rect x="299.4" y="521.4" class="st2" width="121.6" height="2.8"/>
<rect x="222.7" y="251.5" class="st6" width="246.9" height="62"/>
<path class="st5" d="M474.9,319.2H217.3v-73.4h257.7V319.2z M218.8,317.7h254.6v-70.3H218.8L218.8,317.7z"/>
<polygon class="st1" points="255.7,293.7 247.2,285.2 250.1,282.4 255,287.4 265.3,271.3 268.6,273.5 "/>
<path class="st1" d="M258.7,304.2c-12,0-21.7-9.7-21.7-21.7s9.7-21.7,21.7-21.7c12,0,21.7,9.7,21.7,21.7l0,0
	C280.4,294.5,270.7,304.2,258.7,304.2z M258.7,263.8c-10.3,0-18.7,8.4-18.7,18.7c0,10.3,8.4,18.7,18.7,18.7s18.7-8.4,18.7-18.7
	c0,0,0,0,0,0l0,0C277.4,272.2,269,263.8,258.7,263.8C258.7,263.8,258.7,263.8,258.7,263.8L258.7,263.8z"/>
<rect x="296.4" y="266" class="st1" width="158.8" height="3"/>
<rect x="296.4" y="278" class="st1" width="158.8" height="3"/>
<rect x="296.4" y="284" class="st1" width="129.6" height="3"/>
<rect x="296.4" y="290" class="st1" width="86" height="3"/>
<rect x="296.4" y="296.1" class="st1" width="129.6" height="3"/>
<path class="st2" d="M328.5,597.2c0,2.1-1.7,3.8-3.8,3.8c-2.1,0-3.8-1.7-3.8-3.8c0-2.1,1.7-3.8,3.8-3.8c0,0,0,0,0,0l0,0
	C326.8,593.4,328.5,595.1,328.5,597.2C328.5,597.2,328.5,597.2,328.5,597.2z"/>
<circle class="st2" cx="346.1" cy="597.2" r="6.2"/>
<path class="st2" d="M371.3,597.2c0,2.1-1.7,3.8-3.8,3.8c-2.1,0-3.8-1.7-3.8-3.8c0-2.1,1.7-3.8,3.8-3.8c0,0,0,0,0,0l0,0
	C369.6,593.4,371.3,595.1,371.3,597.2z"/>
<path class="st7" d="M565.7,199c6.2,14.2,13.2,31.1,21,43.3c-0.7-0.5-1.6-0.7-2.4-0.8c-1.8,0-2,0.6-1.7,0.4c3-1.9,5.3-5.4,7.8-8.9
	c4.3-6.5,8.3-13.1,11.9-20c1.2-2.3,4.1-3.2,6.4-1.9c2,1.1,3,3.5,2.2,5.7c-2.7,7.8-6,15.3-9.7,22.7c-3.9,7.6-12.2,21.8-23,15.1
	c-5.5-4.2-8.6-10.3-12.2-15.6c-6.4-10.5-12.1-21.1-17.6-32c-5.4-11.7,11.7-19.7,17.2-7.9L565.7,199z"/>
<path class="st5" d="M560.2,192.6c8.5,0.5,22.7,27.3,22.7,27.3l-26,19.3c0,0-4.6-39.4-4.6-39.5S560.2,192.6,560.2,192.6z"/>
<path class="st8" d="M582.8,219.8l-13,9.6l-9,6.6l-4.1,3c0,0-2.8-23.8-4-34.5c-0.4-3.1-0.6-5-0.6-5l8-7.1c7,0.4,17.9,18.8,21.5,25.2
	C582.4,219,582.8,219.8,582.8,219.8z"/>
<polygon class="st1" points="582.8,217 586.5,221.2 562.7,239.1 558.6,232.3 "/>
<path class="st4" d="M586.5,211.4c-0.2,0.7,0.2,1.4,0.9,1.6c0,0,0,0,0,0c0.1,0,0.1,0,0.2,0l14.3,1.9c0.8,0.1,1.6-0.4,1.8-1.2
	l7.1-27.8c0.2-0.8-0.2-1.6-1-1.8l0,0l-14.3-2c-0.9,0-1.6,0.6-1.8,1.4L586.5,211.4z"/>
<path class="st9" d="M595.2,183.6l-7.1,28.1c-0.2,0.6,0,1.2,0.6,1.4c0.1,0,0.2,0.1,0.4,0.1l12.2,1.6c0.8,0.1,2.3-0.1,2.6-0.9
	l7.2-28.2c0.2-0.8-1.1-1.6-2-1.7l-12.1-1.7C596,182.2,595.3,182.8,595.2,183.6z"/>
<path class="st7" d="M611.2,215.8l-1.8-16.2L599,211.8c0,0-2.3,10.4,7.2,9.7L611.2,215.8z"/>
<polygon class="st7" points="599.2,196.6 595.8,208.5 599,211.8 609.4,199.6 "/>
<path class="st10" d="M575.1,229.8l-12.3,9.4l-1.8-3l-4.1,3c0,0-2.8-23.8-4-34.5C555.1,206.6,572.9,209.3,575.1,229.8z"/>
<path class="st7" d="M504,486.5l5.2,10c0,0,4.5-2.4,11.6-6.3c2-1.1,4.3-2.3,6.7-3.7c6.7-3.7,14.8-8.2,23.4-13l5.6-3.2
	c29.6-17,53.9-33.2,53.9-42.1c0-14.9-10.8-43.3-26.1-71.7c-10.2-19-18.7-34.2-18.7-34.2l-36.3,22.2c0,0,12.3,16.5,25,34.7
	c14.8,21.2,29.9,44.6,26.5,47c-2.7,1.8-16.1,12.3-31,24.1l-2.7,2.1c-8,6.4-16.3,13-23.5,18.6l-5.8,4.6L504,486.5z"/>
<path class="st11" d="M529.3,344.5c0,0,12.3,16.5,25,34.7l29.9-22.7c-10.2-19-18.7-34.2-18.7-34.2L529.3,344.5z"/>
<path class="st11" d="M517.7,475.6l3.1,14.6c8.9-4.9,22-12.1,35.7-19.9c-2.3-7-5-15-6.7-20C538.6,459.1,526.7,468.6,517.7,475.6z"/>
<path class="st7" d="M488,362.9l7,21.3l1.4,4.4l10.7,32.4l1.2,3.7l7,21.4l8.2,24.9l3.8,11.5c0,1.3,0.1,2.6,0.2,3.9
	c3.6,55.1,32.3,127,32.3,127l10.2-2.8c-3.6-43.2-11.4-93.6-19.2-137.3c-1.3-7.2-2.5-14.3-3.9-21.1c-0.7-3.9-1.4-7.6-2.1-11.2
	c-1.5-7.8-2.9-15.1-4.3-21.9c-0.6-3.2-1.3-6.3-1.8-9.3c-1.5-7.4-2.9-14.1-4.1-19.8s-2.2-10.4-2.9-14c-1.1-5.2-1.7-8.1-1.7-8.1
	L488,362.9z"/>
<path class="st12" d="M516.4,475.9c1.3,0,0.5,16.4,0.5,16.4s-10.1,10.2-12.2,20s-8.1,4.4-8.3-6.5s-0.3-19.2-0.4-27
	S502.6,475.7,516.4,475.9z"/>
<path class="st12" d="M557,608.9c0-1.3,16.4-0.3,16.4-0.3s10,10.2,19.8,12.5s4.3,8.1-6.6,8.1h-27.1
	C551.7,629.3,556.5,622.7,557,608.9z"/>
<path class="st13" d="M545.3,374.7l2.4,2.2l35.2-23.9l-4.5-10.9c0.1,3.8-0.5,7.6-1.7,11.3C574.8,358,551.4,371.2,545.3,374.7z"/>
<path class="st11" d="M488,362.9l7,21.3c19.3,4.6,31.7,6,39.7,6c-1.2-5.7-2.2-10.4-2.9-14c-1.1-5.2-1.8-8.1-1.8-8.1L488,362.9z"/>
<path class="st12" d="M582.8,353l-35.3,24l-2.3-2.2l-8-7.6v18.9l-48.7-8.7c-7.4-32.7-6.5-56.9-3.3-73.5c1.5-8.4,4.1-16.5,7.9-24.1
	l0,0l0.6-6.2l65.8,6.8l0.6,4.3l3.2,21.2l14.8,36.2L582.8,353z"/>
<path class="st14" d="M537.2,367.2v-21c0,0,9.4,15.7,8,28.6L537.2,367.2z"/>
<polygon class="st1" points="544.7,375.7 582.3,348.4 585.5,353.7 547.6,380.2 "/>
<polygon class="st15" points="487.5,374.1 539.2,383.2 539.2,388.3 489.1,380.2 "/>
<path class="st14" d="M507.1,281.5c0,0-4.9,17.8-21.8,22.3c1.5-8.4,4.1-16.5,7.9-24.1l0,0L507.1,281.5z"/>
<path class="st14" d="M563.5,306c-6.3-6.1-8.1-21.3-8.1-21.3h4.9L563.5,306z"/>
<path class="st14" d="M539.2,283.6c0,1.1-0.9,2.1-2.1,2.1s-2.1-0.9-2.1-2.1s0.9-2.1,2.1-2.1c0,0,0,0,0,0
	C538.3,281.5,539.2,282.5,539.2,283.6z"/>
<path class="st1" d="M494.5,275.9c-15.2-3.5-0.2-3.2-5.1-72c-0.3-3.5,0-7,0.8-10.4c1.6-5.6,7-9.1,12.8-8.5c2.6,0.3,5,0.6,5.5,0.6
	c1.4,0,2.9,0.1,4.4,0.2c9.9,0.4,19.8,1.5,29.6,3.4c2.4,0.5,4.9,1.1,7.3,1.6c0.8,0.2,9.7,1.6,10.4,1.8c0,0,10.2,15.9,9.3,27.4
	c-0.5,6.4-2.7,11.2-2.9,26.6c-0.4,35,6.9,34-8.3,35L494.5,275.9z"/>
<path class="st10" d="M526.7,233.2c0,0-13.5,14.7-36.3,0.9c0-6.6,0-14.4-0.5-23.4c8.8-3.2,18-5.3,27.3-6.5L526.7,233.2z"/>
<path class="st7" d="M555.9,202.5l14.2-8.1l5,13.4c0,0-9.1,7.1-17.3,2.2L555.9,202.5z"/>
<polygon class="st7" points="581.8,194.1 583.1,205 575.1,207.9 570.1,194.5 "/>
<path class="st7" d="M509.1,195.7c3.8,15.1,9.7,29.5,17.7,42.8l0.4,0.7c-0.4-0.6-0.9-1.1-1.5-1.6c-1.4-1.1-3.3-1.4-5-0.9
	c6.1-3.2,10.9-9,16-13.9c6.1-6.3,12.1-12.9,18.1-19.5c1.8-1.9,4.8-1.9,6.7-0.1c1.5,1.5,1.9,3.8,0.9,5.6
	c-6.7,12.1-14.7,23.5-23.8,33.9c-3.2,3.9-7.1,7.1-11.6,9.4c-5.2,2.6-11.6,0.7-14.6-4.3c-10.7-14.6-18.2-31.3-22-49
	c-1.9-12.5,16-15.9,18.6-3.4L509.1,195.7z"/>
<path class="st16" d="M501.5,185c-10.3-1.2-16.6,10.8-13.4,38.4h32.3C520.3,223.4,518.4,187,501.5,185z"/>
<path class="st8" d="M501.5,185c-10.3-1.2-16.6,10.8-13.4,38.4h32.3C520.3,223.4,518.4,187,501.5,185z"/>
<polygon class="st1" points="486.4,217 521.4,221.2 521.5,225.9 487.2,225.9 "/>
<path class="st12" d="M527.5,106.3c0,0,7.4-5.3,20-1.2s25.6,17.6,19.8,37s-5,31.7-5,31.7s-43.2-7.1-52.4-15.6
	S502.2,101.3,527.5,106.3z"/>
<path class="st7" d="M518.7,152.7c1.5,9.7,2.7,27.6-4.2,33.3c8.7,5.1,17.7,9.6,27,13.6c6.4-7.3,2.6-10.3,2.6-10.3
	c-10.5-3.8-9.9-11.7-7.8-18.9L518.7,152.7z"/>
<path class="st11" d="M525.8,160l10.4,10.4c-0.5,1.7-0.9,3.4-1.1,5.2c-4-1-9.4-6.2-9.7-10.5C525.2,163.4,525.4,161.7,525.8,160z"/>
<path class="st7" d="M520.8,127.8c-3.1,15.4-4.8,21.9,0.6,32.1c8.1,15.3,27.3,16.7,34.8,2.8c6.8-12.6,10.8-35.7-2.1-46.4
	c-8.3-7.4-21.1-6.7-28.5,1.6C523.1,120.6,521.4,124.1,520.8,127.8z"/>
<path class="st12" d="M524.3,139.1c0,0,11.4-7,12.8-24.2c0,0,19-0.6,25.6,16.2c0,0-2.4-24.2-29.4-25.2s-19.6,28.7-17.5,31.8
	S524.3,139.1,524.3,139.1z"/>
<path class="st7" d="M512.6,138.7c0.8,3.2,2.8,6,5.6,7.8c3.7,2.2,6.5-1.2,6.4-5.6c-0.1-3.9-2.2-9.9-6.3-10.2
	S511.6,134.5,512.6,138.7z"/>
<path class="st17" d="M159.1,520c11.1-22.7,30.4-34.5,52.3-27.9s25.2,36.9,8.9,44.6s-32.6-14.8-41.2-19.4S159.1,520,159.1,520z"/>
<path class="st18" d="M148.3,580.5c0-2.7,0.2-5.5,0.3-8.2c0.2-5.5,0.4-11,0.6-16.4c0.3-10,1.4-19.8,5.5-29.1
	c3.7-8.4,9.8-15.4,17.6-20.2c2.9-1.7,6-3.1,9.2-4c2.9-3,6.7-5,10.8-5.9c5.1-1,10.3-1.1,15.4-0.4c0.2,0,0.2,0.3,0,0.3
	c-4.9-0.6-9.8-0.3-14.5,1c-2,0.6-4,1.3-5.9,2.3c-1.2,0.6-2.3,1.4-3.4,2.2c4.4-0.9,9-0.9,13.3,0.1c1.6,0.4,3.1,0.9,4.6,1.5
	c1.2-0.3,2.4-0.4,3.6-0.3c1.6,0,3.2,0.3,4.7,0.7c3.2,0.9,6.2,2.2,9,3.9c0.1,0.1,0,0.2,0,0.2c0,0-0.1,0-0.1,0
	c-2.7-1.5-5.7-2.6-8.7-3.3c-1.5-0.3-3-0.6-4.5-0.7c-0.8,0-1.7,0-2.5,0c6.2,2.9,11.2,7.9,14.1,14.1c0,0.2-0.2,0.3-0.2,0.1
	c-3.5-7.3-10.1-12.6-18-14.4c-0.5-0.1-1-0.2-1.5-0.3c0.2,0.7,0.1,1.5,0.2,2.2c0.1,1.1,0.3,2.2,0.5,3.3c0.5,2.3,1,4.5,1.8,6.7
	c0.7,2.2,1.6,4.4,2.6,6.5c1,2.2,2.2,4.3,3.7,6.2c0.1,0.1,0.1,0.2,0,0.2c-0.1,0.1-0.2,0.1-0.2,0c0,0,0,0-0.1-0.1
	c-1.3-2-2.8-3.9-4-6.1c-2.3-4.1-4-8.5-4.9-13.2c-0.2-1.2-0.4-2.5-0.6-3.7c-0.2-0.7-0.2-1.5-0.1-2.2c-2.6-0.4-5.2-0.4-7.8-0.2
	c1,5.4,2,11.1,5.1,15.8c0.1,0.2-0.2,0.3-0.3,0.1c-1.4-2.5-2.7-5.1-3.8-7.8c-1-2.6-1.6-5.3-1.9-8.1c-4.5,0.6-8.9,2.1-12.8,4.3
	c-7.5,4.3-13.4,10.9-17.1,18.7c-3.9,8.4-6,17.5-6.3,26.8c-0.7,11.6-0.9,23.3-2,34.9c0,0.8-1.3,1-1.4,0.2
	C148.2,585.7,148.1,583.1,148.3,580.5z"/>
<path class="st18" d="M173.9,504.6c0.7-0.9,1.6-1.7,2.5-2.3c0.9-0.8,1.8-1.5,2.8-2.1c1.9-1.3,4.1-2.3,6.3-2.9c0.2,0,0.2,0.2,0,0.3
	c-2.3,0.6-4.4,1.6-6.2,3c-0.9,0.7-1.8,1.4-2.7,2.2c-0.8,0.8-1.6,1.5-2.5,2.2C174,505.1,173.9,504.9,173.9,504.6z"/>
<path class="st18" d="M209.3,513c1.8,2.1,3.5,4.4,5.1,6.7c1.5,2.4,2.8,4.9,3.8,7.5c0,0,0,0.1-0.1,0c-2.5-5-5.5-9.7-8.9-14.1
	C208.9,513,209.1,512.8,209.3,513z"/>
<path class="st18" d="M185.4,510.7c0.2,1.4,0.7,2.8,1.2,4.1c0.6,1.3,1.3,2.5,2.1,3.6c0,0.1,0,0.2-0.1,0.1c-1.9-2.2-3.1-4.9-3.5-7.8
	c0-0.1,0-0.1,0.1-0.2C185.3,510.6,185.4,510.6,185.4,510.7z"/>
<path class="st6" d="M149.9,520.5c0,0-15.7-19.7-45.9-12.7c-28.8,6.6-42,59.4-13,65.7s24-42.5,34.5-50.8
	C133.3,516.6,144.4,517.9,149.9,520.5z"/>
<path class="st18" d="M80.5,536.6c2-1.7,4.1-3.3,6.2-4.8c2.1-1.4,4.3-2.5,6.6-3.3c1.2-1.8,2.5-3.5,4-5.1c2.7-2.9,5.7-5.3,9.2-7.3
	h-0.9c-1.6-0.1-3.2-0.1-4.8,0c-3.2,0.2-6.4,1-9.3,2.3c-0.2,0-0.3-0.2-0.1-0.3c3-1.3,6.1-2.2,9.3-2.8c1.6-0.3,3.1-0.4,4.7-0.4
	c0.9,0,1.7,0,2.6,0.1h0.5c2.8-1.4,5.7-2.5,8.7-3.2l-0.8-0.2c-1.5-0.3-3-0.6-4.5-0.7c-3-0.3-6.1-0.3-9.1,0.1c-0.2,0-0.2-0.3,0-0.3
	c3-0.4,6.1-0.5,9.2-0.4c2.6,0.1,5.1,0.4,7.6,1c1.8-0.3,3.7-0.6,5.5-0.6c10.5-0.5,22.1,3.5,28.6,12.2s7.8,20.3,8.9,30.7
	c1.8,14.6,2.2,29.3,1.2,44c0,0.9-1.3,0.7-1.3-0.1c-0.4-12.4-0.8-24.9-2-37.3c-0.6-5.7-1.2-11.5-2.1-17.2c-0.7-4.9-2.1-9.6-4.2-14.1
	c-2.2-4.6-5.8-8.4-10.2-11c-4.4-2.5-9.4-4.1-14.5-4.5c-4.6-0.4-9.2,0.1-13.6,1.3c0.2,0.9,0.2,1.8,0.1,2.7c-0.1,1.1-0.3,2.2-0.7,3.3
	c-0.3,1-0.8,2-1.3,3c-0.6,1-1.2,2-1.9,3c-0.1,0.2-0.3,0-0.2-0.2c1.2-1.8,2-3.8,2.3-6c0.2-1,0.3-2,0.4-3.1v-2.3
	c-4.8,1.5-9.3,3.9-13.2,7c-0.7,0.6-1.4,1.2-2.1,1.9c1,0.9,1.9,2,2.6,3.1c1,1.5,1.9,3.1,2.7,4.8c1.4,3.3,2.3,6.9,2.8,10.5
	c0,0.1-0.1,0.2-0.2,0.2s-0.2-0.1-0.2-0.2c-0.6-3.5-1.7-6.9-3.5-10c-0.8-1.5-1.7-3-2.7-4.4c-0.5-0.7-1-1.5-1.6-2.2
	c-0.3-0.4-0.6-0.8-0.9-1.2c-3.6,3.5-6.5,7.6-8.6,12.1l0,0c1.4,1.5,2.6,3.2,3.5,5.1c1.1,1.9,2,3.9,2.8,6c1.5,4.1,2.8,8.2,3.8,12.5
	c0,0.2-0.2,0.2-0.3,0c-0.9-4.2-2.4-8.3-4.3-12.2c-0.9-1.9-1.9-3.8-2.9-5.6c-1.1-1.7-2-3.4-2.8-5.2c-2,4.4-3.2,9.2-3.5,14
	c0,0.1-0.1,0.1-0.2,0.1c0,0,0,0,0,0c0,0-0.1-0.1-0.1-0.1c0.6-7.6,2.9-15,6.8-21.5c-1.9,0.7-3.7,1.5-5.5,2.4
	c-2.3,1.2-4.4,2.7-6.3,4.4C80.6,536.9,80.4,536.7,80.5,536.6z"/>
<path class="st18" d="M102.7,537.8c0.9,3,2.1,5.9,2.9,8.9c0.8,2.9,1.3,5.9,1.3,8.9 M106.8,555.6c-0.8-6.1-2.3-12-4.3-17.8
	c0-0.1,0.1-0.1,0.1-0.1c0.1,0,0.1,0.1,0.1,0.1l0,0L106.8,555.6z"/>
<path class="st18" d="M83.6,530.3c1.2-1.1,2.5-2.1,4-2.9c1.5-0.7,3-1.2,4.6-1.6c0.2,0,0.2,0.2,0,0.3c-1.6,0.4-3.1,1-4.5,1.8
	c-1.4,0.7-2.8,1.6-4.1,2.5C83.6,530.4,83.5,530.4,83.6,530.3C83.5,530.3,83.5,530.3,83.6,530.3L83.6,530.3z"/>
<path class="st17" d="M135,494.2c0,0-2.9-35.4-29.2-46.9c-22-9.6-34.6,15.1-19,30.2C99.3,489.8,119.4,484.2,135,494.2z"/>
<path class="st18" d="M91.6,454.1c4,1.6,7.9,3.5,11.7,5.5c3.1,1.8,6.2,3.8,9.1,6c-0.4-0.9-0.8-1.8-1.2-2.7c-0.7-1.4-1.4-2.7-2.2-4
	c-1.6-2.7-3.6-5.1-5.8-7.4c-0.1-0.1,0.1-0.3,0.2-0.2c2.2,2.2,4.2,4.6,6,7.1c0.9,1.3,1.7,2.6,2.5,4c0.8,1.3,1.4,2.6,1.8,4.1l0.3,0.2
	c4.6,3.7,8.8,7.8,12.6,12.3c0-0.3-0.1-0.7-0.2-1c-0.5-1.8-1-3.5-1.6-5.1c-1.1-3.6-2.6-7-4.6-10.2c-0.1-0.2,0.2-0.3,0.2-0.1
	c2.1,3.2,3.9,6.6,5.5,10.1c0.7,1.7,1.3,3.4,1.8,5.2c0.4,1.1,0.7,2.3,0.8,3.5c1.1,1.5,2.3,2.9,3.4,4.4c11.3,16.1,17,35.5,18.3,55
	c0.4,5.8,0.5,11.6,0.3,17.4c-0.1,5.8-0.6,11.7-1.6,17.5c0,0.4-0.6,0.3-0.6-0.1c0.1-5.1,0.7-10.2,0.8-15.3c0.1-5.1-0.1-10.3-0.5-15.4
	c-0.8-10.2-2.8-20.3-5.7-30.1c-3.1-10-7.6-19.6-13.4-28.3c-1.1-0.2-2.2-0.5-3.3-0.8s-2.6-0.7-3.9-1c-2.5-0.6-4.9-1.6-7.3-2.7
	c-0.2-0.1,0-0.3,0.2-0.2c2.3,1.3,4.8,2.1,7.4,2.6c2.1,0.4,4.2,0.7,6.3,1.2c-1.9-2.8-3.9-5.5-6.1-8c-5,0.5-10.1,0.1-15-1.1
	c-2.6-0.6-5.2-1.4-7.7-2.4c-2.6-1-5.1-2.3-7.7-3.5c-0.2,0,0-0.4,0.1-0.3c4.7,2.6,9.9,4.2,15.2,5c4.7,0.8,9.4,1.1,14.2,1.2
	c-1.9-2.1-3.8-4.2-5.9-6.2c-7-6.6-15.1-12.6-24.2-15.7C91.3,454.4,91.4,454,91.6,454.1z"/>
<path class="st18" d="M113,454.2c1.2,1.5,2.3,3.1,3.3,4.7c1,1.8,1.7,3.6,2.2,5.5c0,0-0.1,0.1-0.1,0c-0.9-1.7-1.6-3.5-2.5-5.2
	c-0.9-1.7-1.9-3.3-3.1-4.8C112.7,454.3,112.8,454,113,454.2z"/>
<path class="st18" d="M88.5,466c1.7,0.9,3.5,1.7,5.4,2.2c1.8,0.6,3.6,1.1,5.5,1.5 M99.4,469.9c-1.9-0.2-3.9-0.6-5.7-1.3
	c-1.8-0.7-3.6-1.5-5.3-2.4c-0.2,0,0-0.3,0.1-0.2L99.4,469.9z"/>
<path class="st6" d="M155.4,487.8c0.2,1.5,4-12.9,26.2-25.6c20.2-11.6,44.3-41.8,24.5-60.8C190.2,386,148,419.5,155.4,487.8z"/>
<path class="st18" d="M140.1,570.3c0.3-15,1.5-29.9,3.5-44.8c1.7-13.7,4.9-27.1,9.4-40.1c1.8-4.7,3.5-9.3,5.6-13.8
	c-0.1-1.7-0.1-3.5,0-5.2c0.1-2.3,0.3-4.5,0.5-6.8s0.4-4.5,0.7-6.8s0.7-4.5,0.8-6.8c0-0.2,0.3-0.2,0.3,0c-0.4,2.4-0.7,4.8-0.8,7.2
	c-0.1,2.2-0.2,4.4-0.2,6.6v9c2.1-4.4,4.3-8.8,6.8-13c-1.5-9.2,0.5-18.9,2.3-27.9c0-0.2,0.3,0,0.3,0.1c-0.9,4.7-1.4,9.5-1.5,14.3
	c-0.1,3.8,0,7.6,0.1,11.4c0.5-0.9,1.1-1.8,1.6-2.7c2.9-4.7,6-9.3,9.2-13.8c-0.3-2.2-0.2-4.4,0.2-6.6c0.4-2.4,0.9-4.8,1.6-7.2
	c0.7-2.4,1.5-4.7,2.5-7s2.2-4.5,3.2-7c0-0.2,0.4,0,0.3,0.1c-1.2,2.2-2.1,4.6-2.8,7c-0.7,2.3-1.3,4.6-1.7,7c-0.5,2.4-0.9,4.7-1.2,7.1
	c-0.2,1.6-0.4,3.2-0.6,4.8c4.8-6.4,10-12.5,15.6-18.1c0.1-0.1,0.3,0,0.2,0.2c-8.5,9.5-16.1,19.8-22.7,30.8c-0.2,0.4-0.5,0.8-0.7,1.2
	c1.2-0.8,2.6-1.4,3.8-2l6.5-3.6l6.3-3.5c1.1-0.6,2.1-1.2,3.2-1.8c1.3-0.6,2.6-1.3,3.8-2.1c0.1,0,0.2,0,0.2,0c0,0.1,0,0.2,0,0.2l0,0
	c-2.1,1.2-4,2.9-6.1,4.2s-4.2,2.6-6.4,3.8c-4,2.2-8.3,3.8-12.2,6.1c-2.7,4.7-5.2,9.6-7.5,14.5c2.4-1.5,4.8-3,7.2-4.3
	c1.6-0.9,3.2-1.8,4.8-2.6c1.6-0.7,3.1-1.7,4.5-2.7c0.1-0.1,0.1,0,0.2,0c0.1,0.1,0,0.1,0,0.2l0,0l0,0c-2.6,2.3-5.5,4.3-8.5,6
	c-2.9,1.6-5.7,3.3-8.7,4.7c-2.4,5.2-4.5,10.5-6.4,16c-9.4,26.5-12.8,54.7-14.5,82.6c-0.5,8.3-0.8,16.7-0.8,25s0.3,16.7,0.3,25
	c0,0.1-0.1,0.2-0.3,0.2c-0.1,0-0.2-0.1-0.2-0.2c-1-7.4-1.2-14.9-1.5-22.4S139.9,577.9,140.1,570.3z"/>
<path class="st18" d="M180.5,450.2c4.1-1.8,8-3.8,11.8-6.1c3.9-2.2,7.6-4.6,11.2-7.1c0,0,0.1,0,0,0.1c-3.4,2.8-7,5.3-10.8,7.5
	c-3.9,2.2-8,4.1-12.2,5.8C180.5,450.6,180.4,450.3,180.5,450.2z"/>
<path class="st18" d="M174.1,420.2c0.3-1.3,0.7-2.6,1.2-3.8c0,0,0-0.1,0-0.1c0,0,0,0,0,0l0,0c0.3-0.7,0.6-1.4,0.9-2.1
	c0-0.1,0-0.2,0.1-0.3l0.2-0.4l0,0l-0.2,0.8c0,0.1-0.1,0.3-0.1,0.4c-1.5,4.9-2.6,10-3.3,15c0,0.2-0.3,0.2-0.3,0
	C172.8,426.4,173.3,423.3,174.1,420.2z"/>
<polygon class="st12" points="116.6,575.7 118.2,594.5 123,651.9 175.1,651.9 180,594.5 181.6,575.7 "/>
<polygon class="st14" points="116.6,575.7 118.2,594.5 180,594.5 181.6,575.7 "/>
<rect x="111.5" y="568.1" class="st12" width="75.2" height="18"/>
<circle class="st12" cx="123.7" cy="97.2" r="65.5"/>
<circle class="st19" cx="123.7" cy="97.2" r="59.9"/>
<path class="st12" d="M129.3,97.2c0-3.1-2.5-5.6-5.6-5.6c-3.1,0-5.6,2.5-5.6,5.6c0,3.1,2.5,5.6,5.6,5.6c0,0,0,0,0,0
	C126.8,102.8,129.3,100.3,129.3,97.2z"/>
<line class="st20" x1="128.3" y1="101.4" x2="137" y2="112.4"/>
<line class="st20" x1="128.3" y1="93.1" x2="153.1" y2="57.8"/>
</svg>
