<?xml version="1.0" encoding="utf-8"?>
<!-- Generator: Adobe Illustrator 27.0.0, SVG Export Plug-In . SVG Version: 6.00 Build 0)  -->
<svg version="1.1" id="Layer_1" xmlns="http://www.w3.org/2000/svg" xmlns:xlink="http://www.w3.org/1999/xlink" x="0px" y="0px"
	 viewBox="0 0 865.8 682.9" style="enable-background:new 0 0 865.8 682.9;" xml:space="preserve">
<style type="text/css">
	.st0{fill:#EBEBEB;}
	.st1{fill:#E6E6E6;}
	.st2{fill:#F0F0F0;}
	.st3{fill:#FAFAFA;}
	.st4{fill:#FFFFFF;}
	.st5{opacity:0.6;}
	.st6{fill:#E0E0E0;}
	.st7{fill:#F5F5F5;}
	.st8{fill:#3F4347;}
	.st9{fill:#2E3135;}
	.st10{fill:none;stroke:#3F4347;stroke-linecap:round;stroke-linejoin:round;}
	.st11{fill:none;stroke:#323232;stroke-miterlimit:10;}
	.st12{fill:#F9B499;}
	.st13{fill:none;stroke:#2E3135;stroke-linecap:round;stroke-linejoin:round;}
	.st14{fill:#E1E1E2;}
	.st15{fill:#9EA0A3;}
	.st16{fill:#2F2E41;}
	.st17{fill:#0071F2;}
	.st18{opacity:0.8;enable-background:new    ;}
	.st19{opacity:0.4;}
	.st20{opacity:0.2;enable-background:new    ;}
	.st21{fill:#F7A48B;}
	.st22{fill:none;stroke:#CCCCCC;stroke-linecap:round;stroke-linejoin:round;}
	.st23{opacity:0.2;}
	.st24{fill:#FF8617;}
	.st25{opacity:0.95;fill:#FFFFFF;enable-background:new    ;}
	.st26{fill:#FF8617;enable-background:new    ;}
</style>
<rect x="11.5" y="592.4" class="st0" width="838.9" height="0.4"/>
<path class="st0" d="M407.9,513.1H64.6c-5.6,0-10.1-4.5-10.1-10.1V20.4c0-5.6,4.6-10,10.1-10.1h343.3c5.6,0,10.1,4.6,10.1,10.2l0,0
	V503C418,508.6,413.4,513.1,407.9,513.1z M64.6,10.7c-5.4,0-9.7,4.3-9.7,9.7V503c0,5.4,4.3,9.7,9.7,9.7h343.3c5.4,0,9.7-4.3,9.7-9.7
	V20.4c0-5.4-4.3-9.7-9.7-9.7H64.6z"/>
<path class="st0" d="M792.4,513.1H449.1c-5.6,0-10.1-4.5-10.1-10.1V20.4c0.1-5.6,4.6-10.1,10.1-10.1h343.3c5.6,0,10.1,4.5,10.1,10.1
	V503C802.5,508.6,798,513.1,792.4,513.1z M449.1,10.7c-5.4,0-9.7,4.3-9.7,9.7V503c0,5.4,4.4,9.7,9.7,9.7h343.3
	c5.4,0,9.7-4.3,9.7-9.7V20.4c0-5.4-4.3-9.7-9.7-9.7H449.1z"/>
<rect x="730.2" y="609.3" class="st0" width="56.1" height="0.4"/>
<rect x="523.3" y="604.5" class="st0" width="59.4" height="0.4"/>
<rect x="691.6" y="625.8" class="st0" width="111" height="0.4"/>
<rect x="79.8" y="622.8" class="st0" width="34.2" height="0.4"/>
<rect x="129.8" y="622.8" class="st0" width="53.9" height="0.4"/>
<rect x="323.6" y="615.3" class="st0" width="97" height="0.4"/>
<rect x="479.4" y="74.8" class="st1" width="263.8" height="278.4"/>
<path class="st1" d="M451.1,65.8h309.1c1.4,0,2.6,1.2,2.6,2.6l0,0c0,1.4-1.2,2.6-2.6,2.6H451.1c-1.4,0-2.6-1.2-2.6-2.6l0,0l0,0
	C448.5,66.9,449.7,65.8,451.1,65.8L451.1,65.8L451.1,65.8z"/>
<rect x="468.2" y="74.8" class="st2" width="269.7" height="278.4"/>
<rect x="479.4" y="353.2" class="st1" width="263.8" height="10.4"/>
<rect x="449.6" y="353.2" class="st2" width="269.8" height="10.4"/>
<rect x="483.9" y="90.5" class="st3" width="238.4" height="247"/>
<polygon class="st4" points="668.2,337.5 576.2,90.5 532.8,90.5 624.8,337.5 "/>
<polygon class="st4" points="615.4,337.5 523.5,90.5 506.5,90.5 598.5,337.5 "/>
<rect x="483.9" y="90.5" class="st1" width="2" height="247"/>
<g class="st5">
	<polygon class="st2" points="545.8,312.9 456.1,312.9 461.2,60.8 551,60.8 	"/>
	<polygon class="st1" points="580.8,312.9 510.9,312.9 516,60.8 585.9,60.8 	"/>
	<polygon class="st2" points="635.6,312.9 545.8,312.9 551,60.8 640.7,60.8 	"/>
	<polygon class="st1" points="670.6,312.9 600.7,312.9 605.8,60.8 675.7,60.7 	"/>
	<polygon class="st2" points="725.4,312.9 635.6,312.9 640.7,60.8 730.5,60.7 	"/>
</g>
<rect x="138.8" y="46.6" class="st0" width="240" height="267.8"/>
<rect x="378.8" y="46.6" class="st6" width="2.2" height="267.8"/>
<rect x="156.6" y="64.3" class="st7" width="204.4" height="232.3"/>
<rect x="266.3" y="223.8" class="st4" width="57.6" height="80.6"/>
<polygon class="st4" points="197.1,311.4 254.6,311.4 258.8,230.8 201.2,230.8 "/>
<polygon class="st4" points="146.9,211.6 204.5,211.6 208.6,131 151,131 "/>
<rect x="315.5" y="86" transform="matrix(4.379379e-02 -0.999 0.999 4.379379e-02 223.378 449.6094)" class="st4" width="62" height="44.3"/>
<rect x="139.4" y="61.1" transform="matrix(4.379379e-02 -0.999 0.999 4.379379e-02 79.7966 249.8181)" class="st4" width="62" height="44.3"/>
<rect x="315.6" y="158.3" transform="matrix(1.326415e-02 -0.9999 0.9999 1.326415e-02 161.4902 524.6661)" class="st4" width="62" height="44.3"/>
<rect x="219.4" y="75.7" transform="matrix(0.9996 -2.896841e-02 2.896841e-02 0.9996 -3.9844 7.7746)" class="st4" width="93.9" height="131.4"/>
<rect x="97.6" y="346.4" class="st2" width="98.7" height="246"/>
<rect x="103" y="352.5" class="st1" width="87.9" height="72.4"/>
<rect x="103" y="431.5" class="st1" width="87.9" height="72.4"/>
<rect x="103" y="510.4" class="st1" width="87.9" height="72.4"/>
<rect x="103" y="352.5" class="st6" width="34.6" height="72.4"/>
<rect x="103" y="431.5" class="st6" width="34.6" height="72.4"/>
<rect x="103" y="510.4" class="st6" width="34.6" height="72.4"/>
<rect x="196.2" y="346.4" class="st7" width="26.8" height="246"/>
<rect x="203.1" y="346.4" class="st2" width="98.7" height="246"/>
<rect x="208.5" y="352.5" class="st1" width="87.9" height="72.4"/>
<rect x="208.5" y="431.5" class="st1" width="87.9" height="72.4"/>
<rect x="208.5" y="510.4" class="st1" width="87.9" height="72.4"/>
<rect x="208.5" y="352.5" class="st6" width="34.6" height="72.4"/>
<rect x="208.5" y="431.5" class="st6" width="34.6" height="72.4"/>
<rect x="208.5" y="510.4" class="st6" width="34.6" height="72.4"/>
<rect x="301.8" y="346.4" class="st7" width="26.8" height="246"/>
<path class="st2" d="M175,489.6c0,7.9-10.2,14.2-22.7,14.2s-22.6-6.4-22.6-14.2H175z"/>
<path class="st2" d="M175,479c0,7.9-10.2,14.2-22.7,14.2s-22.7-6.4-22.7-14.2H175z"/>
<path class="st3" d="M283.4,410.7c0,7.9-12.7,14.2-28.4,14.2s-28.4-6.4-28.4-14.2H283.4z"/>
<path class="st3" d="M283.4,400.1c0,7.9-12.7,14.2-28.4,14.2s-28.4-6.4-28.4-14.2H283.4z"/>
<rect x="214.5" y="520.8" class="st2" width="71.3" height="62"/>
<rect x="285.8" y="520.8" class="st6" width="10.6" height="62"/>
<rect x="108.9" y="363" class="st2" width="71.3" height="62"/>
<rect x="180.3" y="363" class="st6" width="10.6" height="62"/>
<rect x="462.3" y="462.2" class="st1" width="13.9" height="130.2"/>
<rect x="458.6" y="462.2" class="st2" width="8.2" height="130.2"/>
<rect x="456.1" y="462.2" class="st2" width="196.6" height="14.4"/>
<rect x="740.5" y="462.2" class="st1" width="13.8" height="130.2"/>
<rect x="737.9" y="462.2" class="st2" width="8.2" height="130.2"/>
<rect x="658.5" y="462.2" class="st1" width="98.3" height="14.4"/>
<rect x="653.8" y="462.2" class="st1" width="13.8" height="130.2"/>
<rect x="650.1" y="462.2" class="st2" width="8.2" height="130.2"/>
<rect x="249.2" y="510.5" class="st8" width="22.4" height="29.5"/>
<path class="st9" d="M259.2,533.7h0.8c10.2,0,18.4,8.2,18.4,18.4l0,0l0,0h-37.7l0,0l0,0C240.8,541.9,249,533.7,259.2,533.7z"/>
<path class="st8" d="M158.1,580v19h9v-13.2l86.3-28.9L305,586v12.4h7.6v-23.9l40.2,11.8l0.3,12.1h7.9v-18.2L272.8,545
	c-4.6-1.8-9.6-2.8-14.6-2.8l0,0c-5.1,0-10.2,1-14.9,2.9L158.1,580z"/>
<polygon class="st9" points="221.8,595 221.8,580 236.9,562.3 253.4,556.8 261.8,561.3 229.4,586.5 229.4,596.3 "/>
<circle class="st9" cx="225.5" cy="608.9" r="15"/>
<circle class="st9" cx="164.7" cy="608.9" r="15"/>
<circle class="st9" cx="310.5" cy="608.9" r="15"/>
<circle class="st9" cx="355.5" cy="608.9" r="15"/>
<path class="st10" d="M163.9,595.5c3.4,1.3,6.1,4.1,7.2,7.7c2.3,6.8-1.4,14.2-8.3,16.4c-0.8,0.3-1.7,0.5-2.6,0.6H160"/>
<path class="st10" d="M226.8,596.3c3.4,1.3,6.1,4.2,7.2,7.7c2.3,6.8-1.4,14.2-8.3,16.4c-0.8,0.3-1.7,0.5-2.6,0.6h-0.3"/>
<path class="st10" d="M312.1,596c3.4,1.3,6.1,4.1,7.2,7.7c2.3,6.8-1.4,14.2-8.3,16.4c-0.8,0.3-1.7,0.5-2.6,0.6h-0.3"/>
<path class="st11" d="M356.3,596c3.4,1.3,6.1,4.1,7.2,7.7c2.3,6.8-1.4,14.2-8.3,16.4c-0.8,0.3-1.7,0.5-2.6,0.6h-0.3"/>
<path class="st12" d="M352.3,514.5l-11.5,27.5c-1.3,3-2,6.3-2.1,9.6l-1.4,54.2c-5-5.9-9.7-14.3-12.5-19.6c-1.6-3-2.5-6.3-2.8-9.8
	c-1.9-19.5-10.7-39.1-11.2-40.3l0.2-0.2l0,0c2.1-0.9,3.7-2.8,4.1-5.1l3.5-17.7L352.3,514.5z"/>
<path d="M335.5,623.4c-11-12.5-20.6-26.3-28.4-41c3.7-15.3-1.3-22.4-1.3-22.4l-7.1-15l12.1-8.9c0.5,1.2,9.4,20.8,11.2,40.3
	c0.3,3.4,1.3,6.7,2.8,9.8c2.8,5.3,7.5,13.8,12.5,19.6C342,622.3,335.5,623.4,335.5,623.4z"/>
<path class="st1" d="M335.5,623.4c-12.9,6.3-45.5-62.1-45.5-62.1c-5.8-11.6,8.7-16.3,8.7-16.3l7.1,15c0,0,4.4,6.3,1.9,19.7
	c-0.4,1.8-0.1,3.7,0.8,5.3C316.1,598.7,325.2,611.5,335.5,623.4z"/>
<path d="M489.1,620.5l-47.5-0.2c-2.6,0-5.1-1-6.9-2.8l-5.3-5.1c-1.6-1.6-3.8-2.5-6-2.7l-22-1.6l-1.3-17.4l13.7,0.5
	c12.4,1.6,18.9,7.6,18.9,7.6c6.5,4.8,13.6,8.9,21,12.1h16.6c1.5-0.1,2.9-0.1,4.4,0l0,0C486.4,611.8,489.1,620.5,489.1,620.5z"/>
<path class="st1" d="M489.1,620.5c0,4.2-5.3,3.7-5.3,3.7l-47.6,1.8c-19.2,0.2-27.8-1.6-31.7-3.1c-1.8-0.7-3.1-2.4-3.1-4.4l-0.2-10.4
	l22,1.6c2.3,0.2,4.4,1.1,6,2.7l5.3,5.1c1.9,1.8,4.4,2.8,6.9,2.8L489.1,620.5z"/>
<path class="st12" d="M474.5,611c-1.5-0.1-2.9-0.1-4.4,0h-16.6c-7.5-3.2-14.5-7.3-21-12.1c0,0-6.6-6.1-18.9-7.6l-13.7-0.5v-5.5
	l-25.5-72.1l37.9,0.5l16,66.8L474.5,611z"/>
<path class="st8" d="M145.2,315.6c0,0-33.9-90.6-31.3-110.9c0,0,26.3-20,108.1-8.1l30.3,118.7L145.2,315.6z"/>
<path class="st13" d="M122.4,208.7c0,0,12.4,7.1,25.5,42.1l22.9,64.5"/>
<rect x="116.3" y="507.9" class="st14" width="4.7" height="113.4"/>
<rect x="132.6" y="507.9" class="st14" width="4.7" height="113.4"/>
<rect x="753.3" y="507.9" class="st14" width="4.7" height="113.4"/>
<rect x="769.6" y="507.9" class="st14" width="4.7" height="113.4"/>
<rect x="116.3" y="325.3" class="st15" width="658" height="191.3"/>
<path class="st12" d="M362.6,294.5l6-1L365,310l-4.5,0.3C360.5,310.3,359.3,303.8,362.6,294.5z"/>
<path class="st16" d="M380.9,235.2L365,310l-31.8,1.1v4.6h133.3l12.5-78c0.3-2.1-1.1-4-3.1-4.3c-0.2,0-0.4,0-0.5,0l-90.7-1.2
	C382.8,232.1,381.2,233.4,380.9,235.2z"/>
<path class="st17" d="M273.3,208.1c0,0,13.5,4.8,23.3,28.3l17.4,43.2c0,0,38.4,8.4,39.2,12.4c0,0,11.3-1.8,9.5,2.6
	c-1.4,5.2-2.1,10.5-2.1,15.8l-16.3,0.5l-50.8-3.2c0,0-10.3-7.1-6.6-34.5l-0.8-0.5c4.1-9.1,4.7-19.5,1.6-29c0,0-6.5-11.9-7.1-22.1
	C279.4,216.5,276.9,211.8,273.3,208.1z"/>
<path class="st18" d="M273.3,208.1c0,0,13.5,4.8,23.3,28.3l17.4,43.2c0,0,38.4,8.4,39.2,12.4c0,0,11.3-1.8,9.5,2.6
	c-1.4,5.2-2.1,10.5-2.1,15.8l-16.3,0.5l-50.8-3.2c0,0-10.3-7.1-6.6-34.5l-0.8-0.5c4.1-9.1,4.7-19.5,1.6-29c0,0-6.5-11.9-7.1-22.1
	C279.4,216.5,276.9,211.8,273.3,208.1z"/>
<g class="st19">
	<path d="M313.9,280c-0.1,0-0.2,0-0.2-0.1c0,0-5.7-3.6-8.9-2.8c-0.2,0.1-0.5-0.1-0.5-0.3c0,0,0,0,0,0c-0.1-0.2,0.1-0.5,0.3-0.5
		c3.6-0.8,9.3,2.8,9.5,3c0.2,0.1,0.3,0.4,0.2,0.6c0,0,0,0,0,0C314.2,279.9,314,280,313.9,280z"/>
</g>
<g class="st19">
	<path d="M348.6,308.9L348.6,308.9c-0.2,0-0.4-0.3-0.4-0.5c1.6-15.4,4.5-16.8,4.8-17c0.2-0.1,0.5,0,0.6,0.2c0,0,0,0,0,0
		c0.1,0.2,0,0.5-0.2,0.6c-0.1,0-2.7,1.7-4.2,16.2C349.1,308.7,348.9,308.9,348.6,308.9z"/>
</g>
<rect x="104.2" y="315.8" class="st14" width="684.2" height="16.3"/>
<path class="st8" d="M676.5,285.5h55.3c1.7,0,3.1,1.4,3.1,3.1c0,0.2,0,0.3,0,0.5L718,390.8l-4.7,27.1c0,0-2.6,26.3-33.2,37.6
	l48.2,199.2l-8.4,0.3l-47.6-195.8c0,0-14.2,1.6-24.7,1.6c0,0-6-1.9-8.4,11.6l-44.7,182.1h-6.8l43.9-186.8c0,0,1.3-15,16-15h-91.8
	l48.1,202.1H597l-50.8-196.5c0,0-23.9-2.6-27.6,8.7l-44.2,186.5h-8.2l43.9-185.5c0,0,0.5-12.1,14.2-15h-16.1v-17.1l172.6-0.5
	c0,0,8.2-2.4,8.2,6.6c0,0,18.2-5.3,20.5-51.3h-18.9l-14.8-28.2L676.5,285.5z"/>
<polygon class="st16" points="727.5,333.7 738.5,471.6 730.1,472.4 721.5,369.7 "/>
<polygon class="st20" points="727.5,333.7 738.5,471.6 730.1,472.4 721.5,369.7 "/>
<path class="st17" d="M446.5,291.1c0,0-2.8,0.9-2,7.6c0,0,2.8-0.8,4.5-1.6C448.4,295,447.6,292.9,446.5,291.1z"/>
<path class="st20" d="M446.5,291.1c0,0-2.8,0.9-2,7.6c0,0,2.8-0.8,4.5-1.6C448.4,295,447.6,292.9,446.5,291.1z"/>
<path class="st12" d="M585.7,166.7L585.7,166.7c11.2-3.6,23.1,2.6,26.7,13.8l6.2,19.5c3.6,11.2-2.6,23.1-13.8,26.7l0,0
	c-11.2,3.6-23.1-2.6-26.7-13.8l-6.2-19.5C568.3,182.2,574.5,170.3,585.7,166.7z"/>
<path class="st16" d="M573.6,176.6c0,0,3.7,6,12.6,5c0,0,6.8,5.5,18.7,4.5c0,0,3.2,5.8,6.6,5.3L619,202l9.6,20.1
	c0,0,23.4-11.3,17-27.3c-0.8-2-2.2-3.8-3.9-5.1c-3-2.2-5.4-5.2-6.8-8.7c0,0-3.4-17.1-19.7-19.5c0,0-6.8-15.3-17.9-5.3
	c0,0-8.7-3.1-17.1,5.8c0,0-2.4,3.2-8.9,6.3c0,0-10.4,3.1-6.2,19.3c0.5,2,1.3,3.9,2.2,5.7c1,2.4,1.4,5,1.2,7.6
	c0,0-3.7,37.4,20.8,35.8c5.7-0.5,11.2-1.8,16.6-3.7l-2-6.2c0,0-6.1,2.1-14.2-1.3c0,0-9-4-11.4-12.8l-6.2-19.5
	C571.9,193.4,568.8,184.5,573.6,176.6z"/>
<path class="st16" d="M579.1,239.9c-0.1,0-0.1,0-0.2,0c-6.2-2.4-10.8-8-13.2-16.1c-1.1-3.8-1.8-7.6-1.9-11.6l0,0
	c1.2-11.4-2-18.8-2-18.9s0,0,0,0c-2.4-8.2-1.1-13.4,0.4-16.4c0.9-1.9,2.3-3.4,4.1-4.5c0.2-0.1,0.5-0.1,0.6,0.1
	c0.1,0.2,0.1,0.4-0.1,0.5c0,0,0,0,0,0c-1.6,1-2.9,2.5-3.8,4.2c-1.5,2.8-2.7,7.8-0.3,15.7c0.2,0.5,3.2,7.9,2.1,19.2
	c0,0.7,0.3,21.3,14.6,26.9c0.2,0.1,0.3,0.3,0.2,0.5c0,0,0,0,0,0C579.4,239.9,579.2,239.9,579.1,239.9z"/>
<path class="st12" d="M619.1,202.1l11,23.2c-11,14.4-22.9,13.7-22.9,13.7l-3.5-12c0,0,10.9-1.9,14.8-14.3
	C619.7,209.3,619.9,205.6,619.1,202.1z"/>
<path class="st21" d="M603.7,227l2.4,8.7c0,0,16.1-6.7,11.9-21.4C615.5,220.5,610.2,225.2,603.7,227z"/>
<path class="st1" d="M605.9,234.7l-4.9,2.7c0,0,5.5,43.9,20,78.9c0,0,4.7-72.9,16.3-90.8c-2.4-0.9-5-1.3-7.6-1.3l0.5,1.1
	c0,0-8.4,12.9-22.9,13.7L605.9,234.7z"/>
<path class="st22" d="M602.6,246.9l3.3,2c0.7,0.4,1.7,0.2,2.1-0.5c0,0,0,0,0,0l5.5-9.2l7.2,5.6c0.7,0.6,1.8,0.6,2.5,0l9-6.9"/>
<path class="st4" d="M692.8,382.1c0,0,10,18.1-1,32.6c0,0,5.3-26-17.1-33.1c-9.8-3.9-20.5-5.4-31-4.2l-28.4,1c0,0-2.1,0.8-1.8-1.6
	c0,0,7.9,0,4.7-18.4c0,0-1.3-16.3-18.4-14.5l-1-7.6l-13-19.1c-2.1-3.2-3.5-6.8-4-10.5l-0.6-4.2l-39.2,13.7l-90.5-0.3v-0.1
	c0-1.2-0.3-10.8-2.4-18.6c-0.5-2.1-1.3-4.1-2.3-6l65.3-6.6l89-47.1c0,0,5.3,42.4,20,78.9c0,0,4.5-70.8,16.3-90.8
	c0,0,25.5,7.1,30.3,11.8c0,0,14.7,13.9,22.1,43.9l10.8,45.5c0,0,5,23.7-15.5,32.4C684.9,359.2,684.3,367.9,692.8,382.1z"/>
<g class="st23">
	<path d="M609.6,343c-0.1,0-0.1,0-0.1-0.1c0-0.1,0-0.1,0.1-0.2c0,0,0,0,0,0l63.9-20c0.1,0,0.1,0,0.2,0.1c0,0.1,0,0.1-0.1,0.2
		c0,0,0,0,0,0L609.6,343L609.6,343z"/>
</g>
<g class="st23">
	<path d="M659.1,327.4c-0.1,0-0.1-0.1-0.1-0.1l0,0l-1.3-50.4c0-0.1,0.1-0.1,0.1-0.1c0.1,0,0.1,0.1,0.1,0.1l0,0l1.3,50.4
		C659.2,327.4,659.2,327.4,659.1,327.4C659.1,327.4,659.1,327.4,659.1,327.4L659.1,327.4z"/>
</g>
<g class="st23">
	<path d="M652.3,259.4L652.3,259.4c-0.1,0-0.1-0.1-0.1-0.1c0-0.2,1.3-16.3,9.3-25.4c0-0.1,0.1-0.1,0.2,0c0.1,0,0.1,0.1,0,0.2l0,0
		c-7.9,9-9.3,25.1-9.3,25.2C652.4,259.3,652.3,259.4,652.3,259.4z"/>
</g>
<g class="st23">
	<path d="M639.3,252.3l7.1-5.4c1.6-1.2,2.2-3.3,1.6-5.2l-4.8-14.3c0-0.1-0.1-0.1-0.2-0.1c0,0,0,0,0,0c-0.1,0-0.1,0.1-0.1,0.2
		l4.8,14.3c0.6,1.8,0,3.7-1.5,4.9l-7.1,5.5c0,0-0.1,0-0.2,0c0,0,0,0.1,0,0.1L634,256c0,0-0.1,0.1,0,0.2c0,0,0,0,0,0c0,0,0.1,0,0.1,0
		c0,0,0.1,0,0.1,0l4.9-3.7l7.3,9c0,0,3.3,4.3-1.3,13.8c-0.1,0.3-14.5,29.8-17.1,55.3c0,0.1,0,0.1,0.1,0.1c0,0,0,0,0,0l0,0
		c0.1,0,0.1-0.1,0.1-0.1c2.6-25.5,17-54.9,17.1-55.2c4.7-9.7,1.4-13.9,1.3-14.1L639.3,252.3z"/>
	<path d="M592.3,282.8c-0.9-1.3-1.1-2.9-0.5-4.3L597,264l4.4,2.2h0.1c0,0,0.1,0,0.1-0.1c0-0.1,0-0.1,0-0.2c0,0,0,0,0,0l-4.4-2.2l0,0
		c0-0.1,0-0.1-0.1-0.2c-0.1,0-0.1,0-0.1,0c0,0,0,0,0,0l-5.2-2.6c-1-0.5-1.6-1.6-1.4-2.7l2.6-17c0-0.1,0-0.1-0.1-0.1
		c-0.1,0-0.1,0-0.1,0.1l-2.6,17c-0.2,1.2,0.4,2.4,1.5,3l5.2,2.6l-5.3,14.5c-0.6,1.5-0.4,3.3,0.6,4.6l26,35.5c0,0,0.1,0.1,0.1,0.1
		c0,0,0.1,0,0.1,0c0-0.1,0-0.1,0-0.2L592.3,282.8z"/>
</g>
<g class="st23">
	<path d="M598.6,336.5c0,0-0.1,0-0.1-0.1l-13-19.1c-4.3-6.2-4.6-14.8-4.6-14.9l0,0l4.5-23.9c0-0.1,0.1-0.1,0.1-0.1c0,0,0,0,0,0
		c0.1,0,0.1,0.1,0.1,0.2l-4.5,23.9c0,0.4,0.3,8.7,4.5,14.7l13,19.1c0,0.1,0,0.1,0,0.2L598.6,336.5z"/>
</g>
<g class="st23">
	<path d="M580.4,271.5c-0.1,0-0.1,0-0.1-0.1c-1.8-7.3-9.4-18.1-9.5-18.2c0-0.1,0-0.1,0-0.2c0.1,0,0.1,0,0.2,0l0,0
		c0.1,0.1,7.7,11,9.5,18.3C580.6,271.4,580.5,271.4,580.4,271.5L580.4,271.5z"/>
</g>
<path class="st20" d="M618.6,375.3c0,0,56-11.6,66.3-16c0,0-0.6,6.7,5,17.6c0,0-13.7-5.5-39.7-2.8L618.6,375.3z"/>
<g class="st23">
	<path d="M515.2,288.8c-0.1,0-0.1-0.1-0.1-0.1c0,0,0,0,0,0c0-1-0.4-1.9-1.1-2.6c-2.3-1.9-7.2-1.1-7.2-1.1c-0.1,0-0.1,0-0.1-0.1
		c0,0,0,0,0,0c0-0.1,0-0.1,0.1-0.1c0,0,0,0,0,0c0.2,0,5.1-0.8,7.4,1.2c0.8,0.7,1.3,1.7,1.2,2.8C515.3,288.8,515.3,288.8,515.2,288.8
		C515.2,288.8,515.2,288.8,515.2,288.8z"/>
</g>
<path class="st16" d="M691.7,414.7c-0.8,17.1-10.8,20.5-10.8,20.5c-40,0.5-69.2,3.7-69.2,3.7l-3.2,92.3l-32.4,4.7l-7.2,27.8
	c-0.4,1.7-2.2,2.8-3.9,2.3c-0.2,0-0.4-0.1-0.6-0.2l-1.7-0.8l-26.8-12.5c-1.2-0.6-2.4-1.1-3.6-1.5c-1-0.3-2-0.6-3-0.8
	c-5.8-1.1-11.3-3.4-16.2-6.8c-1.1-0.8-1.7-2.3-1.4-3.7l17.5-93.9c7.9-48.9,23.4-46,23.4-46c-4.2-50.8,23.7-51.6,23.7-51.6l30.3,8
	l6.6,20.5c-0.3,2.6,1.8,1.6,1.8,1.6l28.4-1c19.7-1.8,31,4.2,31,4.2C697.5,389.5,691.7,414.7,691.7,414.7z"/>
<path class="st12" d="M559.4,589.2c0.9,3.1,1.4,6.2,1.6,9.4l0,0l-1.6,1.4c-1.9-8.8-8.3-9.6-8.3-9.6c-7.1-1.8-10.5,1.7-11.9,4.5
	c-0.4,0.9-0.8,1.9-1,2.8c0,0.2,0,0.3-0.1,0.5c-4.2,10-6.8-0.8-6.8-0.8V597l1.3-45.7c1.2,0.4,2.4,0.9,3.6,1.5l26.8,12.5
	c-1.9,4.3-3.3,12.3-4,17.1C558.6,584.6,558.7,587,559.4,589.2z"/>
<path class="st12" d="M561,598.6l-1.8,1.6c-1.8-8.9-8.7-9.2-8.7-9.2c-6.8-1.1-9.9,1.5-11.3,3.8c1.5-2.8,4.8-6.2,11.9-4.5
	c0,0,6.4,0.8,8.3,9.6L561,598.6z"/>
<path d="M566.7,634.7c-0.3,11.4-14.5,11.7-14.5,11.7c-13.6,1.5-22-1.2-25.4-2.7c-1.1-0.5-1.9-1.6-1.8-2.9c0.4-6.4,1.5-12.8,3.2-19.1
	c1.5-8.2,2.5-16.4,2.9-24.7c0,0,0.1-0.1,0.1,0l0,0c0,0.2,0,0.5,0.1,0.7c0.5,1.7,2.9,9,6.5,1.1c0.2-0.4,0.3-0.7,0.3-1.1l0,0
	c0-0.2,0.1-0.3,0.1-0.5c0.2-0.8,0.5-1.6,0.9-2.4c1.5-2.8,4.8-6.2,11.9-4.5c0,0,6.4,0.8,8.3,9.6l1.6-1.3l0,0l0,0
	C564.2,609,566.7,634.7,566.7,634.7z"/>
<path class="st1" d="M567,644.3c-1.7,4-5.1,7-9.2,8.2c-14.2,4.4-29.1-0.9-29.1-0.9c-7-3.6-3.7-10.8-3.7-10.8
	c-0.1,1.2,0.7,2.4,1.8,2.9c3.5,1.5,11.8,4.2,25.4,2.7c0,0,14.2-0.3,14.5-11.7C568.2,637.7,568.3,641.2,567,644.3z"/>
<path d="M754.1,521.8c0,0-4.5,10-55,18.7l-29.7,5.8h-0.2c-1.1-0.2-7.6-2.1-9.1-25.8c0,0,0-27.9,1.5-38.9c0.2-1.1,1-2,2.1-2.2
	l65-13.6c0,0,8.4-3.1,13.7,13.7L754.1,521.8z"/>
<path class="st11" d="M669.4,546.3L669.4,546.3z"/>
<path class="st20" d="M663.3,485.8c0,0,2.7,26.7,6.1,38.8c1,3.5,4.3,5.9,7.9,5.8c6.9-0.2,21.1-1.7,43.5-8.2l16.6-4.2
	c0,0,9.2-2.9,8.7-9.7l0.8-9.7c0,0,2.5,9.3,1.5,15.7c-0.4,2.5-2.2,4.6-4.6,5.6c-7.5,2.9-31.5,11-71.1,15.5c0,0-7.4,2.4-9.2-13.4
	C663.6,521.8,662,493.1,663.3,485.8z"/>
<path d="M222.3,198.2l-0.5,1.8c0,0,16.6,10.5,33.9,32.6l15.5,19.2c0,0-3.3-20.7-4-25.1l-7.8-25.9c-2.7-1.8-5.6-3.3-8.6-4.6
	l-21.4,0.6L222.3,198.2z"/>
<path class="st4" d="M271.3,251.9l-4-25.1l-7.8-25.9c19.2,4.2,21,20.8,21,20.8c2.9,14.2,7.1,22.1,7.1,22.1c4.3,8.3,2.4,19,0.7,25
	c-1.7,6.2-2.5,12.7-2.1,19.1c0.9,15.4,7.2,19.9,7.2,19.9l-48.9,0.8l-31-32.6c19.5-9.8,16.9-28.2,14.4-36.7c-0.9-2.9-2.6-6.2-3.5-9.1
	c-4.7-16.5-14.1-24-14.1-24l11.5-6.1c9.3,6.5,17.8,14.1,25.4,22.5c0,0,6.3,6.9,19.4,23.5L271.3,251.9z"/>
<path class="st17" d="M210.2,206.1c0,0-9.2-3.2-18.9,21c0,0-14,38.7-13.7,73.1c0,0-2.9,20.5,14.5,16.6c0,0,52.1-4.7,58.7-13.7
	l6.3-2.1c0,0-4.2-5.5-1.8-22.9c0,0,0.3-6.8,3.4-8.7c0,0-6-1.8-12.6,3.9c0,0-14.2-1.8-32.6,2.4c0,0,22.8-8.9,14.3-37
	c-0.8-2.5-1.5-5-2.1-7.6C224.2,225.3,220.2,213.2,210.2,206.1z"/>
<path class="st18" d="M255.2,278.2c-0.6,4.2-0.8,8.5-0.6,12.8c0.4,7.5,2.5,10.1,2.5,10.1l-6.3,2.1c-6.6,8.9-58.7,13.7-58.7,13.7
	c-17.4,4-14.5-16.6-14.5-16.6c-0.3-34.5,13.7-73.1,13.7-73.1c9.7-24.2,18.9-21,18.9-21c10,7.1,14,19.2,15.4,25.1
	c0.6,2.6,1.3,5.1,2.1,7.6c8.5,28.1-14.3,37-14.3,37c18.4-4.2,32.6-2.4,32.6-2.4c6.6-5.8,12.6-4,12.6-4
	C255.5,271.3,255.2,278.2,255.2,278.2z"/>
<path class="st17" d="M257.1,301.1c0,0,3.4,0,3.4-10.8l-5.8,0.7C254.6,294.5,255.4,298,257.1,301.1z"/>
<path class="st18" d="M257.1,301.1c0,0,3.4,0,3.4-10.8l-5.8,0.7C254.6,294.5,255.4,298,257.1,301.1z"/>
<g class="st19">
	<path d="M245.8,294.1c-0.2,0-0.4-0.2-0.4-0.4c-2.1-12.3,0.2-20.1,0.3-20.5c0.1-0.2,0.3-0.4,0.6-0.3c0.2,0.1,0.4,0.3,0.3,0.6
		c0,0.1-2.3,8-0.2,20.1C246.2,293.9,246.1,294.1,245.8,294.1C245.8,294.1,245.8,294.1,245.8,294.1L245.8,294.1z"/>
</g>
<path class="st21" d="M289.6,265.1c0,0,8-1.4,8.5,2c0,0,0.3,3.1-2.2,4.2C295.9,271.3,294.4,268.1,289.6,265.1z"/>
<path class="st16" d="M266.1,249L266.1,249c0.9-1,2.5-1.2,3.5-0.2l33.7,29.3l0,0l-3.3,3.8l0,0l-33.7-29.3
	C265.3,251.6,265.2,250,266.1,249z"/>
<polygon class="st16" points="305.2,283.4 303.3,278.1 300.1,281.9 "/>
<path class="st12" d="M451.2,315.7l-41-0.1c-1.5-0.6-2.2-2.2-1.7-3.7c0.1-0.1,0.1-0.3,0.2-0.4c-7.1-4.3-3.9-9.2-3.9-9.2
	c-3.9-4.2,1.4-6.8,1.4-6.8c12.7-6.2,13.4-1.7,13.4-1.7c6.9-2.8,16.5,3,16.5,3c5.5,3.6,11.4,1,12.5,0.4
	C450.9,304.8,451.2,314.4,451.2,315.7z"/>
<path class="st24" d="M397.5,271.4l19.8,39.7l3.4-1L401,269.6c-0.5-0.9-1.6-1.4-2.6-1l0,0C397.4,269.1,397,270.3,397.5,271.4
	C397.5,271.3,397.5,271.4,397.5,271.4z"/>
<g class="st19">
	<path d="M213.4,276.3c-0.1,0-0.2,0-0.3-0.1c-0.2-0.2-0.2-0.4-0.1-0.6c6.6-7.9,1.3-39.3,1.2-39.6c0-0.2,0.1-0.5,0.4-0.5c0,0,0,0,0,0
		c0.2,0,0.5,0.1,0.5,0.4c0.2,1.3,5.5,32.1-1.4,40.4C213.7,276.2,213.5,276.3,213.4,276.3z"/>
</g>
<g class="st19">
	<path d="M199.2,282.3c-0.2,0-0.4-0.1-0.4-0.3c-0.1-0.2,0-0.5,0.2-0.6c0,0,0,0,0,0l14.4-5.1c0.2-0.1,0.5,0,0.6,0.3
		c0.1,0.2,0,0.5-0.3,0.6l-14.4,5.1C199.3,282.3,199.2,282.3,199.2,282.3z"/>
</g>
<ellipse class="st12" cx="617.9" cy="193.6" rx="6.5" ry="8.8"/>
<path class="st12" d="M599.6,344c0,0-25-2.6-23.7,6c0,0-16,5.8-13.4,14.5c0,0-5.5,4.5-3.2,8.2c0,0,1,2.9,8.2-0.5l15.8-6.6l-15.8,9.4
	c0,0-3.2,3.2,0.8,5c0,0,3.2,1.6,10-3.2c0,0,9.7-6.3,14.7-5.3c0,0,1.3,1.8-2.9,3.7c0,0-11,5-8.2,8.7c0,0,2.4,2.6,10.5-2.4l15-11.3
	l11.3-3.9c0,0,0-14.2-5.4-18.1C613.4,348.3,608.8,342.4,599.6,344z"/>
<path class="st21" d="M601.5,370.4L601.5,370.4c-0.1,0-0.1-0.1-0.1-0.1c0,0,0,0,0,0c0.5-5.3-4.7-6.6-4.9-6.7c-0.1,0-0.1-0.1-0.1-0.1
	c0-5.1-3.2-5.1-3.3-5.1c0,0-0.1,0-0.1,0c0,0,0-0.1,0-0.1c0.4-2.8-1.5-5.4-4.3-5.9c-0.1,0-0.2,0-0.4,0c-0.1,0-0.1-0.1-0.1-0.1
	c0,0,0,0,0,0c0.2-3.5-5.1-5.1-5.2-5.1c-0.1,0-0.1-0.1-0.1-0.2c0-0.1,0.1-0.1,0.2-0.1c0.2,0.1,5.5,1.6,5.4,5.3c3,0.3,5.1,3,4.7,6
	c0,0,0,0,0,0c0.7,0.1,3.4,0.7,3.4,5.3c0.8,0.2,5.5,1.8,5,7C601.7,370.3,601.6,370.4,601.5,370.4
	C601.5,370.4,601.5,370.4,601.5,370.4z"/>
<path class="st21" d="M562.5,364.6c-0.1,0-0.1,0-0.1-0.1c0-0.1,0-0.1,0.1-0.2l16.8-8.9c0.1,0,0.1,0,0.2,0.1c0,0.1,0,0.1,0,0.2
	L562.5,364.6L562.5,364.6z"/>
<path class="st17" d="M613.5,377c-4.3,0.6-5.9-6.7-5.9-6.7l11.3-3.9C618.8,366.4,619.2,376.2,613.5,377z"/>
<path class="st25" d="M613.5,377c-4.3,0.6-5.9-6.7-5.9-6.7l11.3-3.9C618.8,366.4,619.2,376.2,613.5,377z"/>
<path class="st12" d="M419.7,293.7c0,0-9.5,4.5-4.5,7.9c0,0,2.1,1.8,10.5-2.4"/>
<path class="st21" d="M417,302.1c-0.7,0.1-1.3-0.1-1.9-0.4c-0.9-0.5-1.5-1.5-1.5-2.5c0.2-2.9,5.8-5.5,6-5.6c0.1,0,0.1,0,0.2,0.1
	c0,0.1,0,0.1-0.1,0.2c-0.1,0-5.6,2.7-5.9,5.4c0,1,0.5,1.8,1.4,2.3c0,0,2.2,1.7,10.4-2.4c0.1,0,0.1,0,0.2,0.1c0,0,0,0,0,0
	c0,0.1,0,0.1-0.1,0.2c0,0,0,0,0,0C421.3,301.6,418.6,302.1,417,302.1z"/>
<path class="st12" d="M414.7,306.9c0,0,5.5,2.4,3.2,5.5c0,0-2.4,2.1-9-0.8"/>
<path class="st21" d="M415,313.3c-2.1-0.1-4.2-0.6-6.1-1.5c-0.1,0-0.1-0.1-0.1-0.2c0-0.1,0.1-0.1,0.2-0.1c6.2,2.7,8.6,1,8.8,0.8
	c0.5-0.6,0.6-1.3,0.5-2c-0.5-1.9-3.6-3.3-3.6-3.3c-0.1,0-0.1-0.1-0.1-0.2c0-0.1,0.1-0.1,0.2-0.1c0.1,0,3.2,1.4,3.8,3.4
	c0.2,0.8,0,1.6-0.5,2.3l0,0C417.1,313.1,416,313.4,415,313.3z"/>
<path class="st12" d="M426.5,315.9c0.1-1.5-1-2.8-2.4-2.9c-0.4,0-0.9,0-1.3,0.2c0,0,1.3-3.8-4.7-3.7c0.7,0.8,0.6,2.1-0.2,2.8
	c0,0-0.1,0-0.1,0.1"/>
<path class="st21" d="M426.5,316c-0.1,0-0.1-0.1-0.1-0.1l0,0c0-0.9-0.4-1.8-1.1-2.4c-0.8-0.4-1.7-0.5-2.5-0.2c0,0-0.1,0-0.1,0
	c0,0,0-0.1,0-0.1c0.2-0.7,0.1-1.5-0.3-2.2c-0.7-0.9-2-1.3-4-1.3c0.7,0.9,0.5,2.2-0.4,2.9c-0.1,0-0.2,0-0.2-0.1c0,0,0-0.1,0-0.1
	c0.8-0.6,1-1.8,0.3-2.6c0,0,0-0.1-0.1-0.1c0,0,0-0.1,0-0.1c0,0,0.1-0.1,0.1-0.1c2.3-0.1,3.8,0.4,4.5,1.4c0.4,0.6,0.5,1.4,0.3,2.2
	c0.8-0.2,1.7-0.1,2.5,0.3c0.8,0.6,1.2,1.6,1.2,2.6C426.7,315.9,426.6,316,426.5,316L426.5,316z"/>
<path class="st12" d="M422.2,300.9c0,0,3.5-0.4,6.1,6.2"/>
<path class="st21" d="M428.4,307.2c-0.1,0-0.1,0-0.1-0.1c-2.6-6.4-6-6.1-6-6.1c-0.1,0-0.1-0.1-0.1-0.1s0.1-0.1,0.1-0.1l0,0
	c0.1,0,3.6-0.3,6.3,6.3C428.5,307.1,428.5,307.2,428.4,307.2C428.4,307.2,428.4,307.2,428.4,307.2L428.4,307.2z"/>
<path class="st12" d="M409.9,297.9c0,0,6.3,3.4,6,6c0,0.5,0,0.9,0,1.4c-0.1,1.1-1.1,1.9-2.2,1.8c-0.3,0-0.6-0.1-0.9-0.3l-6.1-3.7"/>
<path class="st21" d="M413.9,307.3c-0.4,0-0.8-0.1-1.1-0.3l-6.1-3.7c-0.1,0-0.1-0.1,0-0.2c0-0.1,0.1-0.1,0.2,0l0,0l6.1,3.7
	c0.9,0.5,2.1,0.3,2.6-0.7c0.1-0.2,0.2-0.5,0.3-0.7c0.1-0.5,0.1-0.9,0-1.4c0.2-2.5-5.9-5.9-6-5.9c-0.1,0-0.1-0.1,0-0.2
	c0-0.1,0.1-0.1,0.2-0.1c0,0,0,0,0,0c0.3,0.1,6.4,3.5,6.1,6.2c0,0.5,0,0.9,0,1.4C415.9,306.5,415,307.3,413.9,307.3L413.9,307.3z"/>
<g class="st23">
	<path d="M611.7,439.1L611.7,439.1c-0.1,0-0.1,0-0.1-0.1c0,0,0,0,0,0l0.8-55.5c0-0.1,0.1-0.1,0.1-0.1l0,0l0,0c0.1,0,0.1,0.1,0.1,0.1
		l0,0l-0.8,55.5C611.9,439,611.8,439.1,611.7,439.1L611.7,439.1z"/>
</g>
<g class="st23">
	<path d="M612.3,390.6c-0.1,0-0.1-0.1-0.1-0.1c0,0,0-0.1,0.1-0.1c8.1-4.8,28.5-7.5,28.7-7.5c0.1,0,0.1,0,0.1,0.1c0,0,0,0,0,0
		c0,0.1,0,0.1-0.1,0.1c0,0,0,0,0,0C640.8,383,620.4,385.8,612.3,390.6L612.3,390.6z"/>
</g>
<g class="st23">
	<path d="M544.4,511.4L544.4,511.4c-0.1,0-0.1-0.1-0.1-0.1c0,0,0,0,0,0c0.1-0.4,7.4-35.7,7.6-73.1c0-0.3-1.8-27,0.8-38.2
		c0-0.1,0.1-0.1,0.2-0.1c0.1,0,0.1,0.1,0.1,0.2c-2.6,11.2-0.8,37.8-0.8,38.1c-0.3,37.5-7.5,72.8-7.6,73.2
		C544.5,511.4,544.4,511.4,544.4,511.4z"/>
</g>
<path class="st20" d="M574.4,528.1c0,0-32.2-7.8-28.5-12c0,0,1.7-3.8,26,0.6L574.4,528.1z"/>
<path d="M612.8,600c0,0,3.2,36.3-20,42.1c0,0-5,2.1-17.1,2.9c0,0-8.2,0-5.3-7.4l17.9-46.8c0,0,4-9.7,9.5-2.1c0,0,6.8,9.5,10-1
	l4.5-16.7l8.2,16.8l0,0C620.5,588,621.2,591.3,612.8,600z"/>
<path class="st1" d="M627,604.4c0,8.2-11.3,15.3-11.3,15.3c-2.4,12.6-8.9,19.5-8.9,19.5c-13.2,15.8-32.9,10.5-32.9,10.5
	c-8.7-3.9-3.4-12.1-3.4-12.1c-2.9,7.4,5.3,7.4,5.3,7.4c12.1-0.8,17.1-2.9,17.1-2.9c23.2-5.8,20-42.1,20-42.1
	c8.4-8.7,7.7-11.9,7.6-12.1L627,604.4z"/>
<path class="st12" d="M571.9,516.6l16.4,74.1c0,0,3.7-9.2,9.5-2.1c0,0,6.3,10,10-1l3.7-13.4l-4.7-43.7
	C606.7,530.6,603.7,521.4,571.9,516.6z"/>
<path class="st16" d="M661.7,481.6c-1.5,11-1.5,38.9-1.5,38.9c1.5,23.7,8,25.6,9.1,25.8c-2.2-0.2-28.6-3.3-29.3-12.9
	c2.4-14.2,6-28.2,10.8-41.8c0,0,5.3-20,10.5-41.6L694,333.1c0,0,12.8-38.8,19.2-47.8l10.2,0.2c0,0-26.9,53.9-40.6,117.1l-19,76.7
	C662.7,479.6,661.8,480.5,661.7,481.6z"/>
<path class="st20" d="M661.7,481.6c-1.5,11-1.5,38.9-1.5,38.9c1.5,23.7,8,25.6,9.1,25.8c-2.2-0.2-28.6-3.3-29.3-12.9
	c2.4-14.2,6-28.2,10.8-41.8c0,0,5.3-20,10.5-41.6L694,333.1c0,0,12.8-38.8,19.2-47.8l10.2,0.2c0,0-26.9,53.9-40.6,117.1l-19,76.7
	C662.7,479.6,661.8,480.5,661.7,481.6z"/>
<path class="st16" d="M199.4,172.3c-0.2,0-0.3-0.1-0.4-0.3c-2-4.7-2.8-9.8-2.3-14.8c-1.4,1-4.1,3.7-3.9,9.9c0,0.2-0.2,0.5-0.4,0.5
	c0,0,0,0,0,0c-0.2,0-0.5-0.2-0.5-0.4c0,0,0,0,0,0c-0.3-8.6,4.9-11.1,5.2-11.2c0.1-0.1,0.3-0.1,0.4,0c0.1,0.1,0.2,0.3,0.2,0.4
	c-0.6,5.2,0.1,10.4,2.2,15.2c0.1,0.2,0,0.5-0.2,0.6C199.6,172.3,199.5,172.3,199.4,172.3z"/>
<polygon class="st12" points="218.1,170.6 224.2,189.8 244.2,197.9 248.1,192.7 245.8,186.4 220.7,168.4 "/>
<path class="st21" d="M245.8,186.4l2.4,6.3c0,0-12.8,4.4-18.2-9.8L245.8,186.4z"/>
<path class="st16" d="M260.2,151.3L260.2,151.3c-0.3-0.1-0.5-0.3-0.4-0.5c0.1-0.6,2.8-15.7-10.3-20.1c-0.2-0.1-0.4-0.3-0.3-0.6
	c0.1-0.2,0.3-0.4,0.6-0.3c0,0,0,0,0.1,0c13.9,4.7,11,21,10.9,21.1C260.6,151.1,260.4,151.3,260.2,151.3z"/>
<path class="st24" d="M215.1,129.1l-12.8,31.2c-2-0.8-3.8-2.1-5-3.9c-1.3-2-2.2-4.8-1.2-8.7c0,0,2.1-17.2,14.4-18.8
	C212,128.7,213.6,128.8,215.1,129.1z"/>
<path class="st16" d="M196,147.7c-1,3.9-0.1,6.8,1.2,8.7c-2.3-0.1-16.8-1.1-14.9-16.9c0,0-0.5-6.3,8.4-10.8c0,0,3.7-16.8,19.7,0.2
	C198.1,130.5,196,147.7,196,147.7z"/>
<path class="st12" d="M222,135.5L222,135.5c9-6,21.2-3.6,27.3,5.5l12.7,19c6,9,3.6,21.3-5.5,27.3l0,0c-9,6-21.2,3.6-27.3-5.5
	l-12.7-19C210.5,153.8,213,141.6,222,135.5z"/>
<path class="st16" d="M222,182.8c0,0-17-0.4-19.9-24.1c0,0-1.1-13.1,3.4-17.4c0,0,5.5-20,28.2-14.2c0,0,19.5-4.2,21.6,11l0.5,12.4
	l-6.8-10.1c0,0-6.8-8.3-13.9-3.3c0,0-3.7,5.3-9.7,6.3c-3.6,1.1-5.6,4.8-4.6,8.4c0,0.1,0.1,0.2,0.1,0.3c0,0-3.4,0.3-1.3,10.9
	l-1.3,7.5L222,182.8z"/>
<ellipse transform="matrix(0.8221 -0.5693 0.5693 0.8221 -56.8391 151.5743)" class="st12" cx="214.2" cy="166.8" rx="6.4" ry="8.7"/>
<path class="st17" d="M224.2,189.8c0,0-1.8-1.1-1.8,2.4v6l18.4,2.9c0,0,3.2,0,1.6,5.5c0,0-10.5,20.8,1.3,35.5l2.6-35.8
	c0,0,0.5-2.4,2.6,0c0,0,14.7,18.7,16.3,28.2c0,0,7.6-19.7-5-26.6l-11.6-5.5c0,0-2.6-1.3,0-3.4l1.2-1c0.7-0.6,1-1.6,0.8-2.5
	c-0.4-1.2-1.1-2.7-2.5-2.9l-3.9,5.3L224.2,189.8z"/>
<path class="st26" d="M224.2,189.8c0,0-1.8-1.1-1.8,2.4v6l18.4,2.9c0,0,3.2,0,1.6,5.5c0,0-10.5,20.8,1.3,35.5l2.6-35.8
	c0,0,0.5-2.4,2.6,0c0,0,14.7,18.7,16.3,28.2c0,0,7.6-19.7-5-26.6l-11.6-5.5c0,0-2.6-1.3,0-3.4l1.2-1c0.7-0.6,1-1.6,0.8-2.5
	c-0.4-1.2-1.1-2.7-2.5-2.9l-3.9,5.3L224.2,189.8z"/>
<path class="st12" d="M294.2,278.2c0,0,1.6,3.7-4.2,4c0,0-0.8,2.9-5.5,2.9c0,0-0.5,3.4-5.8,3.4l-18.1,1.8l-5.9,0.7
	c-0.2-4.3,0-8.5,0.6-12.8c0,0,0.3-6.8,3.4-8.7l5.8-0.6c1.2-0.1,2.4-0.5,3.4-1.2l7-4.6c2-1.3,4.5-1.7,6.8-1.1c3,0.9,7.2,2.3,9.6,4.3
	C291.3,266.3,301.5,273.7,294.2,278.2z"/>
<path class="st21" d="M294.2,278.6c-0.2,0-0.4-0.1-0.4-0.3c-3-8.3-14-9.4-14.1-9.4c-0.2,0-0.4-0.2-0.4-0.5c0,0,0,0,0,0
	c0-0.2,0.2-0.4,0.5-0.4c0.1,0,11.6,1.2,14.9,10c0.1,0.2,0,0.5-0.2,0.6c0,0,0,0,0,0L294.2,278.6z"/>
<path class="st21" d="M290,282.6c-0.2,0-0.4-0.2-0.4-0.4c-1.2-6.2-12.1-7.8-12.2-7.8c-0.2,0-0.4-0.3-0.4-0.5c0-0.2,0.2-0.4,0.5-0.4
	c0,0,0,0,0,0c0.5,0.1,11.6,1.7,13,8.5C290.5,282.3,290.3,282.5,290,282.6L290,282.6z"/>
<path class="st21" d="M284.4,285.5c-0.2,0-0.4-0.1-0.4-0.4c-1-4.3-11.8-4.1-11.9-4.1c-0.2,0-0.5-0.2-0.5-0.4c0,0,0,0,0,0
	c0-0.2,0.2-0.4,0.4-0.5c0,0,0,0,0,0c0.5,0,11.7-0.2,12.8,4.8c0.1,0.2-0.1,0.5-0.3,0.5c0,0,0,0,0,0L284.4,285.5z"/>
<path class="st1" d="M229.6,307.8h117.4c2.4,0,4.3,1.9,4.3,4.3l0,0c0,2.4-1.9,4.3-4.3,4.3H229.6c-2.4,0-4.3-1.9-4.3-4.3l0,0
	C225.2,309.7,227.2,307.8,229.6,307.8z"/>
</svg>
